<?xml version="1.0" standalone="no"?>
<!DOCTYPE svg PUBLIC "-//W3C//DTD SVG 1.1//EN" "http://www.w3.org/Graphics/SVG/1.1/DTD/svg11.dtd" >
<svg xmlns="http://www.w3.org/2000/svg" xmlns:xlink="http://www.w3.org/1999/xlink" version="1.1">
<metadata>
Created by FontForge 20190801 at Mon Jun 15 19:27:56 2020
 By Jimmy Wärting
Copyright 2020 The Kanit Project Authors (https://github.com/cadsondemak/kanit)
</metadata>
<defs>
<font id="Kanit-Italic" horiz-adv-x="0" >
  <font-face 
    font-family="Kanit"
    font-weight="400"
    font-style="italic"
    font-stretch="normal"
    units-per-em="1000"
    panose-1="0 0 0 0 0 0 0 0 0 0"
    ascent="800"
    descent="-200"
    x-height="474"
    cap-height="644"
    bbox="-511 -351 1157 1062"
    underline-thickness="50"
    underline-position="-125"
    slope="-12"
    unicode-range="U+000D-FB02"
  />
<missing-glyph horiz-adv-x="487" 
d="M-23 0v714h411v-714h-411zM28 51h309v612h-309v-612z" />
    <glyph glyph-name="fi" unicode="fi" horiz-adv-x="531" 
d="M36 0l82 389h-69l18 85h69l11 49q15 73 72 120t152 47q35 0 65 -4.5t49 -12.5l-18 -81q-12 6 -36 9t-46 3q-58 0 -90 -20t-41 -63l-10 -47h267l-100 -474h-109l82 389h-158l-82 -389h-108z" />
    <glyph glyph-name="fl" unicode="fl" horiz-adv-x="531" 
d="M36 0l82 389h-69l18 85h69l11 51q15 70 66.5 117.5t138.5 47.5q29 0 58.5 -3.5t53.5 -11.5h90l-143 -675h-109l82 389h-158l-82 -389h-108zM244 474h158l26 123q-12 5 -28 7t-32 2q-54 0 -79.5 -20.5t-34.5 -63.5z" />
    <glyph glyph-name="uni0E240E45" unicode="&#xe24;&#xe45;" horiz-adv-x="881" 
d="M345 -160l106 498q15 69 -8.5 96.5t-106.5 27.5q-50 0 -96.5 -14t-75.5 -37l-4 -18l108 -29l-15 -72q-41 -10 -62 -32t-30 -66l-14 -65q-5 -23 0 -33t30 -10h58l-18 -86h-108q-45 0 -65.5 28t-10.5 73l20 94q9 44 33 77.5t72 46.5l-102 27l24 112q47 35 118.5 63.5
t159.5 28.5q93 0 146 -32v2q33 13 77 21.5t87 8.5q102 0 144 -47t20 -149l-110 -514h-109l107 500q10 45 7.5 72t-25 38.5t-73.5 11.5q-33 0 -72 -7q18 -48 3 -120l-106 -495h-109z" />
    <glyph glyph-name="uni0E260E45" unicode="&#xe26;&#xe45;" horiz-adv-x="919" 
d="M380 -160l106 498q15 69 -7 96.5t-102 27.5q-51 0 -97 -14t-75 -37l-4 -18l111 -29l-15 -72q-41 -11 -57.5 -32t-25.5 -66l-16 -72q-13 -64 -49.5 -93t-93.5 -29h-67l18 86h37q21 0 31.5 9.5t15.5 32.5l14 67q9 44 30 76t67 48l-104 27l24 112q47 35 118.5 63.5
t158.5 28.5q90 0 141 -33l1 3q33 13 77 21.5t87 8.5q102 0 144 -47t20 -149l-110 -514h-109l107 500q10 45 7.5 72t-25 38.5t-73.5 11.5q-34 0 -74 -8q18 -48 3 -119l-106 -495h-108z" />
    <glyph glyph-name=".notdef" horiz-adv-x="487" 
d="M-23 0v714h411v-714h-411zM28 51h309v612h-309v-612z" />
    <glyph glyph-name="A" unicode="A" horiz-adv-x="700" 
d="M-13 0l382 644h122l108 -644h-108l-29 166h-259l-99 -166h-117zM238 250h224l-50 295z" />
    <glyph glyph-name="Aacute" unicode="&#xc1;" horiz-adv-x="700" 
d="M399 688l113 177h96l-122 -177h-87zM-13 0l382 644h122l108 -644h-108l-29 166h-259l-99 -166h-117zM238 250h224l-50 295z" />
    <glyph glyph-name="Abreve" unicode="&#x102;" horiz-adv-x="700" 
d="M437 688q-66 0 -94.5 38.5t-15.5 102.5h70q-7 -34 3 -55t48 -21q34 0 56.5 21t29.5 55h77q-13 -64 -60 -102.5t-114 -38.5zM-13 0l382 644h122l108 -644h-108l-29 166h-259l-99 -166h-117zM238 250h224l-50 295z" />
    <glyph glyph-name="uni1EAE" unicode="&#x1eae;" horiz-adv-x="700" 
d="M417 805l92 133h84l-99 -133h-77zM439 688q-43 0 -75.5 14.5t-46.5 47.5t-3 86h64q-9 -44 7 -66.5t65 -22.5q41 0 70 22.5t38 66.5h68q-16 -80 -66 -114t-121 -34zM-13 0l382 644h122l108 -644h-108l-29 166h-259l-99 -166h-117zM238 250h224l-50 295z" />
    <glyph glyph-name="uni1EB6" unicode="&#x1eb6;" horiz-adv-x="700" 
d="M436 688q-66 0 -94.5 38.5t-15.5 102.5h70q-7 -34 3 -55t48 -21q34 0 56.5 21t29.5 55h77q-13 -64 -60 -102.5t-114 -38.5zM-13 0l382 644h122l108 -644h-108l-29 166h-259l-99 -166h-117zM238 250h224l-50 295zM210 -173l18 88h94l-18 -88h-94z" />
    <glyph glyph-name="uni1EB0" unicode="&#x1eb0;" horiz-adv-x="700" 
d="M434 805l-43 133h84l36 -133h-77zM439 688q-43 0 -75.5 14.5t-46.5 47.5t-3 86h64q-9 -44 7 -66.5t65 -22.5q41 0 70 22.5t38 66.5h68q-16 -80 -66 -114t-121 -34zM-13 0l382 644h122l108 -644h-108l-29 166h-259l-99 -166h-117zM238 250h224l-50 295z" />
    <glyph glyph-name="uni1EB2" unicode="&#x1eb2;" horiz-adv-x="700" 
d="M421 810l12 59q49 2 68 13t23 30q4 20 -7.5 26.5t-37.5 6.5q-16 0 -30 -3.5t-28 -8.5l11 51q16 5 38 8.5t45 3.5q47 0 69 -21t14 -56q-7 -33 -28.5 -50.5t-65.5 -25.5l-7 -33h-76zM439 688q-43 0 -75.5 14.5t-46.5 47.5t-3 86h64q-9 -44 7 -66.5t65 -22.5q41 0 70 22.5
t38 66.5h68q-16 -80 -66 -114t-121 -34zM-13 0l382 644h122l108 -644h-108l-29 166h-259l-99 -166h-117zM238 250h224l-50 295z" />
    <glyph glyph-name="uni1EB4" unicode="&#x1eb4;" horiz-adv-x="700" 
d="M553 857q-26 0 -49.5 9.5t-45 18.5t-44.5 9q-25 0 -47.5 -8t-42.5 -26l15 71q15 13 39.5 21t48.5 8q28 0 50 -9.5t43 -19t46 -9.5q52 0 83 36l-14 -72q-13 -13 -34.5 -21t-47.5 -8zM439 688q-43 0 -75.5 14.5t-46.5 47.5t-3 86h64q-9 -44 7 -66.5t65 -22.5q41 0 70 22.5
t38 66.5h68q-16 -80 -66 -114t-121 -34zM-13 0l382 644h122l108 -644h-108l-29 166h-259l-99 -166h-117zM238 250h224l-50 295z" />
    <glyph glyph-name="uni01CD" unicode="&#x1cd;" horiz-adv-x="700" 
d="M399 687l-90 161h85l53 -101l97 101h90l-159 -161h-76zM-13 0l382 644h122l108 -644h-108l-29 166h-259l-99 -166h-117zM238 250h224l-50 295z" />
    <glyph glyph-name="Acircumflex" unicode="&#xc2;" horiz-adv-x="700" 
d="M275 687l158 161h76l91 -161h-84l-55 101l-95 -101h-91zM-13 0l382 644h122l108 -644h-108l-29 166h-259l-99 -166h-117zM238 250h224l-50 295z" />
    <glyph glyph-name="uni1EA4" unicode="&#x1ea4;" horiz-adv-x="700" 
d="M549 800l92 133h83l-98 -133h-77zM273 687l146 127h84l92 -127h-86l-54 82l-88 -82h-94zM-13 0l382 644h122l108 -644h-108l-29 166h-259l-99 -166h-117zM238 250h224l-50 295z" />
    <glyph glyph-name="uni1EAC" unicode="&#x1eac;" horiz-adv-x="700" 
d="M275 687l158 161h76l91 -161h-84l-55 101l-95 -101h-91zM-13 0l382 644h122l108 -644h-108l-29 166h-259l-99 -166h-117zM238 250h224l-50 295zM210 -173l18 88h94l-18 -88h-94z" />
    <glyph glyph-name="uni1EA6" unicode="&#x1ea6;" horiz-adv-x="700" 
d="M293 800l-42 133h84l35 -133h-77zM276 687l145 127h85l90 -127h-86l-53 82l-89 -82h-92zM-13 0l382 644h122l108 -644h-108l-29 166h-259l-99 -166h-117zM238 250h224l-50 295z" />
    <glyph glyph-name="uni1EA8" unicode="&#x1ea8;" horiz-adv-x="700" 
d="M557 779l14 66q48 2 64 11.5t20 27.5q7 31 -40 31q-16 0 -30 -3.5t-28 -8.5l12 53q16 5 34.5 8.5t43.5 3.5q49 0 72 -21.5t15 -56.5q-7 -33 -29.5 -52t-64.5 -25l-7 -34h-76zM277 687l145 127h85l91 -127h-86l-53 82l-89 -82h-93zM-13 0l382 644h122l108 -644h-108
l-29 166h-259l-99 -166h-117zM238 250h224l-50 295z" />
    <glyph glyph-name="uni1EAA" unicode="&#x1eaa;" horiz-adv-x="700" 
d="M550 822q-26 0 -49.5 9.5t-45 19t-44.5 9.5q-25 0 -47.5 -8t-42.5 -27l15 71q15 13 39.5 21t48.5 8q28 0 50 -9t43 -18.5t46 -9.5q51 0 84 35l-16 -71q-12 -13 -33.5 -21.5t-47.5 -8.5zM278 687l145 127h85l91 -127h-86l-53 82l-89 -82h-93zM-13 0l382 644h122l108 -644
h-108l-29 166h-259l-99 -166h-117zM238 250h224l-50 295z" />
    <glyph glyph-name="Adieresis" unicode="&#xc4;" horiz-adv-x="700" 
d="M304 711l19 86h91l-19 -86h-91zM489 711l19 86h92l-19 -86h-92zM-13 0l382 644h122l108 -644h-108l-29 166h-259l-99 -166h-117zM238 250h224l-50 295z" />
    <glyph glyph-name="uni1EA0" unicode="&#x1ea0;" horiz-adv-x="700" 
d="M-13 0l382 644h122l108 -644h-108l-29 166h-259l-99 -166h-117zM238 250h224l-50 295zM210 -173l18 88h94l-18 -88h-94z" />
    <glyph glyph-name="Agrave" unicode="&#xc0;" horiz-adv-x="700" 
d="M387 688l-45 177h95l38 -177h-88zM-13 0l382 644h122l108 -644h-108l-29 166h-259l-99 -166h-117zM238 250h224l-50 295z" />
    <glyph glyph-name="uni1EA2" unicode="&#x1ea2;" horiz-adv-x="700" 
d="M397 688l18 82q58 3 78 14t25 36q8 42 -66 42q-15 0 -33.5 -3.5t-32.5 -8.5l12 59q18 6 44.5 9.5t51.5 3.5q62 0 89 -25t17 -68q-8 -41 -32.5 -63.5t-75.5 -30.5l-10 -47h-85zM-13 0l382 644h122l108 -644h-108l-29 166h-259l-99 -166h-117zM238 250h224l-50 295z" />
    <glyph glyph-name="Amacron" unicode="&#x100;" horiz-adv-x="700" 
d="M294 709l15 71h297l-15 -71h-297zM-13 0l382 644h122l108 -644h-108l-29 166h-259l-99 -166h-117zM238 250h224l-50 295z" />
    <glyph glyph-name="Aogonek" unicode="&#x104;" horiz-adv-x="719" 
d="M504 -220q-43 0 -70 21.5t-18 67.5q8 42 26 69.5t49 61.5l-29 166h-259l-99 -166h-117l382 644h122l108 -644q-44 -25 -65 -53.5t-27 -58.5q-5 -23 5.5 -31.5t32.5 -8.5q12 0 27 3t25 8l-14 -66q-14 -6 -35.5 -9.5t-43.5 -3.5zM238 250h224l-50 295z" />
    <glyph glyph-name="Aring" unicode="&#xc5;" horiz-adv-x="700" 
d="M-13 0l368 620q-41 33 -28 94q11 48 47 81t93 33q54 0 79.5 -33t14.5 -81q-13 -61 -66 -94l104 -620h-108l-29 166h-259l-99 -166h-117zM431 655q28 0 48 17t25 42t-5.5 42t-42.5 17q-26 0 -46.5 -17t-25.5 -42t5.5 -42t41.5 -17zM238 250h224l-50 295z" />
    <glyph glyph-name="Aringacute" unicode="&#x1fa;" horiz-adv-x="700" 
d="M417 853l113 177h96l-122 -177h-87zM-13 0l368 620q-41 33 -28 94q11 48 47 81t93 33q54 0 79.5 -33t14.5 -81q-13 -61 -66 -94l104 -620h-108l-29 166h-259l-99 -166h-117zM431 655q28 0 48 17t25 42t-5.5 42t-42.5 17q-26 0 -46.5 -17t-25.5 -42t5.5 -42t41.5 -17z
M238 250h224l-50 295z" />
    <glyph glyph-name="Atilde" unicode="&#xc3;" horiz-adv-x="700" 
d="M520 695q-27 0 -51 10t-46.5 19.5t-45.5 9.5q-26 0 -49.5 -8t-45.5 -28l17 80q16 14 41 22t50 8q29 0 52 -9.5t45 -19.5t48 -10q53 0 88 37l-17 -80q-13 -13 -36 -22t-50 -9zM-13 0l382 644h122l108 -644h-108l-29 166h-259l-99 -166h-117zM238 250h224l-50 295z" />
    <glyph glyph-name="AE" unicode="&#xc6;" horiz-adv-x="845" 
d="M-13 0l382 644h512l-18 -85h-287l-41 -195h250l-18 -84h-250l-42 -196h287l-17 -84h-395l35 167h-182l-99 -167h-117zM249 251h154l66 310h-39z" />
    <glyph glyph-name="AEacute" unicode="&#x1fc;" horiz-adv-x="845" 
d="M516 688l113 177h96l-122 -177h-87zM-13 0l382 644h512l-18 -85h-287l-41 -195h250l-18 -84h-250l-42 -196h287l-17 -84h-395l35 167h-182l-99 -167h-117zM249 251h154l66 310h-39z" />
    <glyph glyph-name="B" unicode="B" horiz-adv-x="631" 
d="M7 0l136 644h312q88 0 128.5 -45t23.5 -127q-11 -52 -39.5 -87.5t-67.5 -53.5q44 -13 64.5 -46.5t6.5 -98.5q-40 -186 -238 -186h-326zM194 369h188q55 0 84 25.5t38 68.5q7 33 3.5 55t-25.5 33t-71 11h-176zM133 80h194q58 0 90 24.5t45 85.5q11 50 -10.5 74.5
t-91.5 24.5h-183z" />
    <glyph glyph-name="C" unicode="C" horiz-adv-x="597" 
d="M305 -10q-97 0 -161 39.5t-88.5 112t-3.5 170.5q23 106 70.5 182.5t127 118t196.5 41.5q56 0 100.5 -8.5t81.5 -22.5l-20 -95q-37 16 -80.5 24.5t-93.5 8.5q-120 0 -183 -64t-89 -185q-24 -113 13.5 -171.5t158.5 -58.5q46 0 94 7.5t93 23.5l-21 -96q-43 -13 -91 -20
t-104 -7z" />
    <glyph glyph-name="Cacute" unicode="&#x106;" horiz-adv-x="597" 
d="M391 688l113 177h96l-122 -177h-87zM305 -10q-97 0 -161 39.5t-88.5 112t-3.5 170.5q23 106 70.5 182.5t127 118t196.5 41.5q56 0 100.5 -8.5t81.5 -22.5l-20 -95q-37 16 -80.5 24.5t-93.5 8.5q-120 0 -183 -64t-89 -185q-24 -113 13.5 -171.5t158.5 -58.5q46 0 94 7.5
t93 23.5l-21 -96q-43 -13 -91 -20t-104 -7z" />
    <glyph glyph-name="Ccaron" unicode="&#x10c;" horiz-adv-x="597" 
d="M414 687l-90 161h85l53 -101l97 101h90l-159 -161h-76zM305 -10q-97 0 -161 39.5t-88.5 112t-3.5 170.5q23 106 70.5 182.5t127 118t196.5 41.5q56 0 100.5 -8.5t81.5 -22.5l-20 -95q-37 16 -80.5 24.5t-93.5 8.5q-120 0 -183 -64t-89 -185q-24 -113 13.5 -171.5
t158.5 -58.5q46 0 94 7.5t93 23.5l-21 -96q-43 -13 -91 -20t-104 -7z" />
    <glyph glyph-name="Ccedilla" unicode="&#xc7;" horiz-adv-x="597" 
d="M228 -240q-16 0 -38 2.5t-33 5.5l13 59q27 -8 60 -8q45 0 66.5 8.5t27.5 36.5q5 28 -14 34.5t-58 6.5h-40l45 88q-81 9 -134 50.5t-71.5 110t0.5 158.5q23 106 70.5 182.5t127 118t196.5 41.5q56 0 100.5 -8.5t81.5 -22.5l-20 -95q-37 16 -80.5 24.5t-93.5 8.5
q-120 0 -183 -64t-89 -185q-24 -113 13.5 -171.5t158.5 -58.5q46 0 94 7.5t93 23.5l-21 -96q-38 -11 -80.5 -18t-90.5 -9l-20 -37q53 0 75 -24t13 -66q-10 -49 -51.5 -76t-117.5 -27z" />
    <glyph glyph-name="Ccircumflex" unicode="&#x108;" horiz-adv-x="597" 
d="M262 687l158 161h76l91 -161h-84l-55 101l-95 -101h-91zM305 -10q-97 0 -161 39.5t-88.5 112t-3.5 170.5q23 106 70.5 182.5t127 118t196.5 41.5q56 0 100.5 -8.5t81.5 -22.5l-20 -95q-37 16 -80.5 24.5t-93.5 8.5q-120 0 -183 -64t-89 -185q-24 -113 13.5 -171.5
t158.5 -58.5q46 0 94 7.5t93 23.5l-21 -96q-43 -13 -91 -20t-104 -7z" />
    <glyph glyph-name="Cdotaccent" unicode="&#x10a;" horiz-adv-x="597" 
d="M401 711l19 88h92l-19 -88h-92zM305 -10q-97 0 -161 39.5t-88.5 112t-3.5 170.5q23 106 70.5 182.5t127 118t196.5 41.5q56 0 100.5 -8.5t81.5 -22.5l-20 -95q-37 16 -80.5 24.5t-93.5 8.5q-120 0 -183 -64t-89 -185q-24 -113 13.5 -171.5t158.5 -58.5q46 0 94 7.5
t93 23.5l-21 -96q-43 -13 -91 -20t-104 -7z" />
    <glyph glyph-name="D" unicode="D" horiz-adv-x="649" 
d="M7 0l136 644h261q137 0 193 -77.5t19 -248.5q-35 -165 -117.5 -241.5t-227.5 -76.5h-264zM133 84h135q66 0 111.5 18.5t76.5 69.5t51 146t16.5 147t-39.5 73t-115 21h-135z" />
    <glyph glyph-name="Eth" unicode="&#xd0;" horiz-adv-x="688" 
d="M46 0l58 274h-70l18 84h69l61 286h261q137 0 193 -77.5t19 -248.5q-35 -165 -117.5 -241.5t-227.5 -76.5h-264zM172 84h135q66 0 111.5 18.5t76.5 69.5t51 146t16.5 147t-39.5 73t-115 21h-135l-43 -201h166l-18 -84h-166z" />
    <glyph glyph-name="Dcaron" unicode="&#x10e;" horiz-adv-x="649" 
d="M355 698l-90 161h85l53 -101l97 101h90l-159 -161h-76zM7 0l136 644h261q137 0 193 -77.5t19 -248.5q-35 -165 -117.5 -241.5t-227.5 -76.5h-264zM133 84h135q66 0 111.5 18.5t76.5 69.5t51 146t16.5 147t-39.5 73t-115 21h-135z" />
    <glyph glyph-name="Dcroat" unicode="&#x110;" horiz-adv-x="678" 
d="M36 0l58 274h-70l18 84h69l61 286h261q137 0 193 -77.5t19 -248.5q-35 -165 -117.5 -241.5t-227.5 -76.5h-264zM162 84h135q66 0 111.5 18.5t76.5 69.5t51 146t16.5 147t-39.5 73t-115 21h-135l-43 -201h166l-18 -84h-166z" />
    <glyph glyph-name="uni1E0C" unicode="&#x1e0c;" horiz-adv-x="649" 
d="M7 0l136 644h261q137 0 193 -77.5t19 -248.5q-35 -165 -117.5 -241.5t-227.5 -76.5h-264zM133 84h135q66 0 111.5 18.5t76.5 69.5t51 146t16.5 147t-39.5 73t-115 21h-135zM179 -173l18 88h94l-18 -88h-94z" />
    <glyph glyph-name="uni1E0E" unicode="&#x1e0e;" horiz-adv-x="649" 
d="M7 0l136 644h261q137 0 193 -77.5t19 -248.5q-35 -165 -117.5 -241.5t-227.5 -76.5h-264zM133 84h135q66 0 111.5 18.5t76.5 69.5t51 146t16.5 147t-39.5 73t-115 21h-135zM40 -164l15 71h297l-15 -71h-297z" />
    <glyph glyph-name="E" unicode="E" horiz-adv-x="551" 
d="M7 0l136 644h449l-18 -85h-340l-41 -195h303l-18 -84h-303l-42 -196h340l-17 -84h-449z" />
    <glyph glyph-name="Eacute" unicode="&#xc9;" horiz-adv-x="551" 
d="M320 688l113 177h96l-122 -177h-87zM7 0l136 644h449l-18 -85h-340l-41 -195h303l-18 -84h-303l-42 -196h340l-17 -84h-449z" />
    <glyph glyph-name="Ebreve" unicode="&#x114;" horiz-adv-x="551" 
d="M378 688q-66 0 -94.5 38.5t-15.5 102.5h70q-7 -34 3 -55t48 -21q34 0 56.5 21t29.5 55h77q-13 -64 -60 -102.5t-114 -38.5zM7 0l136 644h449l-18 -85h-340l-41 -195h303l-18 -84h-303l-42 -196h340l-17 -84h-449z" />
    <glyph glyph-name="Ecaron" unicode="&#x11a;" horiz-adv-x="551" 
d="M342 687l-90 161h85l53 -101l97 101h90l-159 -161h-76zM7 0l136 644h449l-18 -85h-340l-41 -195h303l-18 -84h-303l-42 -196h340l-17 -84h-449z" />
    <glyph glyph-name="Ecircumflex" unicode="&#xca;" horiz-adv-x="551" 
d="M207 687l158 161h76l91 -161h-84l-55 101l-95 -101h-91zM7 0l136 644h449l-18 -85h-340l-41 -195h303l-18 -84h-303l-42 -196h340l-17 -84h-449z" />
    <glyph glyph-name="uni1EBE" unicode="&#x1ebe;" horiz-adv-x="550" 
d="M486 799l92 133h83l-98 -133h-77zM210 686l146 127h84l92 -127h-86l-54 82l-88 -82h-94zM7 0l136 644h449l-18 -85h-340l-41 -195h303l-18 -84h-303l-42 -196h340l-17 -84h-449z" />
    <glyph glyph-name="uni1EC6" unicode="&#x1ec6;" horiz-adv-x="551" 
d="M203 687l158 161h76l91 -161h-84l-55 101l-95 -101h-91zM7 0l136 644h449l-18 -85h-340l-41 -195h303l-18 -84h-303l-42 -196h340l-17 -84h-449zM137 -173l18 88h94l-18 -88h-94z" />
    <glyph glyph-name="uni1EC0" unicode="&#x1ec0;" horiz-adv-x="550" 
d="M236 799l-42 133h84l35 -133h-77zM219 686l145 127h85l90 -127h-86l-53 82l-89 -82h-92zM6 0l136 644h449l-18 -85h-340l-41 -195h303l-18 -84h-303l-42 -196h340l-17 -84h-449z" />
    <glyph glyph-name="uni1EC2" unicode="&#x1ec2;" horiz-adv-x="550" 
d="M493 778l14 66q48 2 64 11.5t20 27.5q7 31 -40 31q-16 0 -30 -3.5t-28 -8.5l12 53q16 5 34.5 8.5t43.5 3.5q49 0 72 -21.5t15 -56.5q-7 -33 -29.5 -52t-64.5 -25l-7 -34h-76zM213 686l145 127h85l91 -127h-86l-53 82l-89 -82h-93zM7 0l136 644h449l-18 -85h-340l-41 -195
h303l-18 -84h-303l-42 -196h340l-17 -84h-449z" />
    <glyph glyph-name="uni1EC4" unicode="&#x1ec4;" horiz-adv-x="551" 
d="M487 822q-26 0 -49.5 9.5t-45 19t-44.5 9.5q-25 0 -47.5 -8t-42.5 -27l15 71q15 13 39.5 21t48.5 8q28 0 50 -9t43 -18.5t46 -9.5q51 0 84 35l-16 -71q-12 -13 -33.5 -21.5t-47.5 -8.5zM215 687l145 127h85l91 -127h-86l-53 82l-89 -82h-93zM7 0l136 644h449l-18 -85
h-340l-41 -195h303l-18 -84h-303l-42 -196h340l-17 -84h-449z" />
    <glyph glyph-name="Edieresis" unicode="&#xcb;" horiz-adv-x="551" 
d="M241 712l19 86h91l-19 -86h-91zM426 712l19 86h92l-19 -86h-92zM7 0l136 644h449l-18 -85h-340l-41 -195h303l-18 -84h-303l-42 -196h340l-17 -84h-449z" />
    <glyph glyph-name="Edotaccent" unicode="&#x116;" horiz-adv-x="551" 
d="M331 711l19 88h92l-19 -88h-92zM7 0l136 644h449l-18 -85h-340l-41 -195h303l-18 -84h-303l-42 -196h340l-17 -84h-449z" />
    <glyph glyph-name="uni1EB8" unicode="&#x1eb8;" horiz-adv-x="551" 
d="M7 0l136 644h449l-18 -85h-340l-41 -195h303l-18 -84h-303l-42 -196h340l-17 -84h-449zM141 -173l18 88h94l-18 -88h-94z" />
    <glyph glyph-name="Egrave" unicode="&#xc8;" horiz-adv-x="551" 
d="M342 688l-45 177h95l38 -177h-88zM7 0l136 644h449l-18 -85h-340l-41 -195h303l-18 -84h-303l-42 -196h340l-17 -84h-449z" />
    <glyph glyph-name="uni1EBA" unicode="&#x1eba;" horiz-adv-x="551" 
d="M327 687l18 82q58 3 78 14t25 36q8 42 -66 42q-15 0 -33.5 -3.5t-32.5 -8.5l12 59q18 6 44.5 9.5t51.5 3.5q62 0 89 -25t17 -68q-8 -41 -32.5 -63.5t-75.5 -30.5l-10 -47h-85zM7 0l136 644h449l-18 -85h-340l-41 -195h303l-18 -84h-303l-42 -196h340l-17 -84h-449z" />
    <glyph glyph-name="Emacron" unicode="&#x112;" horiz-adv-x="551" 
d="M225 721l15 71h297l-15 -71h-297zM7 0l136 644h449l-18 -85h-340l-41 -195h303l-18 -84h-303l-42 -196h340l-17 -84h-449z" />
    <glyph glyph-name="Eogonek" unicode="&#x118;" horiz-adv-x="551" 
d="M320 -220q-43 0 -70.5 21.5t-17.5 67.5q8 38 35.5 73t65.5 58h-326l136 644h449l-18 -85h-340l-41 -195h303l-18 -84h-303l-42 -196h340l-17 -84h-41q-37 -25 -61.5 -53.5t-30.5 -58.5q-5 -23 5.5 -31.5t32.5 -8.5q12 0 27 3t25 8l-14 -66q-14 -6 -35.5 -9.5t-43.5 -3.5z
" />
    <glyph glyph-name="uni1EBC" unicode="&#x1ebc;" horiz-adv-x="551" 
d="M455 703q-27 0 -51 10t-46.5 19.5t-45.5 9.5q-26 0 -49.5 -8t-45.5 -28l17 80q16 14 41 22t50 8q29 0 52 -9.5t45 -19.5t48 -10q53 0 88 37l-17 -80q-13 -13 -36 -22t-50 -9zM7 0l136 644h449l-18 -85h-340l-41 -195h303l-18 -84h-303l-42 -196h340l-17 -84h-449z" />
    <glyph glyph-name="F" unicode="F" horiz-adv-x="524" 
d="M7 0l136 644h438l-18 -85h-329l-41 -195h292l-18 -84h-292l-59 -280h-109z" />
    <glyph glyph-name="G" unicode="G" horiz-adv-x="642" 
d="M304 -10q-153 0 -218 86t-34 233q23 106 72.5 183.5t130 119.5t194.5 42q57 0 101.5 -7.5t82.5 -21.5l-20 -94q-75 30 -175 30q-118 0 -184.5 -65t-91.5 -187q-24 -118 13 -172.5t152 -54.5q86 0 143 20l38 180h-161l16 71h254l-66 -310q-36 -20 -97 -36.5t-150 -16.5z
" />
    <glyph glyph-name="Gbreve" unicode="&#x11e;" horiz-adv-x="642" 
d="M447 688q-66 0 -94.5 38.5t-15.5 102.5h70q-7 -34 3 -55t48 -21q34 0 56.5 21t29.5 55h77q-13 -64 -60 -102.5t-114 -38.5zM304 -10q-153 0 -218 86t-34 233q23 106 72.5 183.5t130 119.5t194.5 42q57 0 101.5 -7.5t82.5 -21.5l-20 -94q-75 30 -175 30q-118 0 -184.5 -65
t-91.5 -187q-24 -118 13 -172.5t152 -54.5q86 0 143 20l38 180h-161l16 71h254l-66 -310q-36 -20 -97 -36.5t-150 -16.5z" />
    <glyph glyph-name="Gcaron" unicode="&#x1e6;" horiz-adv-x="642" 
d="M409 686l-90 161h85l53 -101l97 101h90l-159 -161h-76zM304 -10q-153 0 -218 86t-34 233q23 106 72.5 183.5t130 119.5t194.5 42q57 0 101.5 -7.5t82.5 -21.5l-20 -94q-75 30 -175 30q-118 0 -184.5 -65t-91.5 -187q-24 -118 13 -172.5t152 -54.5q86 0 143 20l38 180
h-161l16 71h254l-66 -310q-36 -20 -97 -36.5t-150 -16.5z" />
    <glyph glyph-name="Gcircumflex" unicode="&#x11c;" horiz-adv-x="642" 
d="M284 687l158 161h76l91 -161h-84l-55 101l-95 -101h-91zM304 -10q-153 0 -218 86t-34 233q23 106 72.5 183.5t130 119.5t194.5 42q57 0 101.5 -7.5t82.5 -21.5l-20 -94q-75 30 -175 30q-118 0 -184.5 -65t-91.5 -187q-24 -118 13 -172.5t152 -54.5q86 0 143 20l38 180
h-161l16 71h254l-66 -310q-36 -20 -97 -36.5t-150 -16.5z" />
    <glyph glyph-name="uni0122" unicode="&#x122;" horiz-adv-x="642" 
d="M304 -10q-153 0 -218 86t-34 233q23 106 72.5 183.5t130 119.5t194.5 42q57 0 101.5 -7.5t82.5 -21.5l-20 -94q-75 30 -175 30q-118 0 -184.5 -65t-91.5 -187q-24 -118 13 -172.5t152 -54.5q86 0 143 20l38 180h-161l16 71h254l-66 -310q-36 -20 -97 -36.5t-150 -16.5z
M195 -231l69 189h90l-87 -189h-72z" />
    <glyph glyph-name="Gdotaccent" unicode="&#x120;" horiz-adv-x="642" 
d="M411 711l19 88h92l-19 -88h-92zM304 -10q-153 0 -218 86t-34 233q23 106 72.5 183.5t130 119.5t194.5 42q57 0 101.5 -7.5t82.5 -21.5l-20 -94q-75 30 -175 30q-118 0 -184.5 -65t-91.5 -187q-24 -118 13 -172.5t152 -54.5q86 0 143 20l38 180h-161l16 71h254l-66 -310
q-36 -20 -97 -36.5t-150 -16.5z" />
    <glyph glyph-name="uni1E20" unicode="&#x1e20;" horiz-adv-x="642" 
d="M308 717l15 71h297l-15 -71h-297zM304 -10q-153 0 -218 86t-34 233q23 106 72.5 183.5t130 119.5t194.5 42q57 0 101.5 -7.5t82.5 -21.5l-20 -94q-75 30 -175 30q-118 0 -184.5 -65t-91.5 -187q-24 -118 13 -172.5t152 -54.5q86 0 143 20l38 180h-161l16 71h254l-66 -310
q-36 -20 -97 -36.5t-150 -16.5z" />
    <glyph glyph-name="H" unicode="H" horiz-adv-x="655" 
d="M7 0l136 644h109l-59 -280h310l59 280h109l-136 -644h-109l59 280h-310l-59 -280h-109z" />
    <glyph glyph-name="Hbar" unicode="&#x126;" horiz-adv-x="655" 
d="M6 0l96 457h-49l18 85h49l22 102h109l-22 -102h310l22 102h109l-22 -102h52l-18 -85h-52l-96 -457h-109l59 280h-310l-59 -280h-109zM192 364h310l19 93h-310z" />
    <glyph glyph-name="uni1E2A" unicode="&#x1e2a;" horiz-adv-x="655" 
d="M7 0l136 644h109l-59 -280h310l59 280h109l-136 -644h-109l59 280h-310l-59 -280h-109zM226 -207q-66 0 -95.5 38.5t-15.5 103.5h71q-7 -35 3 -56t47 -21q34 0 56.5 21t29.5 56h77q-14 -65 -60.5 -103.5t-112.5 -38.5z" />
    <glyph glyph-name="Hcircumflex" unicode="&#x124;" horiz-adv-x="655" 
d="M253 687l158 161h76l91 -161h-84l-55 101l-95 -101h-91zM7 0l136 644h109l-59 -280h310l59 280h109l-136 -644h-109l59 280h-310l-59 -280h-109z" />
    <glyph glyph-name="uni1E24" unicode="&#x1e24;" horiz-adv-x="655" 
d="M7 0l136 644h109l-59 -280h310l59 280h109l-136 -644h-109l59 280h-310l-59 -280h-109zM188 -173l18 88h94l-18 -88h-94z" />
    <glyph glyph-name="I" unicode="I" horiz-adv-x="236" 
d="M7 0l136 644h109l-136 -644h-109z" />
    <glyph glyph-name="IJ" unicode="&#x132;" horiz-adv-x="652" 
d="M323 -10q-81 0 -135 23l20 92q48 -23 116 -23q67 0 99.5 27.5t45.5 88.5l94 446h109l-98 -464q-19 -92 -79 -141t-172 -49zM7 0l136 644h109l-136 -644h-109z" />
    <glyph glyph-name="Iacute" unicode="&#xcd;" horiz-adv-x="237" 
d="M160 688l113 177h96l-122 -177h-87zM7 0l136 644h109l-136 -644h-109z" />
    <glyph glyph-name="Ibreve" unicode="&#x12c;" horiz-adv-x="234" 
d="M206 698q-66 0 -94.5 38.5t-15.5 102.5h70q-7 -34 3 -55t48 -21q34 0 56.5 21t29.5 55h77q-13 -64 -60 -102.5t-114 -38.5zM5 0l136 644h109l-136 -644h-109z" />
    <glyph glyph-name="uni01CF" unicode="&#x1cf;" horiz-adv-x="234" 
d="M168 687l-90 161h85l53 -101l97 101h90l-159 -161h-76zM11 0l136 644h109l-136 -644h-109z" />
    <glyph glyph-name="Icircumflex" unicode="&#xce;" horiz-adv-x="234" 
d="M43 687l158 161h76l91 -161h-84l-55 101l-95 -101h-91zM6 0l136 644h109l-136 -644h-109z" />
    <glyph glyph-name="Idieresis" unicode="&#xcf;" horiz-adv-x="235" 
d="M73 715l19 86h91l-19 -86h-91zM258 715l19 86h92l-19 -86h-92zM6 0l136 644h109l-136 -644h-109z" />
    <glyph glyph-name="Idotaccent" unicode="&#x130;" horiz-adv-x="236" 
d="M166 714l19 88h92l-19 -88h-92zM7 0l136 644h109l-136 -644h-109z" />
    <glyph glyph-name="uni1ECA" unicode="&#x1eca;" horiz-adv-x="236" 
d="M7 0l136 644h109l-136 -644h-109zM-22 -173l18 88h94l-18 -88h-94z" />
    <glyph glyph-name="Igrave" unicode="&#xcc;" horiz-adv-x="235" 
d="M163 688l-45 177h95l38 -177h-88zM6 0l136 644h109l-136 -644h-109z" />
    <glyph glyph-name="uni1EC8" unicode="&#x1ec8;" horiz-adv-x="235" 
d="M163 687l18 82q58 3 78 14t25 36q8 42 -66 42q-15 0 -33.5 -3.5t-32.5 -8.5l12 59q18 6 44.5 9.5t51.5 3.5q62 0 89 -25t17 -68q-8 -41 -32.5 -63.5t-75.5 -30.5l-10 -47h-85zM6 0l136 644h109l-136 -644h-109z" />
    <glyph glyph-name="Imacron" unicode="&#x12a;" horiz-adv-x="235" 
d="M64 721l15 71h298l-15 -71h-298zM6 0l136 644h109l-136 -644h-109z" />
    <glyph glyph-name="Iogonek" unicode="&#x12e;" horiz-adv-x="234" 
d="M9 -220q-43 0 -70.5 21.5t-17.5 67.5q8 38 35.5 73t65.5 58h-17l136 644h109l-136 -644h-10q-37 -25 -61.5 -53.5t-30.5 -58.5q-5 -23 5.5 -31.5t32.5 -8.5q12 0 27 3t25 8l-14 -66q-14 -6 -35.5 -9.5t-43.5 -3.5z" />
    <glyph glyph-name="Itilde" unicode="&#x128;" horiz-adv-x="235" 
d="M288 696q-27 0 -51 10t-46.5 19.5t-45.5 9.5q-26 0 -49.5 -8t-45.5 -28l17 80q16 14 41 22t50 8q29 0 52 -9.5t45 -19.5t48 -10q53 0 88 37l-17 -80q-13 -13 -36 -22t-50 -9zM6 0l136 644h109l-136 -644h-109z" />
    <glyph glyph-name="J" unicode="J" horiz-adv-x="432" 
d="M104 -10q-81 0 -135 23l20 92q48 -23 116 -23q67 0 99.5 27.5t45.5 88.5l94 446h109l-98 -464q-19 -92 -79 -141t-172 -49z" />
    <glyph glyph-name="Jcircumflex" unicode="&#x134;" horiz-adv-x="431" 
d="M245 687l158 161h76l91 -161h-84l-55 101l-95 -101h-91zM104 -10q-81 0 -135 23l20 92q48 -23 116 -23q67 0 99.5 27.5t45.5 88.5l94 446h109l-98 -464q-19 -92 -79 -141t-172 -49z" />
    <glyph glyph-name="K" unicode="K" horiz-adv-x="626" 
d="M7 0l136 644h109l-63 -296l337 296h126l-292 -260l166 -384h-116l-133 315l-116 -102l-45 -213h-109z" />
    <glyph glyph-name="uni0136" unicode="&#x136;" horiz-adv-x="626" 
d="M7 0l136 644h109l-63 -296l337 296h126l-292 -260l166 -384h-116l-133 315l-116 -102l-45 -213h-109zM140 -226l69 189h90l-87 -189h-72z" />
    <glyph glyph-name="L" unicode="L" horiz-adv-x="526" 
d="M7 0l136 644h109l-119 -560h330l-17 -84h-439z" />
    <glyph glyph-name="Lacute" unicode="&#x139;" horiz-adv-x="526" 
d="M161 688l113 177h96l-122 -177h-87zM7 0l136 644h109l-119 -560h330l-17 -84h-439z" />
    <glyph glyph-name="Lcaron" unicode="&#x13d;" horiz-adv-x="526" 
d="M7 0l136 644h109l-119 -560h330l-17 -84h-439zM351 455l69 189h90l-86 -189h-73z" />
    <glyph glyph-name="uni013B" unicode="&#x13b;" horiz-adv-x="526" 
d="M7 0l136 644h109l-119 -560h330l-17 -84h-439zM114 -226l69 189h90l-87 -189h-72z" />
    <glyph glyph-name="Ldot" unicode="&#x13f;" horiz-adv-x="526" 
d="M7 0l136 644h109l-119 -560h330l-17 -84h-439zM336 267l19 88h92l-19 -88h-92z" />
    <glyph glyph-name="uni1E36" unicode="&#x1e36;" horiz-adv-x="526" 
d="M7 0l136 644h109l-119 -560h330l-17 -84h-439zM136 -173l18 88h94l-18 -88h-94z" />
    <glyph glyph-name="uni1E38" unicode="&#x1e38;" horiz-adv-x="526" 
d="M83 717l15 71h297l-15 -71h-297zM7 0l136 644h109l-119 -560h330l-17 -84h-439zM136 -173l18 88h94l-18 -88h-94z" />
    <glyph glyph-name="uni1E3A" unicode="&#x1e3a;" horiz-adv-x="526" 
d="M7 0l136 644h109l-119 -560h330l-17 -84h-439zM35 -146l15 71h297l-15 -71h-297z" />
    <glyph glyph-name="Lslash" unicode="&#x141;" horiz-adv-x="526" 
d="M7 0l56 267l-95 -38l18 84l95 38l62 293h109l-52 -245l141 57l-17 -84l-142 -57l-49 -231h330l-17 -84h-439z" />
    <glyph glyph-name="M" unicode="M" horiz-adv-x="758" 
d="M7 0l136 644h109l116 -417l291 417h115l-136 -644h-108l99 467l-250 -356h-66l-99 356l-99 -467h-108z" />
    <glyph glyph-name="uni1E42" unicode="&#x1e42;" horiz-adv-x="758" 
d="M7 0l136 644h109l116 -417l291 417h115l-136 -644h-108l99 467l-250 -356h-66l-99 356l-99 -467h-108zM241 -173l18 88h94l-18 -88h-94z" />
    <glyph glyph-name="N" unicode="N" horiz-adv-x="668" 
d="M7 0l136 644h96l236 -474l100 474h108l-136 -644h-96l-235 473l-100 -473h-109z" />
    <glyph glyph-name="Nacute" unicode="&#x143;" horiz-adv-x="668" 
d="M373 688l113 177h96l-122 -177h-87zM7 0l136 644h96l236 -474l100 474h108l-136 -644h-96l-235 473l-100 -473h-109z" />
    <glyph glyph-name="Ncaron" unicode="&#x147;" horiz-adv-x="668" 
d="M392 687l-90 161h85l53 -101l97 101h90l-159 -161h-76zM7 0l136 644h96l236 -474l100 474h108l-136 -644h-96l-235 473l-100 -473h-109z" />
    <glyph glyph-name="uni0145" unicode="&#x145;" horiz-adv-x="668" 
d="M7 0l136 644h96l236 -474l100 474h108l-136 -644h-96l-235 473l-100 -473h-109zM165 -226l69 189h90l-87 -189h-72z" />
    <glyph glyph-name="uni1E44" unicode="&#x1e44;" horiz-adv-x="668" 
d="M372 711l19 88h92l-19 -88h-92zM7 0l136 644h96l236 -474l100 474h108l-136 -644h-96l-235 473l-100 -473h-109z" />
    <glyph glyph-name="uni1E46" unicode="&#x1e46;" horiz-adv-x="668" 
d="M7 0l136 644h96l236 -474l100 474h108l-136 -644h-96l-235 473l-100 -473h-109zM195 -173l18 88h94l-18 -88h-94z" />
    <glyph glyph-name="Eng" unicode="&#x14a;" horiz-adv-x="667" 
d="M343 -234q-58 0 -96 16l17 79q15 -5 30.5 -7.5t28.5 -2.5q47 0 69 17t30 56l20 93l-226 456l-100 -473h-109l136 644h96l236 -474l100 474h108l-155 -730q-14 -67 -59.5 -107.5t-125.5 -40.5z" />
    <glyph glyph-name="uni1E48" unicode="&#x1e48;" horiz-adv-x="668" 
d="M7 0l136 644h96l236 -474l100 474h108l-136 -644h-96l-235 473l-100 -473h-109zM102 -143l15 71h297l-15 -71h-297z" />
    <glyph glyph-name="Ntilde" unicode="&#xd1;" horiz-adv-x="668" 
d="M509 703q-27 0 -51 10t-46.5 19.5t-45.5 9.5q-26 0 -49.5 -8t-45.5 -28l17 80q16 14 41 22t50 8q29 0 52 -9.5t45 -19.5t48 -10q53 0 88 37l-17 -80q-13 -13 -36 -22t-50 -9zM7 0l136 644h96l236 -474l100 474h108l-136 -644h-96l-235 473l-100 -473h-109z" />
    <glyph glyph-name="O" unicode="O" horiz-adv-x="697" 
d="M288 -10q-145 0 -208 80.5t-26 249.5q37 176 127.5 255t248.5 79q146 0 208.5 -79t25.5 -255q-37 -169 -126.5 -249.5t-249.5 -80.5zM308 82q96 0 158 55.5t89 182.5q19 89 11.5 142t-45 76t-111.5 23q-95 0 -156.5 -53.5t-89.5 -187.5q-27 -127 5 -182.5t139 -55.5z" />
    <glyph glyph-name="Oacute" unicode="&#xd3;" horiz-adv-x="697" 
d="M389 688l113 177h96l-122 -177h-87zM288 -10q-145 0 -208 80.5t-26 249.5q37 176 127.5 255t248.5 79q146 0 208.5 -79t25.5 -255q-37 -169 -126.5 -249.5t-249.5 -80.5zM308 82q96 0 158 55.5t89 182.5q19 89 11.5 142t-45 76t-111.5 23q-95 0 -156.5 -53.5
t-89.5 -187.5q-27 -127 5 -182.5t139 -55.5z" />
    <glyph glyph-name="Obreve" unicode="&#x14e;" horiz-adv-x="697" 
d="M435 688q-66 0 -94.5 38.5t-15.5 102.5h70q-7 -34 3 -55t48 -21q34 0 56.5 21t29.5 55h77q-13 -64 -60 -102.5t-114 -38.5zM288 -10q-145 0 -208 80.5t-26 249.5q37 176 127.5 255t248.5 79q146 0 208.5 -79t25.5 -255q-37 -169 -126.5 -249.5t-249.5 -80.5zM308 82
q96 0 158 55.5t89 182.5q19 89 11.5 142t-45 76t-111.5 23q-95 0 -156.5 -53.5t-89.5 -187.5q-27 -127 5 -182.5t139 -55.5z" />
    <glyph glyph-name="uni01D1" unicode="&#x1d1;" horiz-adv-x="697" 
d="M398 687l-90 161h85l53 -101l97 101h90l-159 -161h-76zM288 -10q-145 0 -208 80.5t-26 249.5q37 176 127.5 255t248.5 79q146 0 208.5 -79t25.5 -255q-37 -169 -126.5 -249.5t-249.5 -80.5zM308 82q96 0 158 55.5t89 182.5q19 89 11.5 142t-45 76t-111.5 23
q-95 0 -156.5 -53.5t-89.5 -187.5q-27 -127 5 -182.5t139 -55.5z" />
    <glyph glyph-name="Ocircumflex" unicode="&#xd4;" horiz-adv-x="697" 
d="M274 687l158 161h76l91 -161h-84l-55 101l-95 -101h-91zM288 -10q-145 0 -208 80.5t-26 249.5q37 176 127.5 255t248.5 79q146 0 208.5 -79t25.5 -255q-37 -169 -126.5 -249.5t-249.5 -80.5zM308 82q96 0 158 55.5t89 182.5q19 89 11.5 142t-45 76t-111.5 23
q-95 0 -156.5 -53.5t-89.5 -187.5q-27 -127 5 -182.5t139 -55.5z" />
    <glyph glyph-name="uni1ED0" unicode="&#x1ed0;" horiz-adv-x="697" 
d="M555 800l92 133h83l-98 -133h-77zM279 687l146 127h84l92 -127h-86l-54 82l-88 -82h-94zM288 -10q-145 0 -208 80.5t-26 249.5q37 176 127.5 255t248.5 79q146 0 208.5 -79t25.5 -255q-37 -169 -126.5 -249.5t-249.5 -80.5zM308 82q96 0 158 55.5t89 182.5
q19 89 11.5 142t-45 76t-111.5 23q-95 0 -156.5 -53.5t-89.5 -187.5q-27 -127 5 -182.5t139 -55.5z" />
    <glyph glyph-name="uni1ED8" unicode="&#x1ed8;" horiz-adv-x="697" 
d="M275 692l158 161h76l91 -161h-84l-55 101l-95 -101h-91zM288 -10q-145 0 -208 80.5t-26 249.5q37 176 127.5 255t248.5 79q146 0 208.5 -79t25.5 -255q-37 -169 -126.5 -249.5t-249.5 -80.5zM308 82q96 0 158 55.5t89 182.5q19 89 11.5 142t-45 76t-111.5 23
q-95 0 -156.5 -53.5t-89.5 -187.5q-27 -127 5 -182.5t139 -55.5zM208 -173l18 88h94l-18 -88h-94z" />
    <glyph glyph-name="uni1ED2" unicode="&#x1ed2;" horiz-adv-x="697" 
d="M286 800l-42 133h84l35 -133h-77zM269 687l145 127h85l90 -127h-86l-53 82l-89 -82h-92zM288 -10q-145 0 -208 80.5t-26 249.5q37 176 127.5 255t248.5 79q146 0 208.5 -79t25.5 -255q-37 -169 -126.5 -249.5t-249.5 -80.5zM308 82q96 0 158 55.5t89 182.5
q19 89 11.5 142t-45 76t-111.5 23q-95 0 -156.5 -53.5t-89.5 -187.5q-27 -127 5 -182.5t139 -55.5z" />
    <glyph glyph-name="uni1ED4" unicode="&#x1ed4;" horiz-adv-x="697" 
d="M554 779l14 66q48 2 64 11.5t20 27.5q7 31 -40 31q-16 0 -30 -3.5t-28 -8.5l12 53q16 5 34.5 8.5t43.5 3.5q49 0 72 -21.5t15 -56.5q-7 -33 -29.5 -52t-64.5 -25l-7 -34h-76zM274 687l145 127h85l91 -127h-86l-53 82l-89 -82h-93zM288 -10q-145 0 -208 80.5t-26 249.5
q37 176 127.5 255t248.5 79q146 0 208.5 -79t25.5 -255q-37 -169 -126.5 -249.5t-249.5 -80.5zM308 82q96 0 158 55.5t89 182.5q19 89 11.5 142t-45 76t-111.5 23q-95 0 -156.5 -53.5t-89.5 -187.5q-27 -127 5 -182.5t139 -55.5z" />
    <glyph glyph-name="uni1ED6" unicode="&#x1ed6;" horiz-adv-x="697" 
d="M544 822q-26 0 -49.5 9.5t-45 19t-44.5 9.5q-25 0 -47.5 -8t-42.5 -27l15 71q15 13 39.5 21t48.5 8q28 0 50 -9t43 -18.5t46 -9.5q51 0 84 35l-16 -71q-12 -13 -33.5 -21.5t-47.5 -8.5zM274 687l145 127h85l91 -127h-86l-53 82l-89 -82h-93zM288 -10q-145 0 -208 80.5
t-26 249.5q37 176 127.5 255t248.5 79q146 0 208.5 -79t25.5 -255q-37 -169 -126.5 -249.5t-249.5 -80.5zM308 82q96 0 158 55.5t89 182.5q19 89 11.5 142t-45 76t-111.5 23q-95 0 -156.5 -53.5t-89.5 -187.5q-27 -127 5 -182.5t139 -55.5z" />
    <glyph glyph-name="Odieresis" unicode="&#xd6;" horiz-adv-x="697" 
d="M303 712l19 86h91l-19 -86h-91zM488 712l19 86h92l-19 -86h-92zM288 -10q-145 0 -208 80.5t-26 249.5q37 176 127.5 255t248.5 79q146 0 208.5 -79t25.5 -255q-37 -169 -126.5 -249.5t-249.5 -80.5zM308 82q96 0 158 55.5t89 182.5q19 89 11.5 142t-45 76t-111.5 23
q-95 0 -156.5 -53.5t-89.5 -187.5q-27 -127 5 -182.5t139 -55.5z" />
    <glyph glyph-name="uni1ECC" unicode="&#x1ecc;" horiz-adv-x="697" 
d="M288 -10q-145 0 -208 80.5t-26 249.5q37 176 127.5 255t248.5 79q146 0 208.5 -79t25.5 -255q-37 -169 -126.5 -249.5t-249.5 -80.5zM308 82q96 0 158 55.5t89 182.5q19 89 11.5 142t-45 76t-111.5 23q-95 0 -156.5 -53.5t-89.5 -187.5q-27 -127 5 -182.5t139 -55.5z
M208 -173l18 88h94l-18 -88h-94z" />
    <glyph glyph-name="Ograve" unicode="&#xd2;" horiz-adv-x="697" 
d="M399 688l-45 177h95l38 -177h-88zM288 -10q-145 0 -208 80.5t-26 249.5q37 176 127.5 255t248.5 79q146 0 208.5 -79t25.5 -255q-37 -169 -126.5 -249.5t-249.5 -80.5zM308 82q96 0 158 55.5t89 182.5q19 89 11.5 142t-45 76t-111.5 23q-95 0 -156.5 -53.5t-89.5 -187.5
q-27 -127 5 -182.5t139 -55.5z" />
    <glyph glyph-name="uni1ECE" unicode="&#x1ece;" horiz-adv-x="697" 
d="M396 687l18 82q58 3 78 14t25 36q8 42 -66 42q-15 0 -33.5 -3.5t-32.5 -8.5l12 59q18 6 44.5 9.5t51.5 3.5q62 0 89 -25t17 -68q-8 -41 -32.5 -63.5t-75.5 -30.5l-10 -47h-85zM288 -10q-145 0 -208 80.5t-26 249.5q37 176 127.5 255t248.5 79q146 0 208.5 -79t25.5 -255
q-37 -169 -126.5 -249.5t-249.5 -80.5zM308 82q96 0 158 55.5t89 182.5q19 89 11.5 142t-45 76t-111.5 23q-95 0 -156.5 -53.5t-89.5 -187.5q-27 -127 5 -182.5t139 -55.5z" />
    <glyph glyph-name="Ohorn" unicode="&#x1a0;" horiz-adv-x="760" 
d="M288 -10q-153 0 -212 80.5t-22 249.5q37 176 130 255t246 79q150 0 208 -77q55 1 81 24.5t39 86.5h84q-19 -92 -61 -133.5t-110 -51.5q8 -36 6 -81.5t-13 -101.5q-37 -169 -129.5 -249.5t-246.5 -80.5zM308 82q101 0 160.5 55.5t86.5 182.5q28 134 -8 187.5t-137 53.5
q-66 0 -114.5 -23t-80.5 -76t-51 -142q-27 -127 8.5 -182.5t135.5 -55.5z" />
    <glyph glyph-name="uni1EDA" unicode="&#x1eda;" horiz-adv-x="760" 
d="M404 688l113 177h96l-122 -177h-87zM288 -10q-153 0 -212 80.5t-22 249.5q37 176 130 255t246 79q150 0 208 -77q55 1 81 24.5t39 86.5h84q-19 -92 -61 -133.5t-110 -51.5q8 -36 6 -81.5t-13 -101.5q-37 -169 -129.5 -249.5t-246.5 -80.5zM308 82q101 0 160.5 55.5
t86.5 182.5q28 134 -8 187.5t-137 53.5q-66 0 -114.5 -23t-80.5 -76t-51 -142q-27 -127 8.5 -182.5t135.5 -55.5z" />
    <glyph glyph-name="uni1EE2" unicode="&#x1ee2;" horiz-adv-x="760" 
d="M288 -10q-153 0 -212 80.5t-22 249.5q37 176 130 255t246 79q150 0 208 -77q55 1 81 24.5t39 86.5h84q-19 -92 -61 -133.5t-110 -51.5q8 -36 6 -81.5t-13 -101.5q-37 -169 -129.5 -249.5t-246.5 -80.5zM308 82q101 0 160.5 55.5t86.5 182.5q28 134 -8 187.5t-137 53.5
q-66 0 -114.5 -23t-80.5 -76t-51 -142q-27 -127 8.5 -182.5t135.5 -55.5zM212 -173l18 88h94l-18 -88h-94z" />
    <glyph glyph-name="uni1EDC" unicode="&#x1edc;" horiz-adv-x="760" 
d="M414 688l-45 177h95l38 -177h-88zM288 -10q-153 0 -212 80.5t-22 249.5q37 176 130 255t246 79q150 0 208 -77q55 1 81 24.5t39 86.5h84q-19 -92 -61 -133.5t-110 -51.5q8 -36 6 -81.5t-13 -101.5q-37 -169 -129.5 -249.5t-246.5 -80.5zM308 82q101 0 160.5 55.5
t86.5 182.5q28 134 -8 187.5t-137 53.5q-66 0 -114.5 -23t-80.5 -76t-51 -142q-27 -127 8.5 -182.5t135.5 -55.5z" />
    <glyph glyph-name="uni1EDE" unicode="&#x1ede;" horiz-adv-x="760" 
d="M401 687l18 82q58 3 78 14t25 36q8 42 -66 42q-15 0 -33.5 -3.5t-32.5 -8.5l12 59q18 6 44.5 9.5t51.5 3.5q62 0 89 -25t17 -68q-8 -41 -32.5 -63.5t-75.5 -30.5l-10 -47h-85zM288 -10q-153 0 -212 80.5t-22 249.5q37 176 130 255t246 79q150 0 208 -77q55 1 81 24.5
t39 86.5h84q-19 -92 -61 -133.5t-110 -51.5q8 -36 6 -81.5t-13 -101.5q-37 -169 -129.5 -249.5t-246.5 -80.5zM308 82q101 0 160.5 55.5t86.5 182.5q28 134 -8 187.5t-137 53.5q-66 0 -114.5 -23t-80.5 -76t-51 -142q-27 -127 8.5 -182.5t135.5 -55.5z" />
    <glyph glyph-name="uni1EE0" unicode="&#x1ee0;" horiz-adv-x="760" 
d="M534 701q-28 0 -51.5 10t-46 19.5t-45.5 9.5q-26 0 -49.5 -8t-45.5 -28l17 80q16 14 41 22t50 8q29 0 52 -9.5t45 -19.5t48 -10q53 0 88 37l-17 -80q-13 -13 -36 -22t-50 -9zM288 -10q-153 0 -212 80.5t-22 249.5q37 176 130 255t246 79q150 0 208 -77q55 1 81 24.5
t39 86.5h84q-19 -92 -61 -133.5t-110 -51.5q8 -36 6 -81.5t-13 -101.5q-37 -169 -129.5 -249.5t-246.5 -80.5zM308 82q101 0 160.5 55.5t86.5 182.5q28 134 -8 187.5t-137 53.5q-66 0 -114.5 -23t-80.5 -76t-51 -142q-27 -127 8.5 -182.5t135.5 -55.5z" />
    <glyph glyph-name="Ohungarumlaut" unicode="&#x150;" horiz-adv-x="697" 
d="M259 687l110 164h98l-120 -164h-88zM475 687l110 164h99l-121 -164h-88zM288 -10q-145 0 -208 80.5t-26 249.5q37 176 127.5 255t248.5 79q146 0 208.5 -79t25.5 -255q-37 -169 -126.5 -249.5t-249.5 -80.5zM308 82q96 0 158 55.5t89 182.5q19 89 11.5 142t-45 76
t-111.5 23q-95 0 -156.5 -53.5t-89.5 -187.5q-27 -127 5 -182.5t139 -55.5z" />
    <glyph glyph-name="Omacron" unicode="&#x14c;" horiz-adv-x="697" 
d="M293 721l15 71h297l-15 -71h-297zM288 -10q-145 0 -208 80.5t-26 249.5q37 176 127.5 255t248.5 79q146 0 208.5 -79t25.5 -255q-37 -169 -126.5 -249.5t-249.5 -80.5zM308 82q96 0 158 55.5t89 182.5q19 89 11.5 142t-45 76t-111.5 23q-95 0 -156.5 -53.5t-89.5 -187.5
q-27 -127 5 -182.5t139 -55.5z" />
    <glyph glyph-name="Oslash" unicode="&#xd8;" horiz-adv-x="697" 
d="M96 -53l43 73q-65 35 -87.5 109t2.5 191q38 176 128 255t248 79q21 0 40.5 -2t36.5 -5l27 46h74l-38 -65q71 -31 95.5 -107t-1.5 -201q-36 -169 -126 -249.5t-250 -80.5q-49 0 -88 9l-30 -52h-74zM192 111l263 447q-21 3 -45 3q-95 0 -156.5 -53.5t-89.5 -187.5
q-17 -80 -11.5 -131.5t39.5 -77.5zM308 82q96 0 158 55.5t89 182.5q19 91 11.5 144t-48.5 76l-266 -454q13 -2 26.5 -3t29.5 -1z" />
    <glyph glyph-name="Oslashacute" unicode="&#x1fe;" horiz-adv-x="697" 
d="M374 688l113 177h96l-122 -177h-87zM96 -53l43 73q-65 35 -87.5 109t2.5 191q38 176 128 255t248 79q21 0 40.5 -2t36.5 -5l27 46h74l-38 -65q71 -31 95.5 -107t-1.5 -201q-36 -169 -126 -249.5t-250 -80.5q-49 0 -88 9l-30 -52h-74zM192 111l263 447q-21 3 -45 3
q-95 0 -156.5 -53.5t-89.5 -187.5q-17 -80 -11.5 -131.5t39.5 -77.5zM308 82q96 0 158 55.5t89 182.5q19 91 11.5 144t-48.5 76l-266 -454q13 -2 26.5 -3t29.5 -1z" />
    <glyph glyph-name="Otilde" unicode="&#xd5;" horiz-adv-x="697" 
d="M518 695q-27 0 -51 10t-46.5 19.5t-45.5 9.5q-26 0 -49.5 -8t-45.5 -28l17 80q16 14 41 22t50 8q29 0 52 -9.5t45 -19.5t48 -10q53 0 88 37l-17 -80q-13 -13 -36 -22t-50 -9zM288 -10q-145 0 -208 80.5t-26 249.5q37 176 127.5 255t248.5 79q146 0 208.5 -79t25.5 -255
q-37 -169 -126.5 -249.5t-249.5 -80.5zM308 82q96 0 158 55.5t89 182.5q19 89 11.5 142t-45 76t-111.5 23q-95 0 -156.5 -53.5t-89.5 -187.5q-27 -127 5 -182.5t139 -55.5z" />
    <glyph glyph-name="OE" unicode="&#x152;" horiz-adv-x="1038" 
d="M288 -10q-145 0 -208 80.5t-26 249.5q37 176 127.5 255t248.5 79q60 0 107 -13t78 -41l9 44h449l-18 -85h-340l-41 -195h303l-18 -84h-303l-42 -196h340l-17 -84h-449l8 40q-81 -50 -208 -50zM308 82q96 0 158 55.5t89 182.5q19 89 11.5 142t-45 76t-111.5 23
q-95 0 -156.5 -53.5t-89.5 -187.5q-27 -127 5 -182.5t139 -55.5z" />
    <glyph glyph-name="P" unicode="P" horiz-adv-x="591" 
d="M7 0l136 644h287q72 0 114 -28t56 -76.5t1 -110.5q-21 -96 -87 -154t-178 -58h-174l-46 -217h-109zM180 303h154q72 0 109.5 34t48.5 92q14 70 -4 100t-87 30h-167z" />
    <glyph glyph-name="Thorn" unicode="&#xde;" horiz-adv-x="591" 
d="M7 0l136 644h109l-23 -110h178q71 0 113 -27.5t56.5 -76t1.5 -110.5q-21 -96 -87.5 -154.5t-178.5 -58.5h-174l-22 -107h-109zM157 193h154q65 0 105.5 34.5t52.5 92.5q14 66 -7 97t-92 31h-159z" />
    <glyph glyph-name="Q" unicode="Q" horiz-adv-x="697" 
d="M347 -172q-72 0 -100 43t-13 122q-117 14 -165 94t-15 233q37 176 127.5 255t248.5 79q146 0 208.5 -79t25.5 -255q-34 -158 -114 -238t-219 -90q-10 -53 3.5 -67t53.5 -14q35 0 73 10l-18 -81q-17 -5 -43.5 -8.5t-52.5 -3.5zM308 82q96 0 158 55.5t89 182.5
q19 89 11.5 142t-45 76t-111.5 23q-95 0 -156.5 -53.5t-89.5 -187.5q-27 -127 5 -182.5t139 -55.5z" />
    <glyph glyph-name="R" unicode="R" horiz-adv-x="611" 
d="M7 0l136 644h286q107 0 150.5 -55.5t23.5 -150.5q-15 -68 -57.5 -116.5t-113.5 -66.5q15 -13 21.5 -28t11.5 -40l42 -187h-112l-41 180q-6 26 -19 37t-50 11h-121l-48 -228h-109zM183 316h158q65 0 102 29t51 93q14 63 -6.5 92t-85.5 29h-168z" />
    <glyph glyph-name="Racute" unicode="&#x154;" horiz-adv-x="611" 
d="M329 688l113 177h96l-122 -177h-87zM7 0l136 644h286q107 0 150.5 -55.5t23.5 -150.5q-15 -68 -57.5 -116.5t-113.5 -66.5q15 -13 21.5 -28t11.5 -40l42 -187h-112l-41 180q-6 26 -19 37t-50 11h-121l-48 -228h-109zM183 316h158q65 0 102 29t51 93q14 63 -6.5 92
t-85.5 29h-168z" />
    <glyph glyph-name="Rcaron" unicode="&#x158;" horiz-adv-x="611" 
d="M345 687l-90 161h85l53 -101l97 101h90l-159 -161h-76zM7 0l136 644h286q107 0 150.5 -55.5t23.5 -150.5q-15 -68 -57.5 -116.5t-113.5 -66.5q15 -13 21.5 -28t11.5 -40l42 -187h-112l-41 180q-6 26 -19 37t-50 11h-121l-48 -228h-109zM183 316h158q65 0 102 29t51 93
q14 63 -6.5 92t-85.5 29h-168z" />
    <glyph glyph-name="uni0156" unicode="&#x156;" horiz-adv-x="611" 
d="M7 0l136 644h286q107 0 150.5 -55.5t23.5 -150.5q-15 -68 -57.5 -116.5t-113.5 -66.5q15 -13 21.5 -28t11.5 -40l42 -187h-112l-41 180q-6 26 -19 37t-50 11h-121l-48 -228h-109zM183 316h158q65 0 102 29t51 93q14 63 -6.5 92t-85.5 29h-168zM114 -226l69 189h90
l-87 -189h-72z" />
    <glyph glyph-name="uni1E5A" unicode="&#x1e5a;" horiz-adv-x="611" 
d="M7 0l136 644h286q107 0 150.5 -55.5t23.5 -150.5q-15 -68 -57.5 -116.5t-113.5 -66.5q15 -13 21.5 -28t11.5 -40l42 -187h-112l-41 180q-6 26 -19 37t-50 11h-121l-48 -228h-109zM183 316h158q65 0 102 29t51 93q14 63 -6.5 92t-85.5 29h-168zM167 -173l18 88h94l-18 -88
h-94z" />
    <glyph glyph-name="uni1E5C" unicode="&#x1e5c;" horiz-adv-x="611" 
d="M240 717l15 71h297l-15 -71h-297zM7 0l136 644h286q107 0 150.5 -55.5t23.5 -150.5q-15 -68 -57.5 -116.5t-113.5 -66.5q15 -13 21.5 -28t11.5 -40l42 -187h-112l-41 180q-6 26 -19 37t-50 11h-121l-48 -228h-109zM183 316h158q65 0 102 29t51 93q14 63 -6.5 92t-85.5 29
h-168zM167 -173l18 88h94l-18 -88h-94z" />
    <glyph glyph-name="uni1E5E" unicode="&#x1e5e;" horiz-adv-x="611" 
d="M7 0l136 644h286q107 0 150.5 -55.5t23.5 -150.5q-15 -68 -57.5 -116.5t-113.5 -66.5q15 -13 21.5 -28t11.5 -40l42 -187h-112l-41 180q-6 26 -19 37t-50 11h-121l-48 -228h-109zM183 316h158q65 0 102 29t51 93q14 63 -6.5 92t-85.5 29h-168zM59 -143l15 71h297l-15 -71
h-297z" />
    <glyph glyph-name="S" unicode="S" horiz-adv-x="555" 
d="M199 -10q-124 0 -194 32l21 96q39 -16 86.5 -26t96.5 -10q77 0 119.5 18t53.5 72q7 33 -4.5 53t-46 34.5t-95.5 30.5q-94 26 -129.5 68t-19.5 115q18 85 86.5 133t199.5 48q56 0 103.5 -8t73.5 -18l-20 -96q-70 29 -162 29q-72 0 -116 -19t-55 -69q-6 -29 4 -47t41.5 -31
t89.5 -29q73 -19 111 -47t48.5 -64.5t0.5 -82.5q-12 -56 -45 -97t-93.5 -63t-154.5 -22z" />
    <glyph glyph-name="Sacute" unicode="&#x15a;" horiz-adv-x="555" 
d="M307 691l113 177h96l-122 -177h-87zM199 -10q-124 0 -194 32l21 96q39 -16 86.5 -26t96.5 -10q77 0 119.5 18t53.5 72q7 33 -4.5 53t-46 34.5t-95.5 30.5q-94 26 -129.5 68t-19.5 115q18 85 86.5 133t199.5 48q56 0 103.5 -8t73.5 -18l-20 -96q-70 29 -162 29
q-72 0 -116 -19t-55 -69q-6 -29 4 -47t41.5 -31t89.5 -29q73 -19 111 -47t48.5 -64.5t0.5 -82.5q-12 -56 -45 -97t-93.5 -63t-154.5 -22z" />
    <glyph glyph-name="Scaron" unicode="&#x160;" horiz-adv-x="555" 
d="M341 687l-90 161h85l53 -101l97 101h90l-159 -161h-76zM199 -10q-124 0 -194 32l21 96q39 -16 86.5 -26t96.5 -10q77 0 119.5 18t53.5 72q7 33 -4.5 53t-46 34.5t-95.5 30.5q-94 26 -129.5 68t-19.5 115q18 85 86.5 133t199.5 48q56 0 103.5 -8t73.5 -18l-20 -96
q-70 29 -162 29q-72 0 -116 -19t-55 -69q-6 -29 4 -47t41.5 -31t89.5 -29q73 -19 111 -47t48.5 -64.5t0.5 -82.5q-12 -56 -45 -97t-93.5 -63t-154.5 -22z" />
    <glyph glyph-name="Scedilla" unicode="&#x15e;" horiz-adv-x="555" 
d="M137 -240q-16 0 -38 2.5t-33 5.5l13 59q27 -8 60 -8q45 0 66.5 8.5t27.5 36.5q5 28 -14 34.5t-58 6.5h-40l44 86q-99 3 -160 31l21 96q39 -16 86.5 -26t96.5 -10q77 0 119.5 18t53.5 72q7 33 -4.5 53t-46 34.5t-95.5 30.5q-94 26 -129.5 68t-19.5 115q18 85 86.5 133
t199.5 48q56 0 103.5 -8t73.5 -18l-20 -96q-70 29 -162 29q-72 0 -116 -19t-55 -69q-6 -29 4 -47t41.5 -31t89.5 -29q73 -19 111 -47t48.5 -64.5t0.5 -82.5q-17 -79 -75.5 -126.5t-178.5 -54.5l-20 -38q53 0 75 -24t13 -66q-10 -49 -51.5 -76t-117.5 -27z" />
    <glyph glyph-name="Scircumflex" unicode="&#x15c;" horiz-adv-x="555" 
d="M204 695l158 161h76l91 -161h-84l-55 101l-95 -101h-91zM199 -10q-124 0 -194 32l21 96q39 -16 86.5 -26t96.5 -10q77 0 119.5 18t53.5 72q7 33 -4.5 53t-46 34.5t-95.5 30.5q-94 26 -129.5 68t-19.5 115q18 85 86.5 133t199.5 48q56 0 103.5 -8t73.5 -18l-20 -96
q-70 29 -162 29q-72 0 -116 -19t-55 -69q-6 -29 4 -47t41.5 -31t89.5 -29q73 -19 111 -47t48.5 -64.5t0.5 -82.5q-12 -56 -45 -97t-93.5 -63t-154.5 -22z" />
    <glyph glyph-name="uni0218" unicode="&#x218;" horiz-adv-x="555" 
d="M199 -10q-124 0 -194 32l21 96q39 -16 86.5 -26t96.5 -10q77 0 119.5 18t53.5 72q7 33 -4.5 53t-46 34.5t-95.5 30.5q-94 26 -129.5 68t-19.5 115q18 85 86.5 133t199.5 48q56 0 103.5 -8t73.5 -18l-20 -96q-70 29 -162 29q-72 0 -116 -19t-55 -69q-6 -29 4 -47t41.5 -31
t89.5 -29q73 -19 111 -47t48.5 -64.5t0.5 -82.5q-12 -56 -45 -97t-93.5 -63t-154.5 -22zM97 -223l65 173h95l-77 -173h-83z" />
    <glyph glyph-name="uni1E60" unicode="&#x1e60;" horiz-adv-x="555" 
d="M323 711l19 88h92l-19 -88h-92zM199 -10q-124 0 -194 32l21 96q39 -16 86.5 -26t96.5 -10q77 0 119.5 18t53.5 72q7 33 -4.5 53t-46 34.5t-95.5 30.5q-94 26 -129.5 68t-19.5 115q18 85 86.5 133t199.5 48q56 0 103.5 -8t73.5 -18l-20 -96q-70 29 -162 29q-72 0 -116 -19
t-55 -69q-6 -29 4 -47t41.5 -31t89.5 -29q73 -19 111 -47t48.5 -64.5t0.5 -82.5q-12 -56 -45 -97t-93.5 -63t-154.5 -22z" />
    <glyph glyph-name="uni1E62" unicode="&#x1e62;" horiz-adv-x="555" 
d="M199 -10q-124 0 -194 32l21 96q39 -16 86.5 -26t96.5 -10q77 0 119.5 18t53.5 72q7 33 -4.5 53t-46 34.5t-95.5 30.5q-94 26 -129.5 68t-19.5 115q18 85 86.5 133t199.5 48q56 0 103.5 -8t73.5 -18l-20 -96q-70 29 -162 29q-72 0 -116 -19t-55 -69q-6 -29 4 -47t41.5 -31
t89.5 -29q73 -19 111 -47t48.5 -64.5t0.5 -82.5q-12 -56 -45 -97t-93.5 -63t-154.5 -22zM130 -173l18 88h94l-18 -88h-94z" />
    <glyph glyph-name="uni1E9E" unicode="&#x1e9e;" horiz-adv-x="625" 
d="M326 -10q-40 0 -75.5 5.5t-63.5 16.5l20 92q23 -11 55.5 -16.5t63.5 -5.5q111 0 134 102q10 47 -8.5 66t-79.5 19h-96l19 92l202 111q8 38 -20 65t-103 27q-82 0 -122 -33.5t-54 -101.5l-91 -429h-105l90 426q23 109 96.5 168.5t205.5 59.5q87 0 134.5 -28.5t62.5 -76
t3 -105.5l-192 -103h36q68 0 104 -43.5t21 -114.5q-18 -85 -75.5 -139t-161.5 -54z" />
    <glyph glyph-name="uni018F" unicode="&#x18f;" horiz-adv-x="674" 
d="M266 -10q-95 0 -150 34t-73 94.5t-1 140.5l23 111h488q12 72 -5.5 116t-68.5 64t-142 20q-45 0 -100.5 -10.5t-97.5 -27.5l17 83q47 17 105.5 28t116.5 11q170 0 234.5 -86.5t28.5 -253.5q-31 -150 -122 -237t-253 -87zM284 71q105 0 167 55.5t86 165.5h-392l-12 -54
q-17 -81 23 -124t128 -43z" />
    <glyph glyph-name="T" unicode="T" horiz-adv-x="568" 
d="M174 0l118 559h-206l18 85h520l-18 -85h-205l-118 -559h-109z" />
    <glyph glyph-name="Tbar" unicode="&#x166;" horiz-adv-x="568" 
d="M174 0l64 306h-127l17 81h127l37 172h-206l18 85h520l-18 -85h-205l-37 -172h130l-17 -81h-130l-64 -306h-109z" />
    <glyph glyph-name="Tcaron" unicode="&#x164;" horiz-adv-x="568" 
d="M337 695l-90 161h85l53 -101l97 101h90l-159 -161h-76zM174 0l118 559h-206l18 85h520l-18 -85h-205l-118 -559h-109z" />
    <glyph glyph-name="uni0162" unicode="&#x162;" horiz-adv-x="568" 
d="M157 -240q-16 0 -38 2.5t-33 5.5l13 59q27 -8 60 -8q45 0 66.5 8.5t27.5 36.5q5 28 -14 34.5t-58 6.5h-40l49 95h-16l118 559h-206l18 85h520l-18 -85h-205l-118 -559h-20l-25 -47q53 0 75 -24t13 -66q-10 -49 -51.5 -76t-117.5 -27z" />
    <glyph glyph-name="uni021A" unicode="&#x21a;" horiz-adv-x="568" 
d="M174 0l118 559h-206l18 85h520l-18 -85h-205l-118 -559h-109zM107 -234l69 189h90l-87 -189h-72z" />
    <glyph glyph-name="uni1E6C" unicode="&#x1e6c;" horiz-adv-x="568" 
d="M174 0l118 559h-206l18 85h520l-18 -85h-205l-118 -559h-109zM146 -166l18 88h94l-18 -88h-94z" />
    <glyph glyph-name="uni1E6E" unicode="&#x1e6e;" horiz-adv-x="568" 
d="M174 0l118 559h-206l18 85h520l-18 -85h-205l-118 -559h-109zM50 -136l15 71h297l-15 -71h-297z" />
    <glyph glyph-name="U" unicode="U" horiz-adv-x="674" 
d="M279 -10q-85 0 -141.5 31t-79 87.5t-6.5 130.5l86 405h109l-85 -401q-18 -84 10 -122.5t127 -38.5q86 0 136 38t68 123l85 401h108l-86 -405q-25 -121 -105.5 -185t-225.5 -64z" />
    <glyph glyph-name="Uacute" unicode="&#xda;" horiz-adv-x="674" 
d="M378 688l113 177h96l-122 -177h-87zM279 -10q-85 0 -141.5 31t-79 87.5t-6.5 130.5l86 405h109l-85 -401q-18 -84 10 -122.5t127 -38.5q86 0 136 38t68 123l85 401h108l-86 -405q-25 -121 -105.5 -185t-225.5 -64z" />
    <glyph glyph-name="Ubreve" unicode="&#x16c;" horiz-adv-x="674" 
d="M413 688q-66 0 -94.5 38.5t-15.5 102.5h70q-7 -34 3 -55t48 -21q34 0 56.5 21t29.5 55h77q-13 -64 -60 -102.5t-114 -38.5zM279 -10q-85 0 -141.5 31t-79 87.5t-6.5 130.5l86 405h109l-85 -401q-18 -84 10 -122.5t127 -38.5q86 0 136 38t68 123l85 401h108l-86 -405
q-25 -121 -105.5 -185t-225.5 -64z" />
    <glyph glyph-name="uni01D3" unicode="&#x1d3;" horiz-adv-x="674" 
d="M388 687l-90 161h85l53 -101l97 101h90l-159 -161h-76zM279 -10q-85 0 -141.5 31t-79 87.5t-6.5 130.5l86 405h109l-85 -401q-18 -84 10 -122.5t127 -38.5q86 0 136 38t68 123l85 401h108l-86 -405q-25 -121 -105.5 -185t-225.5 -64z" />
    <glyph glyph-name="Ucircumflex" unicode="&#xdb;" horiz-adv-x="674" 
d="M264 687l158 161h76l91 -161h-84l-55 101l-95 -101h-91zM279 -10q-85 0 -141.5 31t-79 87.5t-6.5 130.5l86 405h109l-85 -401q-18 -84 10 -122.5t127 -38.5q86 0 136 38t68 123l85 401h108l-86 -405q-25 -121 -105.5 -185t-225.5 -64z" />
    <glyph glyph-name="Udieresis" unicode="&#xdc;" horiz-adv-x="674" 
d="M287 712l19 86h91l-19 -86h-91zM472 712l19 86h92l-19 -86h-92zM279 -10q-85 0 -141.5 31t-79 87.5t-6.5 130.5l86 405h109l-85 -401q-18 -84 10 -122.5t127 -38.5q86 0 136 38t68 123l85 401h108l-86 -405q-25 -121 -105.5 -185t-225.5 -64z" />
    <glyph glyph-name="uni01D7" unicode="&#x1d7;" horiz-adv-x="674" 
d="M406 786l88 127h83l-94 -127h-77zM283 688l18 84h89l-18 -84h-89zM481 688l18 84h89l-18 -84h-89zM279 -10q-85 0 -141.5 31t-79 87.5t-6.5 130.5l86 405h109l-85 -401q-18 -84 10 -122.5t127 -38.5q86 0 136 38t68 123l85 401h108l-86 -405q-25 -121 -105.5 -185
t-225.5 -64z" />
    <glyph glyph-name="uni01D9" unicode="&#x1d9;" horiz-adv-x="674" 
d="M409 784l-87 120h82l51 -78l83 78h86l-136 -120h-79zM281 688l18 84h90l-18 -84h-90zM480 688l18 84h88l-18 -84h-88zM279 -10q-85 0 -141.5 31t-79 87.5t-6.5 130.5l86 405h109l-85 -401q-18 -84 10 -122.5t127 -38.5q86 0 136 38t68 123l85 401h108l-86 -405
q-25 -121 -105.5 -185t-225.5 -64z" />
    <glyph glyph-name="uni01DB" unicode="&#x1db;" horiz-adv-x="674" 
d="M409 786l-40 127h84l33 -127h-77zM281 688l18 84h89l-18 -84h-89zM479 688l18 84h89l-18 -84h-89zM279 -10q-85 0 -141.5 31t-79 87.5t-6.5 130.5l86 405h109l-85 -401q-18 -84 10 -122.5t127 -38.5q86 0 136 38t68 123l85 401h108l-86 -405q-25 -121 -105.5 -185
t-225.5 -64z" />
    <glyph glyph-name="uni01D5" unicode="&#x1d5;" horiz-adv-x="674" 
d="M311 831l15 71h297l-15 -71h-297zM291 693l19 86h91l-19 -86h-91zM476 693l19 86h92l-19 -86h-92zM279 -10q-85 0 -141.5 31t-79 87.5t-6.5 130.5l86 405h109l-85 -401q-18 -84 10 -122.5t127 -38.5q86 0 136 38t68 123l85 401h108l-86 -405q-25 -121 -105.5 -185
t-225.5 -64z" />
    <glyph glyph-name="uni1EE4" unicode="&#x1ee4;" horiz-adv-x="674" 
d="M279 -10q-85 0 -141.5 31t-79 87.5t-6.5 130.5l86 405h109l-85 -401q-18 -84 10 -122.5t127 -38.5q86 0 136 38t68 123l85 401h108l-86 -405q-25 -121 -105.5 -185t-225.5 -64zM198 -173l18 88h94l-18 -88h-94z" />
    <glyph glyph-name="Ugrave" unicode="&#xd9;" horiz-adv-x="674" 
d="M397 688l-45 177h95l38 -177h-88zM279 -10q-85 0 -141.5 31t-79 87.5t-6.5 130.5l86 405h109l-85 -401q-18 -84 10 -122.5t127 -38.5q86 0 136 38t68 123l85 401h108l-86 -405q-25 -121 -105.5 -185t-225.5 -64z" />
    <glyph glyph-name="uni1EE6" unicode="&#x1ee6;" horiz-adv-x="674" 
d="M382 687l18 82q58 3 78 14t25 36q8 42 -66 42q-15 0 -33.5 -3.5t-32.5 -8.5l12 59q18 6 44.5 9.5t51.5 3.5q62 0 89 -25t17 -68q-8 -41 -32.5 -63.5t-75.5 -30.5l-10 -47h-85zM279 -10q-85 0 -141.5 31t-79 87.5t-6.5 130.5l86 405h109l-85 -401q-18 -84 10 -122.5
t127 -38.5q86 0 136 38t68 123l85 401h108l-86 -405q-25 -121 -105.5 -185t-225.5 -64z" />
    <glyph glyph-name="Uhorn" unicode="&#x1af;" horiz-adv-x="812" 
d="M279 -10q-133 0 -192.5 64t-34.5 185l86 405h109l-85 -401q-17 -81 19 -121t118 -40q81 0 134 40t70 121l85 401h108l-14 -70q55 2 81.5 26t39.5 88h84q-15 -71 -43.5 -112.5t-72 -59.5t-106.5 -19l-55 -258q-25 -121 -112 -185t-219 -64z" />
    <glyph glyph-name="uni1EE8" unicode="&#x1ee8;" horiz-adv-x="812" 
d="M391 688l113 177h96l-122 -177h-87zM279 -10q-133 0 -192.5 64t-34.5 185l86 405h109l-85 -401q-17 -81 19 -121t118 -40q81 0 134 40t70 121l85 401h108l-14 -70q55 2 81.5 26t39.5 88h84q-15 -71 -43.5 -112.5t-72 -59.5t-106.5 -19l-55 -258q-25 -121 -112 -185
t-219 -64z" />
    <glyph glyph-name="uni1EF0" unicode="&#x1ef0;" horiz-adv-x="812" 
d="M279 -10q-133 0 -192.5 64t-34.5 185l86 405h109l-85 -401q-17 -81 19 -121t118 -40q81 0 134 40t70 121l85 401h108l-14 -70q55 2 81.5 26t39.5 88h84q-15 -71 -43.5 -112.5t-72 -59.5t-106.5 -19l-55 -258q-25 -121 -112 -185t-219 -64zM196 -173l18 88h94l-18 -88h-94
z" />
    <glyph glyph-name="uni1EEA" unicode="&#x1eea;" horiz-adv-x="812" 
d="M393 688l-45 177h95l38 -177h-88zM279 -10q-133 0 -192.5 64t-34.5 185l86 405h109l-85 -401q-17 -81 19 -121t118 -40q81 0 134 40t70 121l85 401h108l-14 -70q55 2 81.5 26t39.5 88h84q-15 -71 -43.5 -112.5t-72 -59.5t-106.5 -19l-55 -258q-25 -121 -112 -185
t-219 -64z" />
    <glyph glyph-name="uni1EEC" unicode="&#x1eec;" horiz-adv-x="812" 
d="M390 687l18 82q58 3 78 14t25 36q8 42 -66 42q-15 0 -33.5 -3.5t-32.5 -8.5l12 59q18 6 44.5 9.5t51.5 3.5q62 0 89 -25t17 -68q-8 -41 -32.5 -63.5t-75.5 -30.5l-10 -47h-85zM279 -10q-133 0 -192.5 64t-34.5 185l86 405h109l-85 -401q-17 -81 19 -121t118 -40
q81 0 134 40t70 121l85 401h108l-14 -70q55 2 81.5 26t39.5 88h84q-15 -71 -43.5 -112.5t-72 -59.5t-106.5 -19l-55 -258q-25 -121 -112 -185t-219 -64z" />
    <glyph glyph-name="uni1EEE" unicode="&#x1eee;" horiz-adv-x="812" 
d="M510 701q-27 0 -51 10t-46.5 19.5t-45.5 9.5q-26 0 -49.5 -8t-45.5 -28l17 80q16 14 41 22t50 8q29 0 52 -9.5t45 -19.5t48 -10q53 0 88 37l-17 -80q-13 -13 -36 -22t-50 -9zM279 -10q-133 0 -192.5 64t-34.5 185l86 405h109l-85 -401q-17 -81 19 -121t118 -40
q81 0 134 40t70 121l85 401h108l-14 -70q55 2 81.5 26t39.5 88h84q-15 -71 -43.5 -112.5t-72 -59.5t-106.5 -19l-55 -258q-25 -121 -112 -185t-219 -64z" />
    <glyph glyph-name="Uhungarumlaut" unicode="&#x170;" horiz-adv-x="674" 
d="M244 687l110 164h98l-120 -164h-88zM460 687l110 164h99l-121 -164h-88zM279 -10q-85 0 -141.5 31t-79 87.5t-6.5 130.5l86 405h109l-85 -401q-18 -84 10 -122.5t127 -38.5q86 0 136 38t68 123l85 401h108l-86 -405q-25 -121 -105.5 -185t-225.5 -64z" />
    <glyph glyph-name="Umacron" unicode="&#x16a;" horiz-adv-x="674" 
d="M279 721l15 71h297l-15 -71h-297zM279 -10q-85 0 -141.5 31t-79 87.5t-6.5 130.5l86 405h109l-85 -401q-18 -84 10 -122.5t127 -38.5q86 0 136 38t68 123l85 401h108l-86 -405q-25 -121 -105.5 -185t-225.5 -64z" />
    <glyph glyph-name="Uogonek" unicode="&#x172;" horiz-adv-x="674" 
d="M256 -220q-43 0 -70.5 21.5t-17.5 67.5q8 35 30.5 67t55.5 55q-116 7 -170 74.5t-32 173.5l86 405h109l-85 -401q-18 -84 10 -122.5t127 -38.5q86 0 136 38t68 123l85 401h108l-86 -405q-22 -108 -88 -170t-181 -75q-34 -24 -55.5 -50.5t-26.5 -55.5q-5 -23 5.5 -31.5
t32.5 -8.5q12 0 27 3t25 8l-14 -66q-14 -6 -35.5 -9.5t-43.5 -3.5z" />
    <glyph glyph-name="Uring" unicode="&#x16e;" horiz-adv-x="674" 
d="M419 687q-52 0 -76.5 33t-15.5 80q11 48 47 81t93 33q54 0 79.5 -33t14.5 -81q-10 -47 -47.5 -80t-94.5 -33zM431 741q28 0 48 17t25 42t-5.5 42t-42.5 17q-26 0 -46.5 -17t-25.5 -42t5.5 -42t41.5 -17zM279 -10q-85 0 -141.5 31t-79 87.5t-6.5 130.5l86 405h109
l-85 -401q-18 -84 10 -122.5t127 -38.5q86 0 136 38t68 123l85 401h108l-86 -405q-25 -121 -105.5 -185t-225.5 -64z" />
    <glyph glyph-name="Utilde" unicode="&#x168;" horiz-adv-x="674" 
d="M504 703q-27 0 -51 10t-46.5 19.5t-45.5 9.5q-26 0 -49.5 -8t-45.5 -28l17 80q16 14 41 22t50 8q29 0 52 -9.5t45 -19.5t48 -10q53 0 88 37l-17 -80q-13 -13 -36 -22t-50 -9zM279 -10q-85 0 -141.5 31t-79 87.5t-6.5 130.5l86 405h109l-85 -401q-18 -84 10 -122.5
t127 -38.5q86 0 136 38t68 123l85 401h108l-86 -405q-25 -121 -105.5 -185t-225.5 -64z" />
    <glyph glyph-name="V" unicode="V" horiz-adv-x="700" 
d="M234 0l-110 644h111l81 -527l305 527h115l-380 -644h-122z" />
    <glyph glyph-name="W" unicode="W" horiz-adv-x="869" 
d="M138 0l-14 644h107l7 -483l208 405l16 78h89l35 -483l213 483h106l-285 -644h-105l-34 451l-232 -451h-111z" />
    <glyph glyph-name="Wacute" unicode="&#x1e82;" horiz-adv-x="869" 
d="M478 688l113 177h96l-122 -177h-87zM138 0l-14 644h107l7 -483l208 405l16 78h89l35 -483l213 483h106l-285 -644h-105l-34 451l-232 -451h-111z" />
    <glyph glyph-name="Wcircumflex" unicode="&#x174;" horiz-adv-x="869" 
d="M366 687l158 161h76l91 -161h-84l-55 101l-95 -101h-91zM138 0l-14 644h107l7 -483l208 405l16 78h89l35 -483l213 483h106l-285 -644h-105l-34 451l-232 -451h-111z" />
    <glyph glyph-name="Wdieresis" unicode="&#x1e84;" horiz-adv-x="869" 
d="M396 710l19 86h91l-19 -86h-91zM581 710l19 86h92l-19 -86h-92zM138 0l-14 644h107l7 -483l208 405l16 78h89l35 -483l213 483h106l-285 -644h-105l-34 451l-232 -451h-111z" />
    <glyph glyph-name="Wgrave" unicode="&#x1e80;" horiz-adv-x="869" 
d="M466 688l-45 177h95l38 -177h-88zM138 0l-14 644h107l7 -483l208 405l16 78h89l35 -483l213 483h106l-285 -644h-105l-34 451l-232 -451h-111z" />
    <glyph glyph-name="X" unicode="X" horiz-adv-x="677" 
d="M-14 0l298 321l-157 323h126l114 -239l214 239h127l-294 -323l162 -321h-128l-117 236l-217 -236h-128z" />
    <glyph glyph-name="Y" unicode="Y" horiz-adv-x="656" 
d="M218 0l50 239l-145 405h109l106 -313l238 313h117l-317 -405l-50 -239h-108z" />
    <glyph glyph-name="Yacute" unicode="&#xdd;" horiz-adv-x="656" 
d="M364 688l113 177h96l-122 -177h-87zM218 0l50 239l-145 405h109l106 -313l238 313h117l-317 -405l-50 -239h-108z" />
    <glyph glyph-name="Ycircumflex" unicode="&#x176;" horiz-adv-x="656" 
d="M255 687l158 161h76l91 -161h-84l-55 101l-95 -101h-91zM218 0l50 239l-145 405h109l106 -313l238 313h117l-317 -405l-50 -239h-108z" />
    <glyph glyph-name="Ydieresis" unicode="&#x178;" horiz-adv-x="656" 
d="M284 712l19 86h91l-19 -86h-91zM469 712l19 86h92l-19 -86h-92zM218 0l50 239l-145 405h109l106 -313l238 313h117l-317 -405l-50 -239h-108z" />
    <glyph glyph-name="uni1E8E" unicode="&#x1e8e;" horiz-adv-x="656" 
d="M376 711l19 88h92l-19 -88h-92zM218 0l50 239l-145 405h109l106 -313l238 313h117l-317 -405l-50 -239h-108z" />
    <glyph glyph-name="uni1EF4" unicode="&#x1ef4;" horiz-adv-x="656" 
d="M218 0l50 239l-145 405h109l106 -313l238 313h117l-317 -405l-50 -239h-108zM191 -161l18 88h94l-18 -88h-94z" />
    <glyph glyph-name="Ygrave" unicode="&#x1ef2;" horiz-adv-x="656" 
d="M385 688l-45 177h95l38 -177h-88zM218 0l50 239l-145 405h109l106 -313l238 313h117l-317 -405l-50 -239h-108z" />
    <glyph glyph-name="uni1EF6" unicode="&#x1ef6;" horiz-adv-x="656" 
d="M368 687l18 82q58 3 78 14t25 36q8 42 -66 42q-15 0 -33.5 -3.5t-32.5 -8.5l12 59q18 6 44.5 9.5t51.5 3.5q62 0 89 -25t17 -68q-8 -41 -32.5 -63.5t-75.5 -30.5l-10 -47h-85zM218 0l50 239l-145 405h109l106 -313l238 313h117l-317 -405l-50 -239h-108z" />
    <glyph glyph-name="uni1EF8" unicode="&#x1ef8;" horiz-adv-x="656" 
d="M501 703q-27 0 -51 10t-46.5 19.5t-45.5 9.5q-26 0 -49.5 -8t-45.5 -28l17 80q16 14 41 22t50 8q29 0 52 -9.5t45 -19.5t48 -10q53 0 88 37l-17 -80q-13 -13 -36 -22t-50 -9zM218 0l50 239l-145 405h109l106 -313l238 313h117l-317 -405l-50 -239h-108z" />
    <glyph glyph-name="Z" unicode="Z" horiz-adv-x="575" 
d="M-14 0l12 58l451 497h-329l19 89h469l-14 -67l-448 -493h348l-17 -84h-491z" />
    <glyph glyph-name="Zacute" unicode="&#x179;" horiz-adv-x="575" 
d="M339 688l113 177h96l-122 -177h-87zM-14 0l12 58l451 497h-329l19 89h469l-14 -67l-448 -493h348l-17 -84h-491z" />
    <glyph glyph-name="Zcaron" unicode="&#x17d;" horiz-adv-x="575" 
d="M357 687l-90 161h85l53 -101l97 101h90l-159 -161h-76zM-14 0l12 58l451 497h-329l19 89h469l-14 -67l-448 -493h348l-17 -84h-491z" />
    <glyph glyph-name="Zdotaccent" unicode="&#x17b;" horiz-adv-x="575" 
d="M346 711l19 88h92l-19 -88h-92zM-14 0l12 58l451 497h-329l19 89h469l-14 -67l-448 -493h348l-17 -84h-491z" />
    <glyph glyph-name="uni1E92" unicode="&#x1e92;" horiz-adv-x="575" 
d="M-14 0l12 58l451 497h-329l19 89h469l-14 -67l-448 -493h348l-17 -84h-491zM163 -173l18 88h94l-18 -88h-94z" />
    <glyph glyph-name="a" unicode="a" horiz-adv-x="586" 
d="M199 -10q-64 0 -107.5 22.5t-59.5 73t0 132.5q17 83 59.5 142.5t101 91.5t124.5 32q43 0 73 -10t56 -33l7 33h109l-100 -474h-93l2 47q-38 -29 -79 -43t-93 -14zM246 72q73 0 132 50l50 235q-18 21 -40.5 32.5t-58.5 11.5q-72 0 -120 -47.5t-67 -136.5
q-12 -56 -6.5 -87.5t32 -44.5t78.5 -13z" />
    <glyph glyph-name="aacute" unicode="&#xe1;" horiz-adv-x="583" 
d="M287 522l113 177h96l-122 -177h-87zM196 -10q-64 0 -107.5 22.5t-59.5 73t0 132.5q17 83 59.5 142.5t101 91.5t124.5 32q43 0 73 -10t56 -33l7 33h109l-100 -474h-93l2 47q-38 -29 -79 -43t-93 -14zM243 72q73 0 132 50l50 235q-18 21 -40.5 32.5t-58.5 11.5
q-72 0 -120 -47.5t-67 -136.5q-12 -56 -6.5 -87.5t32 -44.5t78.5 -13z" />
    <glyph glyph-name="abreve" unicode="&#x103;" horiz-adv-x="583" 
d="M341 522q-66 0 -94.5 38.5t-15.5 102.5h70q-7 -34 3 -55t48 -21q34 0 56.5 21t29.5 55h77q-13 -64 -60 -102.5t-114 -38.5zM196 -10q-64 0 -107.5 22.5t-59.5 73t0 132.5q17 83 59.5 142.5t101 91.5t124.5 32q43 0 73 -10t56 -33l7 33h109l-100 -474h-93l2 47
q-38 -29 -79 -43t-93 -14zM243 72q73 0 132 50l50 235q-18 21 -40.5 32.5t-58.5 11.5q-72 0 -120 -47.5t-67 -136.5q-12 -56 -6.5 -87.5t32 -44.5t78.5 -13z" />
    <glyph glyph-name="uni1EAF" unicode="&#x1eaf;" horiz-adv-x="583" 
d="M323 639l92 133h84l-99 -133h-77zM345 522q-43 0 -75.5 14.5t-46.5 47.5t-3 86h64q-9 -44 7 -66.5t65 -22.5q41 0 70 22.5t38 66.5h68q-16 -80 -66 -114t-121 -34zM196 -10q-64 0 -107.5 22.5t-59.5 73t0 132.5q17 83 59.5 142.5t101 91.5t124.5 32q43 0 73 -10t56 -33
l7 33h109l-100 -474h-93l2 47q-38 -29 -79 -43t-93 -14zM243 72q73 0 132 50l50 235q-18 21 -40.5 32.5t-58.5 11.5q-72 0 -120 -47.5t-67 -136.5q-12 -56 -6.5 -87.5t32 -44.5t78.5 -13z" />
    <glyph glyph-name="uni1EB7" unicode="&#x1eb7;" horiz-adv-x="583" 
d="M339 522q-66 0 -94.5 38.5t-15.5 102.5h70q-7 -34 3 -55t48 -21q34 0 56.5 21t29.5 55h77q-13 -64 -60 -102.5t-114 -38.5zM196 -10q-64 0 -107.5 22.5t-59.5 73t0 132.5q17 83 59.5 142.5t101 91.5t124.5 32q43 0 73 -10t56 -33l7 33h109l-100 -474h-93l2 47
q-38 -29 -79 -43t-93 -14zM243 72q73 0 132 50l50 235q-18 21 -40.5 32.5t-58.5 11.5q-72 0 -120 -47.5t-67 -136.5q-12 -56 -6.5 -87.5t32 -44.5t78.5 -13zM147 -173l18 88h94l-18 -88h-94z" />
    <glyph glyph-name="uni1EB1" unicode="&#x1eb1;" horiz-adv-x="583" 
d="M336 639l-43 133h84l36 -133h-77zM341 522q-43 0 -75.5 14.5t-46.5 47.5t-3 86h64q-9 -44 7 -66.5t65 -22.5q41 0 70 22.5t38 66.5h68q-16 -80 -66 -114t-121 -34zM196 -10q-64 0 -107.5 22.5t-59.5 73t0 132.5q17 83 59.5 142.5t101 91.5t124.5 32q43 0 73 -10t56 -33
l7 33h109l-100 -474h-93l2 47q-38 -29 -79 -43t-93 -14zM243 72q73 0 132 50l50 235q-18 21 -40.5 32.5t-58.5 11.5q-72 0 -120 -47.5t-67 -136.5q-12 -56 -6.5 -87.5t32 -44.5t78.5 -13z" />
    <glyph glyph-name="uni1EB3" unicode="&#x1eb3;" horiz-adv-x="583" 
d="M325 644l12 59q49 2 68 13t23 30q4 20 -7.5 26.5t-37.5 6.5q-16 0 -30 -3.5t-28 -8.5l11 51q16 5 38 8.5t45 3.5q47 0 69 -21t14 -56q-7 -33 -28.5 -50.5t-65.5 -25.5l-7 -33h-76zM343 522q-43 0 -75.5 14.5t-46.5 47.5t-3 86h64q-9 -44 7 -66.5t65 -22.5q41 0 70 22.5
t38 66.5h68q-16 -80 -66 -114t-121 -34zM196 -10q-64 0 -107.5 22.5t-59.5 73t0 132.5q17 83 59.5 142.5t101 91.5t124.5 32q43 0 73 -10t56 -33l7 33h109l-100 -474h-93l2 47q-38 -29 -79 -43t-93 -14zM243 72q73 0 132 50l50 235q-18 21 -40.5 32.5t-58.5 11.5
q-72 0 -120 -47.5t-67 -136.5q-12 -56 -6.5 -87.5t32 -44.5t78.5 -13z" />
    <glyph glyph-name="uni1EB5" unicode="&#x1eb5;" horiz-adv-x="583" 
d="M462 691q-26 0 -49.5 9.5t-45 18.5t-44.5 9q-25 0 -47.5 -8t-42.5 -26l15 71q15 13 39.5 21t48.5 8q28 0 50 -9.5t43 -19t46 -9.5q52 0 83 36l-14 -72q-13 -13 -34.5 -21t-47.5 -8zM348 522q-43 0 -75.5 14.5t-46.5 47.5t-3 86h64q-9 -44 7 -66.5t65 -22.5q41 0 70 22.5
t38 66.5h68q-16 -80 -66 -114t-121 -34zM196 -10q-64 0 -107.5 22.5t-59.5 73t0 132.5q17 83 59.5 142.5t101 91.5t124.5 32q43 0 73 -10t56 -33l7 33h109l-100 -474h-93l2 47q-38 -29 -79 -43t-93 -14zM243 72q73 0 132 50l50 235q-18 21 -40.5 32.5t-58.5 11.5
q-72 0 -120 -47.5t-67 -136.5q-12 -56 -6.5 -87.5t32 -44.5t78.5 -13z" />
    <glyph glyph-name="uni01CE" unicode="&#x1ce;" horiz-adv-x="583" 
d="M295 521l-90 161h85l53 -101l97 101h90l-159 -161h-76zM196 -10q-64 0 -107.5 22.5t-59.5 73t0 132.5q17 83 59.5 142.5t101 91.5t124.5 32q43 0 73 -10t56 -33l7 33h109l-100 -474h-93l2 47q-38 -29 -79 -43t-93 -14zM243 72q73 0 132 50l50 235q-18 21 -40.5 32.5
t-58.5 11.5q-72 0 -120 -47.5t-67 -136.5q-12 -56 -6.5 -87.5t32 -44.5t78.5 -13z" />
    <glyph glyph-name="acircumflex" unicode="&#xe2;" horiz-adv-x="583" 
d="M173 521l158 161h76l91 -161h-84l-55 101l-95 -101h-91zM196 -10q-64 0 -107.5 22.5t-59.5 73t0 132.5q17 83 59.5 142.5t101 91.5t124.5 32q43 0 73 -10t56 -33l7 33h109l-100 -474h-93l2 47q-38 -29 -79 -43t-93 -14zM243 72q73 0 132 50l50 235q-18 21 -40.5 32.5
t-58.5 11.5q-72 0 -120 -47.5t-67 -136.5q-12 -56 -6.5 -87.5t32 -44.5t78.5 -13z" />
    <glyph glyph-name="uni1EA5" unicode="&#x1ea5;" horiz-adv-x="583" 
d="M452 634l92 133h83l-98 -133h-77zM176 521l146 127h84l92 -127h-86l-54 82l-88 -82h-94zM196 -10q-64 0 -107.5 22.5t-59.5 73t0 132.5q17 83 59.5 142.5t101 91.5t124.5 32q43 0 73 -10t56 -33l7 33h109l-100 -474h-93l2 47q-38 -29 -79 -43t-93 -14zM243 72
q73 0 132 50l50 235q-18 21 -40.5 32.5t-58.5 11.5q-72 0 -120 -47.5t-67 -136.5q-12 -56 -6.5 -87.5t32 -44.5t78.5 -13z" />
    <glyph glyph-name="uni1EAD" unicode="&#x1ead;" horiz-adv-x="583" 
d="M171 521l158 161h76l91 -161h-84l-55 101l-95 -101h-91zM196 -10q-64 0 -107.5 22.5t-59.5 73t0 132.5q17 83 59.5 142.5t101 91.5t124.5 32q43 0 73 -10t56 -33l7 33h109l-100 -474h-93l2 47q-38 -29 -79 -43t-93 -14zM243 72q73 0 132 50l50 235q-18 21 -40.5 32.5
t-58.5 11.5q-72 0 -120 -47.5t-67 -136.5q-12 -56 -6.5 -87.5t32 -44.5t78.5 -13zM140 -173l18 88h94l-18 -88h-94z" />
    <glyph glyph-name="uni1EA7" unicode="&#x1ea7;" horiz-adv-x="583" 
d="M183 634l-42 133h84l35 -133h-77zM166 521l145 127h85l90 -127h-86l-53 82l-89 -82h-92zM196 -10q-64 0 -107.5 22.5t-59.5 73t0 132.5q17 83 59.5 142.5t101 91.5t124.5 32q43 0 73 -10t56 -33l7 33h109l-100 -474h-93l2 47q-38 -29 -79 -43t-93 -14zM243 72
q73 0 132 50l50 235q-18 21 -40.5 32.5t-58.5 11.5q-72 0 -120 -47.5t-67 -136.5q-12 -56 -6.5 -87.5t32 -44.5t78.5 -13z" />
    <glyph glyph-name="uni1EA9" unicode="&#x1ea9;" horiz-adv-x="583" 
d="M449 612l14 66q48 2 64 11.5t20 27.5q7 31 -40 31q-16 0 -30 -3.5t-28 -8.5l12 53q16 5 34.5 8.5t43.5 3.5q49 0 72 -21.5t15 -56.5q-7 -33 -29.5 -52t-64.5 -25l-7 -34h-76zM169 520l145 127h85l91 -127h-86l-53 82l-89 -82h-93zM196 -10q-64 0 -107.5 22.5t-59.5 73
t0 132.5q17 83 59.5 142.5t101 91.5t124.5 32q43 0 73 -10t56 -33l7 33h109l-100 -474h-93l2 47q-38 -29 -79 -43t-93 -14zM243 72q73 0 132 50l50 235q-18 21 -40.5 32.5t-58.5 11.5q-72 0 -120 -47.5t-67 -136.5q-12 -56 -6.5 -87.5t32 -44.5t78.5 -13z" />
    <glyph glyph-name="uni1EAB" unicode="&#x1eab;" horiz-adv-x="583" 
d="M446 656q-26 0 -49.5 9.5t-45 19t-44.5 9.5q-25 0 -47.5 -8t-42.5 -27l15 71q15 13 39.5 21t48.5 8q28 0 50 -9t43 -18.5t46 -9.5q51 0 84 35l-16 -71q-12 -13 -33.5 -21.5t-47.5 -8.5zM174 521l145 127h85l91 -127h-86l-53 82l-89 -82h-93zM196 -10q-64 0 -107.5 22.5
t-59.5 73t0 132.5q17 83 59.5 142.5t101 91.5t124.5 32q43 0 73 -10t56 -33l7 33h109l-100 -474h-93l2 47q-38 -29 -79 -43t-93 -14zM243 72q73 0 132 50l50 235q-18 21 -40.5 32.5t-58.5 11.5q-72 0 -120 -47.5t-67 -136.5q-12 -56 -6.5 -87.5t32 -44.5t78.5 -13z" />
    <glyph glyph-name="adieresis" unicode="&#xe4;" horiz-adv-x="583" 
d="M208 546l19 86h91l-19 -86h-91zM393 546l19 86h92l-19 -86h-92zM196 -10q-64 0 -107.5 22.5t-59.5 73t0 132.5q17 83 59.5 142.5t101 91.5t124.5 32q43 0 73 -10t56 -33l7 33h109l-100 -474h-93l2 47q-38 -29 -79 -43t-93 -14zM243 72q73 0 132 50l50 235
q-18 21 -40.5 32.5t-58.5 11.5q-72 0 -120 -47.5t-67 -136.5q-12 -56 -6.5 -87.5t32 -44.5t78.5 -13z" />
    <glyph glyph-name="uni1EA1" unicode="&#x1ea1;" horiz-adv-x="583" 
d="M196 -10q-64 0 -107.5 22.5t-59.5 73t0 132.5q17 83 59.5 142.5t101 91.5t124.5 32q43 0 73 -10t56 -33l7 33h109l-100 -474h-93l2 47q-38 -29 -79 -43t-93 -14zM243 72q73 0 132 50l50 235q-18 21 -40.5 32.5t-58.5 11.5q-72 0 -120 -47.5t-67 -136.5
q-12 -56 -6.5 -87.5t32 -44.5t78.5 -13zM145 -173l18 88h94l-18 -88h-94z" />
    <glyph glyph-name="agrave" unicode="&#xe0;" horiz-adv-x="583" 
d="M302 522l-45 177h95l38 -177h-88zM196 -10q-64 0 -107.5 22.5t-59.5 73t0 132.5q17 83 59.5 142.5t101 91.5t124.5 32q43 0 73 -10t56 -33l7 33h109l-100 -474h-93l2 47q-38 -29 -79 -43t-93 -14zM243 72q73 0 132 50l50 235q-18 21 -40.5 32.5t-58.5 11.5
q-72 0 -120 -47.5t-67 -136.5q-12 -56 -6.5 -87.5t32 -44.5t78.5 -13z" />
    <glyph glyph-name="uni1EA3" unicode="&#x1ea3;" horiz-adv-x="583" 
d="M284 521l18 82q58 3 78 14t25 36q8 42 -66 42q-15 0 -33.5 -3.5t-32.5 -8.5l12 59q18 6 44.5 9.5t51.5 3.5q62 0 89 -25t17 -68q-8 -41 -32.5 -63.5t-75.5 -30.5l-10 -47h-85zM196 -10q-64 0 -107.5 22.5t-59.5 73t0 132.5q17 83 59.5 142.5t101 91.5t124.5 32
q43 0 73 -10t56 -33l7 33h109l-100 -474h-93l2 47q-38 -29 -79 -43t-93 -14zM243 72q73 0 132 50l50 235q-18 21 -40.5 32.5t-58.5 11.5q-72 0 -120 -47.5t-67 -136.5q-12 -56 -6.5 -87.5t32 -44.5t78.5 -13z" />
    <glyph glyph-name="uni0251" unicode="&#x251;" horiz-adv-x="583" 
d="M196 -10q-64 0 -107.5 22.5t-59.5 73t0 132.5q17 83 59.5 142.5t101 91.5t124.5 32q43 0 73 -10t56 -33l7 33h109l-100 -474h-93l2 47q-38 -29 -79 -43t-93 -14zM243 72q73 0 132 50l50 235q-18 21 -40.5 32.5t-58.5 11.5q-72 0 -120 -47.5t-67 -136.5
q-12 -56 -6.5 -87.5t32 -44.5t78.5 -13z" />
    <glyph glyph-name="amacron" unicode="&#x101;" horiz-adv-x="583" 
d="M193 543l15 71h297l-15 -71h-297zM196 -10q-64 0 -107.5 22.5t-59.5 73t0 132.5q17 83 59.5 142.5t101 91.5t124.5 32q43 0 73 -10t56 -33l7 33h109l-100 -474h-93l2 47q-38 -29 -79 -43t-93 -14zM243 72q73 0 132 50l50 235q-18 21 -40.5 32.5t-58.5 11.5
q-72 0 -120 -47.5t-67 -136.5q-12 -56 -6.5 -87.5t32 -44.5t78.5 -13z" />
    <glyph glyph-name="aogonek" unicode="&#x105;" horiz-adv-x="583" 
d="M364 -220q-43 0 -70.5 21.5t-17.5 67.5q8 38 34 73t56 58l2 47q-38 -29 -79 -43t-93 -14q-64 0 -107.5 22.5t-59.5 73t0 132.5q17 83 59.5 142.5t101 91.5t124.5 32q43 0 73 -10t56 -33l7 33h109l-100 -474q-37 -25 -61.5 -53.5t-30.5 -58.5q-5 -23 5.5 -31.5t32.5 -8.5
q12 0 27 3t25 8l-14 -66q-14 -6 -35.5 -9.5t-43.5 -3.5zM243 72q73 0 132 50l50 235q-18 21 -40.5 32.5t-58.5 11.5q-72 0 -120 -47.5t-67 -136.5q-12 -56 -6.5 -87.5t32 -44.5t78.5 -13z" />
    <glyph glyph-name="aring" unicode="&#xe5;" horiz-adv-x="583" 
d="M341 521q-52 0 -76.5 33t-15.5 80q11 48 47 81t93 33q54 0 79.5 -33t14.5 -81q-10 -47 -47.5 -80t-94.5 -33zM353 575q28 0 48 17t25 42t-5.5 42t-42.5 17q-26 0 -46.5 -17t-25.5 -42t5.5 -42t41.5 -17zM196 -10q-64 0 -107.5 22.5t-59.5 73t0 132.5q17 83 59.5 142.5
t101 91.5t124.5 32q43 0 73 -10t56 -33l7 33h109l-100 -474h-93l2 47q-38 -29 -79 -43t-93 -14zM243 72q73 0 132 50l50 235q-18 21 -40.5 32.5t-58.5 11.5q-72 0 -120 -47.5t-67 -136.5q-12 -56 -6.5 -87.5t32 -44.5t78.5 -13z" />
    <glyph glyph-name="aringacute" unicode="&#x1fb;" horiz-adv-x="583" 
d="M363 784l113 141h96l-122 -141h-87zM331 517q-52 0 -76.5 33t-15.5 80q11 48 47 81t93 33q54 0 79.5 -33t14.5 -81q-10 -47 -47.5 -80t-94.5 -33zM343 571q28 0 48 17t25 42t-5.5 42t-42.5 17q-26 0 -46.5 -17t-25.5 -42t5.5 -42t41.5 -17zM196 -10q-64 0 -107.5 22.5
t-59.5 73t0 132.5q17 83 59.5 142.5t101 91.5t124.5 32q43 0 73 -10t56 -33l7 33h109l-100 -474h-93l2 47q-38 -29 -79 -43t-93 -14zM243 72q73 0 132 50l50 235q-18 21 -40.5 32.5t-58.5 11.5q-72 0 -120 -47.5t-67 -136.5q-12 -56 -6.5 -87.5t32 -44.5t78.5 -13z" />
    <glyph glyph-name="atilde" unicode="&#xe3;" horiz-adv-x="583" 
d="M422 537q-27 0 -51 10t-46.5 19.5t-45.5 9.5q-26 0 -49.5 -8t-45.5 -28l17 80q16 14 41 22t50 8q29 0 52 -9.5t45 -19.5t48 -10q53 0 88 37l-17 -80q-13 -13 -36 -22t-50 -9zM196 -10q-64 0 -107.5 22.5t-59.5 73t0 132.5q17 83 59.5 142.5t101 91.5t124.5 32
q43 0 73 -10t56 -33l7 33h109l-100 -474h-93l2 47q-38 -29 -79 -43t-93 -14zM243 72q73 0 132 50l50 235q-18 21 -40.5 32.5t-58.5 11.5q-72 0 -120 -47.5t-67 -136.5q-12 -56 -6.5 -87.5t32 -44.5t78.5 -13z" />
    <glyph glyph-name="ae" unicode="&#xe6;" horiz-adv-x="881" 
d="M154 -10q-47 0 -83 16t-53 48.5t-7 80.5q14 68 69.5 109.5t152.5 41.5h152l5 21q7 34 1 54t-32 29t-79 9q-84 0 -162 -25l17 81q35 13 82.5 21t100.5 8q119 0 156 -63q35 29 84 46t105 17q108 0 151 -56.5t23 -145.5l-18 -88h-347q-7 -69 29.5 -95.5t122.5 -26.5
q36 0 75 6.5t70 18.5l-17 -79q-35 -14 -78 -21t-90 -7q-65 0 -113 20.5t-70 62.5q-43 -35 -99 -59t-148 -24zM487 265h251l7 33q11 49 -10.5 76.5t-85.5 27.5q-76 0 -111.5 -33t-50.5 -104zM194 68q52 0 89.5 15.5t67.5 43.5l19 85h-150q-48 0 -73.5 -18.5t-33.5 -56.5
q-8 -37 13.5 -53t67.5 -16z" />
    <glyph glyph-name="aeacute" unicode="&#x1fd;" horiz-adv-x="881" 
d="M443 522l113 177h96l-122 -177h-87zM154 -10q-47 0 -83 16t-53 48.5t-7 80.5q14 68 69.5 109.5t152.5 41.5h152l5 21q7 34 1 54t-32 29t-79 9q-84 0 -162 -25l17 81q35 13 82.5 21t100.5 8q119 0 156 -63q35 29 84 46t105 17q108 0 151 -56.5t23 -145.5l-18 -88h-347
q-7 -69 29.5 -95.5t122.5 -26.5q36 0 75 6.5t70 18.5l-17 -79q-35 -14 -78 -21t-90 -7q-65 0 -113 20.5t-70 62.5q-43 -35 -99 -59t-148 -24zM487 265h251l7 33q11 49 -10.5 76.5t-85.5 27.5q-76 0 -111.5 -33t-50.5 -104zM194 68q52 0 89.5 15.5t67.5 43.5l19 85h-150
q-48 0 -73.5 -18.5t-33.5 -56.5q-8 -37 13.5 -53t67.5 -16z" />
    <glyph glyph-name="b" unicode="b" horiz-adv-x="582" 
d="M263 -10q-52 0 -87 14t-61 43l-15 -47h-94l143 674h109l-49 -231q70 41 157 41q64 0 108 -25.5t60.5 -79t-1.5 -138.5q-28 -129 -96.5 -190t-173.5 -61zM252 72q77 0 115 42t56 127q19 88 -4 124t-99 36q-74 0 -129 -41l-51 -238q18 -25 47 -37.5t65 -12.5z" />
    <glyph glyph-name="c" unicode="c" horiz-adv-x="474" 
d="M236 -10q-115 0 -170 63.5t-30 183.5q26 125 105.5 186t205.5 61q49 0 81 -7t60 -22l-17 -81q-46 26 -120 26q-82 0 -134 -36.5t-71 -126.5q-18 -85 9 -124.5t124 -39.5q71 0 135 27l-18 -83q-36 -13 -75 -20t-85 -7z" />
    <glyph glyph-name="cacute" unicode="&#x107;" horiz-adv-x="474" 
d="M281 522l113 177h96l-122 -177h-87zM236 -10q-115 0 -170 63.5t-30 183.5q26 125 105.5 186t205.5 61q49 0 81 -7t60 -22l-17 -81q-46 26 -120 26q-82 0 -134 -36.5t-71 -126.5q-18 -85 9 -124.5t124 -39.5q71 0 135 27l-18 -83q-36 -13 -75 -20t-85 -7z" />
    <glyph glyph-name="ccaron" unicode="&#x10d;" horiz-adv-x="474" 
d="M291 521l-90 161h85l53 -101l97 101h90l-159 -161h-76zM236 -10q-115 0 -170 63.5t-30 183.5q26 125 105.5 186t205.5 61q49 0 81 -7t60 -22l-17 -81q-46 26 -120 26q-82 0 -134 -36.5t-71 -126.5q-18 -85 9 -124.5t124 -39.5q71 0 135 27l-18 -83q-36 -13 -75 -20
t-85 -7z" />
    <glyph glyph-name="ccedilla" unicode="&#xe7;" horiz-adv-x="474" 
d="M158 -240q-16 0 -38 2.5t-33 5.5l13 59q27 -8 60 -8q45 0 66.5 8.5t27.5 36.5q5 28 -14 34.5t-58 6.5h-40l45 88q-91 13 -132 75.5t-19 168.5q26 125 105.5 186t205.5 61q49 0 81 -7t60 -22l-17 -81q-46 26 -120 26q-82 0 -134 -36.5t-71 -126.5q-18 -85 9 -124.5
t124 -39.5q71 0 135 27l-18 -83q-60 -23 -137 -26l-20 -38q53 0 75 -24t13 -66q-10 -49 -51.5 -76t-117.5 -27z" />
    <glyph glyph-name="ccircumflex" unicode="&#x109;" horiz-adv-x="474" 
d="M165 521l158 161h76l91 -161h-84l-55 101l-95 -101h-91zM236 -10q-115 0 -170 63.5t-30 183.5q26 125 105.5 186t205.5 61q49 0 81 -7t60 -22l-17 -81q-46 26 -120 26q-82 0 -134 -36.5t-71 -126.5q-18 -85 9 -124.5t124 -39.5q71 0 135 27l-18 -83q-36 -13 -75 -20
t-85 -7z" />
    <glyph glyph-name="cdotaccent" unicode="&#x10b;" horiz-adv-x="474" 
d="M293 545l19 88h92l-19 -88h-92zM236 -10q-115 0 -170 63.5t-30 183.5q26 125 105.5 186t205.5 61q49 0 81 -7t60 -22l-17 -81q-46 26 -120 26q-82 0 -134 -36.5t-71 -126.5q-18 -85 9 -124.5t124 -39.5q71 0 135 27l-18 -83q-36 -13 -75 -20t-85 -7z" />
    <glyph glyph-name="d" unicode="d" horiz-adv-x="583" 
d="M200 -10q-61 0 -104.5 25.5t-60.5 79.5t1 140q28 128 99.5 188.5t174.5 60.5q87 0 138 -41l49 231h109l-143 -674h-93l2 47q-38 -29 -79 -43t-93 -14zM247 72q73 0 132 50l51 237q-37 42 -109 42q-64 0 -110 -39.5t-65 -127.5q-18 -85 3.5 -123.5t97.5 -38.5z" />
    <glyph glyph-name="eth" unicode="&#xf0;" horiz-adv-x="574" 
d="M227 -10q-125 0 -172 56t-27 151q22 101 91.5 153.5t175.5 52.5q38 0 79.5 -12.5t70.5 -38.5l9 41q8 38 11 68t-2 52l-144 -57l12 56l108 43q-28 25 -98 25q-43 0 -79 -7t-70 -18l16 75q35 11 76.5 17.5t87.5 6.5q57 0 96.5 -16.5t62.5 -45.5l100 40l-12 -57l-65 -26
q22 -67 1 -167l-31 -143q-18 -86 -53.5 -141t-94.5 -81.5t-149 -26.5zM243 66q71 0 113.5 35t58.5 109l15 72q-25 21 -59 35t-71 14q-80 0 -120 -36t-54 -98q-13 -61 12.5 -96t104.5 -35z" />
    <glyph glyph-name="dcaron" unicode="&#x10f;" horiz-adv-x="698" 
d="M201 -10q-79 0 -126 39t-47 124q0 95 37 170t101 118t145 43q87 0 138 -41l49 231h109l-143 -674h-93l3 47q-39 -29 -80 -43t-93 -14zM625 485l69 189h90l-86 -189h-73zM248 72q73 0 133 50l50 237q-37 42 -109 42q-54 0 -95 -29t-64 -81t-23 -121q0 -51 27 -74.5
t81 -23.5z" />
    <glyph glyph-name="dcroat" unicode="&#x111;" horiz-adv-x="583" 
d="M200 -10q-61 0 -104.5 25.5t-60.5 79.5t1 140q28 128 99.5 188.5t174.5 60.5q87 0 138 -41l19 92h-162l17 78h162l13 61h109l-13 -61h49l-17 -78h-49l-113 -535h-93l2 47q-38 -29 -79 -43t-93 -14zM247 72q73 0 132 50l51 237q-37 42 -109 42q-64 0 -110 -39.5
t-65 -127.5q-18 -85 3.5 -123.5t97.5 -38.5z" />
    <glyph glyph-name="uni1E0D" unicode="&#x1e0d;" horiz-adv-x="583" 
d="M200 -10q-61 0 -104.5 25.5t-60.5 79.5t1 140q28 128 99.5 188.5t174.5 60.5q87 0 138 -41l49 231h109l-143 -674h-93l2 47q-38 -29 -79 -43t-93 -14zM247 72q73 0 132 50l51 237q-37 42 -109 42q-64 0 -110 -39.5t-65 -127.5q-18 -85 3.5 -123.5t97.5 -38.5zM157 -173
l18 88h94l-18 -88h-94z" />
    <glyph glyph-name="uni1E0F" unicode="&#x1e0f;" horiz-adv-x="583" 
d="M200 -10q-61 0 -104.5 25.5t-60.5 79.5t1 140q28 128 99.5 188.5t174.5 60.5q87 0 138 -41l49 231h109l-143 -674h-93l2 47q-38 -29 -79 -43t-93 -14zM247 72q73 0 132 50l51 237q-37 42 -109 42q-64 0 -110 -39.5t-65 -127.5q-18 -85 3.5 -123.5t97.5 -38.5zM60 -164
l15 71h297l-15 -71h-297z" />
    <glyph glyph-name="e" unicode="e" horiz-adv-x="538" 
d="M244 -10q-78 0 -130.5 27t-73.5 82t-3 139q24 114 91.5 180t194.5 66q71 0 113 -27t57.5 -73t3.5 -102l-18 -88h-347q-7 -69 26 -95t126 -26q36 0 75 7t70 18l-17 -80q-35 -14 -78 -21t-90 -7zM147 265h251l7 33q11 49 -8.5 76.5t-87.5 27.5q-76 0 -111.5 -33t-50.5 -104
z" />
    <glyph glyph-name="eacute" unicode="&#xe9;" horiz-adv-x="538" 
d="M280 522l113 177h96l-122 -177h-87zM244 -10q-78 0 -130.5 27t-73.5 82t-3 139q24 114 91.5 180t194.5 66q71 0 113 -27t57.5 -73t3.5 -102l-18 -88h-347q-7 -69 26 -95t126 -26q36 0 75 7t70 18l-17 -80q-35 -14 -78 -21t-90 -7zM147 265h251l7 33q11 49 -8.5 76.5
t-87.5 27.5q-76 0 -111.5 -33t-50.5 -104z" />
    <glyph glyph-name="ebreve" unicode="&#x115;" horiz-adv-x="538" 
d="M329 522q-66 0 -94.5 38.5t-15.5 102.5h70q-7 -34 3 -55t48 -21q34 0 56.5 21t29.5 55h77q-13 -64 -60 -102.5t-114 -38.5zM244 -10q-78 0 -130.5 27t-73.5 82t-3 139q24 114 91.5 180t194.5 66q71 0 113 -27t57.5 -73t3.5 -102l-18 -88h-347q-7 -69 26 -95t126 -26
q36 0 75 7t70 18l-17 -80q-35 -14 -78 -21t-90 -7zM147 265h251l7 33q11 49 -8.5 76.5t-87.5 27.5q-76 0 -111.5 -33t-50.5 -104z" />
    <glyph glyph-name="ecaron" unicode="&#x11b;" horiz-adv-x="538" 
d="M297 521l-90 161h85l53 -101l97 101h90l-159 -161h-76zM244 -10q-78 0 -130.5 27t-73.5 82t-3 139q24 114 91.5 180t194.5 66q71 0 113 -27t57.5 -73t3.5 -102l-18 -88h-347q-7 -69 26 -95t126 -26q36 0 75 7t70 18l-17 -80q-35 -14 -78 -21t-90 -7zM147 265h251l7 33
q11 49 -8.5 76.5t-87.5 27.5q-76 0 -111.5 -33t-50.5 -104z" />
    <glyph glyph-name="ecircumflex" unicode="&#xea;" horiz-adv-x="538" 
d="M164 521l158 161h76l91 -161h-84l-55 101l-95 -101h-91zM244 -10q-78 0 -130.5 27t-73.5 82t-3 139q24 114 91.5 180t194.5 66q71 0 113 -27t57.5 -73t3.5 -102l-18 -88h-347q-7 -69 26 -95t126 -26q36 0 75 7t70 18l-17 -80q-35 -14 -78 -21t-90 -7zM147 265h251l7 33
q11 49 -8.5 76.5t-87.5 27.5q-76 0 -111.5 -33t-50.5 -104z" />
    <glyph glyph-name="uni1EBF" unicode="&#x1ebf;" horiz-adv-x="537" 
d="M446 633l92 133h83l-98 -133h-77zM170 520l146 127h84l92 -127h-86l-54 82l-88 -82h-94zM244 -10q-78 0 -130.5 27t-73.5 82t-3 139q24 114 91.5 180t194.5 66q71 0 113 -27t57.5 -73t3.5 -102l-18 -88h-347q-7 -69 26 -95t126 -26q36 0 75 7t70 18l-17 -80
q-35 -14 -78 -21t-90 -7zM147 265h251l7 33q11 49 -8.5 76.5t-87.5 27.5q-76 0 -111.5 -33t-50.5 -104z" />
    <glyph glyph-name="uni1EC7" unicode="&#x1ec7;" horiz-adv-x="538" 
d="M166 521l158 161h76l91 -161h-84l-55 101l-95 -101h-91zM244 -10q-78 0 -130.5 27t-73.5 82t-3 139q24 114 91.5 180t194.5 66q71 0 113 -27t57.5 -73t3.5 -102l-18 -88h-347q-7 -69 26 -95t126 -26q36 0 75 7t70 18l-17 -80q-35 -14 -78 -21t-90 -7zM147 265h251l7 33
q11 49 -8.5 76.5t-87.5 27.5q-76 0 -111.5 -33t-50.5 -104zM136 -173l18 88h94l-18 -88h-94z" />
    <glyph glyph-name="uni1EC1" unicode="&#x1ec1;" horiz-adv-x="538" 
d="M197 646l-42 133h84l35 -133h-77zM180 533l145 127h85l90 -127h-86l-53 82l-89 -82h-92zM244 -10q-78 0 -130.5 27t-73.5 82t-3 139q24 114 91.5 180t194.5 66q71 0 113 -27t57.5 -73t3.5 -102l-18 -88h-347q-7 -69 26 -95t126 -26q36 0 75 7t70 18l-17 -80
q-35 -14 -78 -21t-90 -7zM147 265h251l7 33q11 49 -8.5 76.5t-87.5 27.5q-76 0 -111.5 -33t-50.5 -104z" />
    <glyph glyph-name="uni1EC3" unicode="&#x1ec3;" horiz-adv-x="537" 
d="M446 612l14 66q48 2 64 11.5t20 27.5q7 31 -40 31q-16 0 -30 -3.5t-28 -8.5l12 53q16 5 34.5 8.5t43.5 3.5q49 0 72 -21.5t15 -56.5q-7 -33 -29.5 -52t-64.5 -25l-7 -34h-76zM166 520l145 127h85l91 -127h-86l-53 82l-89 -82h-93zM244 -10q-78 0 -130.5 27t-73.5 82
t-3 139q24 114 91.5 180t194.5 66q71 0 113 -27t57.5 -73t3.5 -102l-18 -88h-347q-7 -69 26 -95t126 -26q36 0 75 7t70 18l-17 -80q-35 -14 -78 -21t-90 -7zM147 265h251l7 33q11 49 -8.5 76.5t-87.5 27.5q-76 0 -111.5 -33t-50.5 -104z" />
    <glyph glyph-name="uni1EC5" unicode="&#x1ec5;" horiz-adv-x="538" 
d="M442 656q-26 0 -49.5 9.5t-45 19t-44.5 9.5q-25 0 -47.5 -8t-42.5 -27l15 71q15 13 39.5 21t48.5 8q28 0 50 -9t43 -18.5t46 -9.5q51 0 84 35l-16 -71q-12 -13 -33.5 -21.5t-47.5 -8.5zM170 521l145 127h85l91 -127h-86l-53 82l-89 -82h-93zM244 -10q-78 0 -130.5 27
t-73.5 82t-3 139q24 114 91.5 180t194.5 66q71 0 113 -27t57.5 -73t3.5 -102l-18 -88h-347q-7 -69 26 -95t126 -26q36 0 75 7t70 18l-17 -80q-35 -14 -78 -21t-90 -7zM147 265h251l7 33q11 49 -8.5 76.5t-87.5 27.5q-76 0 -111.5 -33t-50.5 -104z" />
    <glyph glyph-name="edieresis" unicode="&#xeb;" horiz-adv-x="538" 
d="M192 546l19 86h91l-19 -86h-91zM377 546l19 86h92l-19 -86h-92zM244 -10q-78 0 -130.5 27t-73.5 82t-3 139q24 114 91.5 180t194.5 66q71 0 113 -27t57.5 -73t3.5 -102l-18 -88h-347q-7 -69 26 -95t126 -26q36 0 75 7t70 18l-17 -80q-35 -14 -78 -21t-90 -7zM147 265h251
l7 33q11 49 -8.5 76.5t-87.5 27.5q-76 0 -111.5 -33t-50.5 -104z" />
    <glyph glyph-name="edotaccent" unicode="&#x117;" horiz-adv-x="538" 
d="M287 545l19 88h92l-19 -88h-92zM244 -10q-78 0 -130.5 27t-73.5 82t-3 139q24 114 91.5 180t194.5 66q71 0 113 -27t57.5 -73t3.5 -102l-18 -88h-347q-7 -69 26 -95t126 -26q36 0 75 7t70 18l-17 -80q-35 -14 -78 -21t-90 -7zM147 265h251l7 33q11 49 -8.5 76.5
t-87.5 27.5q-76 0 -111.5 -33t-50.5 -104z" />
    <glyph glyph-name="uni1EB9" unicode="&#x1eb9;" horiz-adv-x="538" 
d="M244 -10q-78 0 -130.5 27t-73.5 82t-3 139q24 114 91.5 180t194.5 66q71 0 113 -27t57.5 -73t3.5 -102l-18 -88h-347q-7 -69 26 -95t126 -26q36 0 75 7t70 18l-17 -80q-35 -14 -78 -21t-90 -7zM147 265h251l7 33q11 49 -8.5 76.5t-87.5 27.5q-76 0 -111.5 -33t-50.5 -104
zM136 -173l18 88h94l-18 -88h-94z" />
    <glyph glyph-name="egrave" unicode="&#xe8;" horiz-adv-x="538" 
d="M284 522l-45 177h95l38 -177h-88zM244 -10q-78 0 -130.5 27t-73.5 82t-3 139q24 114 91.5 180t194.5 66q71 0 113 -27t57.5 -73t3.5 -102l-18 -88h-347q-7 -69 26 -95t126 -26q36 0 75 7t70 18l-17 -80q-35 -14 -78 -21t-90 -7zM147 265h251l7 33q11 49 -8.5 76.5
t-87.5 27.5q-76 0 -111.5 -33t-50.5 -104z" />
    <glyph glyph-name="uni1EBB" unicode="&#x1ebb;" horiz-adv-x="538" 
d="M287 521l18 82q58 3 78 14t25 36q8 42 -66 42q-15 0 -33.5 -3.5t-32.5 -8.5l12 59q18 6 44.5 9.5t51.5 3.5q62 0 89 -25t17 -68q-8 -41 -32.5 -63.5t-75.5 -30.5l-10 -47h-85zM244 -10q-78 0 -130.5 27t-73.5 82t-3 139q24 114 91.5 180t194.5 66q71 0 113 -27t57.5 -73
t3.5 -102l-18 -88h-347q-7 -69 26 -95t126 -26q36 0 75 7t70 18l-17 -80q-35 -14 -78 -21t-90 -7zM147 265h251l7 33q11 49 -8.5 76.5t-87.5 27.5q-76 0 -111.5 -33t-50.5 -104z" />
    <glyph glyph-name="emacron" unicode="&#x113;" horiz-adv-x="538" 
d="M196 555l15 71h297l-15 -71h-297zM244 -10q-78 0 -130.5 27t-73.5 82t-3 139q24 114 91.5 180t194.5 66q71 0 113 -27t57.5 -73t3.5 -102l-18 -88h-347q-7 -69 26 -95t126 -26q36 0 75 7t70 18l-17 -80q-35 -14 -78 -21t-90 -7zM147 265h251l7 33q11 49 -8.5 76.5
t-87.5 27.5q-76 0 -111.5 -33t-50.5 -104z" />
    <glyph glyph-name="eogonek" unicode="&#x119;" horiz-adv-x="538" 
d="M255 -220q-43 0 -70.5 21.5t-17.5 67.5q8 35 30.5 66.5t55.5 54.5h-9q-78 0 -130.5 27t-73.5 82t-3 139q24 114 91.5 180t194.5 66q71 0 113 -27t57.5 -73t3.5 -102l-18 -88h-347q-7 -69 26 -95t126 -26q36 0 75 7t70 18l-17 -80q-28 -12 -63 -18q-37 -25 -61 -53.5
t-30 -58.5q-5 -23 5.5 -31.5t32.5 -8.5q12 0 27 3t25 8l-14 -66q-14 -6 -35.5 -9.5t-43.5 -3.5zM147 265h251l7 33q11 49 -8.5 76.5t-87.5 27.5q-76 0 -111.5 -33t-50.5 -104z" />
    <glyph glyph-name="uni1EBD" unicode="&#x1ebd;" horiz-adv-x="538" 
d="M413 537q-27 0 -51 10t-46.5 19.5t-45.5 9.5q-26 0 -49.5 -8t-45.5 -28l17 80q16 14 41 22t50 8q29 0 52 -9.5t45 -19.5t48 -10q53 0 88 37l-17 -80q-13 -13 -36 -22t-50 -9zM244 -10q-78 0 -130.5 27t-73.5 82t-3 139q24 114 91.5 180t194.5 66q71 0 113 -27t57.5 -73
t3.5 -102l-18 -88h-347q-7 -69 26 -95t126 -26q36 0 75 7t70 18l-17 -80q-35 -14 -78 -21t-90 -7zM147 265h251l7 33q11 49 -8.5 76.5t-87.5 27.5q-76 0 -111.5 -33t-50.5 -104z" />
    <glyph glyph-name="uni0259" unicode="&#x259;" horiz-adv-x="537" 
d="M201 -10q-105 0 -149 57t-25 145l19 87h347q4 46 -7.5 72.5t-45.5 37.5t-99 11q-36 0 -75 -6.5t-71 -18.5l17 80q72 29 168 29q122 0 178 -61t29 -188q-24 -113 -91 -179t-195 -66zM216 71q76 0 111.5 33.5t50.5 103.5h-251l-7 -32q-7 -33 -2.5 -56.5t27.5 -36t71 -12.5z
" />
    <glyph glyph-name="f" unicode="f" horiz-adv-x="361" 
d="M36 0l82 389h-69l18 85h69l13 58q15 71 60 114.5t130 43.5q29 0 52 -4.5t42 -12.5l-17 -78q-30 11 -61 11q-47 0 -68.5 -17t-30.5 -58l-12 -57h124l-23 -85h-119l-82 -389h-108z" />
    <glyph glyph-name="g" unicode="g" horiz-adv-x="583" 
d="M168 -176q-16 0 -40 1.5t-46.5 3.5t-35.5 5l19 87q20 -7 51 -10t52 -3q73 0 122 22t60 74l8 36q-68 -40 -155 -40q-63 0 -108 23.5t-62.5 74t-1.5 129.5q26 122 97.5 189.5t173.5 67.5q52 0 86.5 -14t60.5 -43l17 47h93l-96 -453q-19 -87 -90 -142t-205 -55zM248 82
q38 0 69.5 11.5t58.5 30.5l48 227q-38 50 -110 50q-67 0 -111.5 -45.5t-61.5 -127.5q-12 -58 -6 -90t33.5 -44t79.5 -12z" />
    <glyph glyph-name="gbreve" unicode="&#x11f;" horiz-adv-x="583" 
d="M317 522q-66 0 -94.5 38.5t-15.5 102.5h70q-7 -34 3 -55t48 -21q34 0 56.5 21t29.5 55h77q-13 -64 -60 -102.5t-114 -38.5zM168 -176q-16 0 -40 1.5t-46.5 3.5t-35.5 5l19 87q20 -7 51 -10t52 -3q73 0 122 22t60 74l8 36q-68 -40 -155 -40q-63 0 -108 23.5t-62.5 74
t-1.5 129.5q26 122 97.5 189.5t173.5 67.5q52 0 86.5 -14t60.5 -43l17 47h93l-96 -453q-19 -87 -90 -142t-205 -55zM248 82q38 0 69.5 11.5t58.5 30.5l48 227q-38 50 -110 50q-67 0 -111.5 -45.5t-61.5 -127.5q-12 -58 -6 -90t33.5 -44t79.5 -12z" />
    <glyph glyph-name="gcaron" unicode="&#x1e7;" horiz-adv-x="583" 
d="M298 521l-90 161h85l53 -101l97 101h90l-159 -161h-76zM168 -176q-16 0 -40 1.5t-46.5 3.5t-35.5 5l19 87q20 -7 51 -10t52 -3q73 0 122 22t60 74l8 36q-68 -40 -155 -40q-63 0 -108 23.5t-62.5 74t-1.5 129.5q26 122 97.5 189.5t173.5 67.5q52 0 86.5 -14t60.5 -43
l17 47h93l-96 -453q-19 -87 -90 -142t-205 -55zM248 82q38 0 69.5 11.5t58.5 30.5l48 227q-38 50 -110 50q-67 0 -111.5 -45.5t-61.5 -127.5q-12 -58 -6 -90t33.5 -44t79.5 -12z" />
    <glyph glyph-name="gcircumflex" unicode="&#x11d;" horiz-adv-x="583" 
d="M157 521l158 161h76l91 -161h-84l-55 101l-95 -101h-91zM168 -176q-16 0 -40 1.5t-46.5 3.5t-35.5 5l19 87q20 -7 51 -10t52 -3q73 0 122 22t60 74l8 36q-68 -40 -155 -40q-63 0 -108 23.5t-62.5 74t-1.5 129.5q26 122 97.5 189.5t173.5 67.5q52 0 86.5 -14t60.5 -43
l17 47h93l-96 -453q-19 -87 -90 -142t-205 -55zM248 82q38 0 69.5 11.5t58.5 30.5l48 227q-38 50 -110 50q-67 0 -111.5 -45.5t-61.5 -127.5q-12 -58 -6 -90t33.5 -44t79.5 -12z" />
    <glyph glyph-name="uni0123" unicode="&#x123;" horiz-adv-x="583" 
d="M266 522l87 189h72l-69 -189h-90zM168 -176q-16 0 -40 1.5t-46.5 3.5t-35.5 5l19 87q20 -7 51 -10t52 -3q73 0 122 22t60 74l8 36q-68 -40 -155 -40q-63 0 -108 23.5t-62.5 74t-1.5 129.5q26 122 97.5 189.5t173.5 67.5q52 0 86.5 -14t60.5 -43l17 47h93l-96 -453
q-19 -87 -90 -142t-205 -55zM248 82q38 0 69.5 11.5t58.5 30.5l48 227q-38 50 -110 50q-67 0 -111.5 -45.5t-61.5 -127.5q-12 -58 -6 -90t33.5 -44t79.5 -12z" />
    <glyph glyph-name="gdotaccent" unicode="&#x121;" horiz-adv-x="583" 
d="M268 537l19 88h92l-19 -88h-92zM168 -176q-16 0 -40 1.5t-46.5 3.5t-35.5 5l19 87q20 -7 51 -10t52 -3q73 0 122 22t60 74l8 36q-68 -40 -155 -40q-63 0 -108 23.5t-62.5 74t-1.5 129.5q26 122 97.5 189.5t173.5 67.5q52 0 86.5 -14t60.5 -43l17 47h93l-96 -453
q-19 -87 -90 -142t-205 -55zM248 82q38 0 69.5 11.5t58.5 30.5l48 227q-38 50 -110 50q-67 0 -111.5 -45.5t-61.5 -127.5q-12 -58 -6 -90t33.5 -44t79.5 -12z" />
    <glyph glyph-name="uni1E21" unicode="&#x1e21;" horiz-adv-x="583" 
d="M188 551l15 71h297l-15 -71h-297zM168 -176q-16 0 -40 1.5t-46.5 3.5t-35.5 5l19 87q20 -7 51 -10t52 -3q73 0 122 22t60 74l8 36q-68 -40 -155 -40q-63 0 -108 23.5t-62.5 74t-1.5 129.5q26 122 97.5 189.5t173.5 67.5q52 0 86.5 -14t60.5 -43l17 47h93l-96 -453
q-19 -87 -90 -142t-205 -55zM248 82q38 0 69.5 11.5t58.5 30.5l48 227q-38 50 -110 50q-67 0 -111.5 -45.5t-61.5 -127.5q-12 -58 -6 -90t33.5 -44t79.5 -12z" />
    <glyph glyph-name="h" unicode="h" horiz-adv-x="578" 
d="M6 0l143 674h109l-53 -246q36 25 82.5 40.5t100.5 15.5q86 0 121.5 -45.5t17.5 -131.5l-65 -307h-108l64 302q11 55 -5.5 77t-78.5 22q-36 0 -76.5 -15.5t-69.5 -40.5l-73 -345h-109z" />
    <glyph glyph-name="hbar" unicode="&#x127;" horiz-adv-x="588" 
d="M16 0l113 536h-54l17 79h54l13 59h109l-13 -59h149l-17 -79h-149l-23 -108q36 25 82.5 40.5t100.5 15.5q86 0 121.5 -45.5t17.5 -131.5l-65 -307h-108l64 302q11 55 -5.5 77t-78.5 22q-36 0 -76.5 -15.5t-69.5 -40.5l-73 -345h-109z" />
    <glyph glyph-name="uni1E2B" unicode="&#x1e2b;" horiz-adv-x="578" 
d="M6 0l143 674h109l-53 -246q36 25 82.5 40.5t100.5 15.5q86 0 121.5 -45.5t17.5 -131.5l-65 -307h-108l64 302q11 55 -5.5 77t-78.5 22q-36 0 -76.5 -15.5t-69.5 -40.5l-73 -345h-109zM197 -207q-66 0 -95.5 38.5t-15.5 103.5h71q-7 -35 3 -56t47 -21q34 0 56.5 21
t29.5 56h77q-14 -65 -60.5 -103.5t-112.5 -38.5z" />
    <glyph glyph-name="hcircumflex" unicode="&#x125;" horiz-adv-x="578" 
d="M160 702l158 161h76l91 -161h-84l-55 101l-95 -101h-91zM6 0l143 674h109l-53 -246q36 25 82.5 40.5t100.5 15.5q86 0 121.5 -45.5t17.5 -131.5l-65 -307h-108l64 302q11 55 -5.5 77t-78.5 22q-36 0 -76.5 -15.5t-69.5 -40.5l-73 -345h-109z" />
    <glyph glyph-name="uni1E25" unicode="&#x1e25;" horiz-adv-x="578" 
d="M6 0l143 674h109l-53 -246q36 25 82.5 40.5t100.5 15.5q86 0 121.5 -45.5t17.5 -131.5l-65 -307h-108l64 302q11 55 -5.5 77t-78.5 22q-36 0 -76.5 -15.5t-69.5 -40.5l-73 -345h-109zM155 -173l18 88h94l-18 -88h-94z" />
    <glyph glyph-name="i" unicode="i" horiz-adv-x="284" 
d="M167 573l19 90h119l-19 -90h-119zM55 0l83 391h-72l27 83h171l-100 -474h-109z" />
    <glyph glyph-name="dotlessi" unicode="&#x131;" horiz-adv-x="308" 
d="M78 0l83 391h-72l27 83h171l-100 -474h-109z" />
    <glyph glyph-name="iacute" unicode="&#xed;" horiz-adv-x="308" 
d="M187 522l113 177h96l-122 -177h-87zM78 0l83 391h-72l27 83h171l-100 -474h-109z" />
    <glyph glyph-name="ibreve" unicode="&#x12d;" horiz-adv-x="308" 
d="M216 521q-66 0 -95.5 38.5t-15.5 103.5h70q-7 -35 3 -56t47 -21q34 0 57 21t30 56h78q-14 -65 -58 -103.5t-116 -38.5zM79 0l83 391h-72l27 83h171l-100 -474h-109z" />
    <glyph glyph-name="uni01D0" unicode="&#x1d0;" horiz-adv-x="307" 
d="M180 521l-90 161h85l53 -101l97 101h90l-159 -161h-76zM78 0l83 391h-72l27 83h171l-100 -474h-109z" />
    <glyph glyph-name="icircumflex" unicode="&#xee;" horiz-adv-x="307" 
d="M59 521l158 161h76l91 -161h-84l-55 101l-95 -101h-91zM78 0l83 391h-72l27 83h171l-100 -474h-109z" />
    <glyph glyph-name="idieresis" unicode="&#xef;" horiz-adv-x="308" 
d="M79 546l19 86h91l-19 -86h-91zM264 546l19 86h92l-19 -86h-92zM78 0l83 391h-72l27 83h171l-100 -474h-109z" />
    <glyph glyph-name="uni1ECB" unicode="&#x1ecb;" horiz-adv-x="307" 
d="M190 573l19 90h119l-19 -90h-119zM78 0l83 391h-72l27 83h171l-100 -474h-109zM50 -173l18 88h94l-18 -88h-94z" />
    <glyph glyph-name="igrave" unicode="&#xec;" horiz-adv-x="308" 
d="M199 522l-45 177h95l38 -177h-88zM78 0l83 391h-72l27 83h171l-100 -474h-109z" />
    <glyph glyph-name="uni1EC9" unicode="&#x1ec9;" horiz-adv-x="307" 
d="M171 521l18 82q58 3 78 14t25 36q8 42 -66 42q-15 0 -33.5 -3.5t-32.5 -8.5l12 59q18 6 44.5 9.5t51.5 3.5q62 0 89 -25t17 -68q-8 -41 -32.5 -63.5t-75.5 -30.5l-10 -47h-85zM78 0l83 391h-72l27 83h171l-100 -474h-109z" />
    <glyph glyph-name="ij" unicode="&#x133;" horiz-adv-x="543" 
d="M190 573l19 90h119l-19 -90h-119zM425 573l19 90h119l-19 -90h-119zM220 -234q-58 0 -96 16l17 79q15 -5 30.5 -7.5t28.5 -2.5q47 0 68.5 17t29.5 56l100 467h-72l27 83h170l-119 -560q-14 -67 -59 -107.5t-125 -40.5zM78 0l83 391h-72l27 83h171l-100 -474h-109z" />
    <glyph glyph-name="imacron" unicode="&#x12b;" horiz-adv-x="308" 
d="M69 565l15 71h298l-15 -71h-298zM78 0l83 391h-72l27 83h171l-100 -474h-109z" />
    <glyph glyph-name="iogonek" unicode="&#x12f;" horiz-adv-x="308" 
d="M190 573l19 90h119l-19 -90h-119zM78 -220q-43 0 -70.5 21.5t-17.5 67.5q8 38 35.5 73t65.5 58h-13l83 391h-72l27 83h171l-100 -474h-14q-37 -25 -61.5 -53.5t-30.5 -58.5q-5 -23 5.5 -31.5t32.5 -8.5q12 0 27 3t25 8l-14 -66q-14 -6 -35.5 -9.5t-43.5 -3.5z" />
    <glyph glyph-name="itilde" unicode="&#x129;" horiz-adv-x="308" 
d="M290 529q-27 0 -51 10t-46.5 19.5t-45.5 9.5q-26 0 -49.5 -8t-45.5 -28l17 80q16 14 41 22t50 8q29 0 52 -9.5t45 -19.5t48 -10q53 0 88 37l-17 -80q-13 -13 -36 -22t-50 -9zM78 0l83 391h-72l27 83h171l-100 -474h-109z" />
    <glyph glyph-name="j" unicode="j" horiz-adv-x="307" 
d="M190 573l19 90h119l-19 -90h-119zM-15 -234q-58 0 -96 16l17 79q15 -5 30.5 -7.5t28.5 -2.5q47 0 68.5 17t29.5 56l100 467h-72l27 83h170l-119 -560q-14 -67 -59 -107.5t-125 -40.5z" />
    <glyph glyph-name="uni0237" unicode="&#x237;" horiz-adv-x="305" 
d="M-17 -234q-58 0 -96 16l17 79q15 -5 30.5 -7.5t28.5 -2.5q47 0 68.5 17t29.5 56l100 467h-72l27 83h170l-119 -560q-14 -67 -61 -107.5t-123 -40.5z" />
    <glyph glyph-name="jcircumflex" unicode="&#x135;" horiz-adv-x="305" 
d="M61 521l158 161h76l91 -161h-84l-55 101l-95 -101h-91zM-17 -234q-58 0 -96 16l17 79q15 -5 30.5 -7.5t28.5 -2.5q47 0 68.5 17t29.5 56l100 467h-72l27 83h170l-119 -560q-14 -67 -61 -107.5t-123 -40.5z" />
    <glyph glyph-name="k" unicode="k" horiz-adv-x="537" 
d="M6 0l143 674h109l-83 -390l239 190h125l-233 -191l144 -283h-115l-110 225l-75 -60l-35 -165h-109z" />
    <glyph glyph-name="uni0137" unicode="&#x137;" horiz-adv-x="550" 
d="M6 0l143 674h109l-83 -390l239 190h125l-233 -191l144 -283h-115l-110 225l-75 -60l-35 -165h-109zM93 -226l69 189h90l-87 -189h-72z" />
    <glyph glyph-name="kgreenlandic" unicode="&#x138;" horiz-adv-x="551" 
d="M7 0l100 474h109l-44 -208l243 208h125l-236 -204l147 -270h-115l-112 211l-78 -66l-30 -145h-109z" />
    <glyph glyph-name="l" unicode="l" horiz-adv-x="280" 
d="M121 -10q-57 0 -80.5 30t-10.5 93l119 561h109l-117 -551q-6 -28 0 -38t29 -10q24 0 48 6l-17 -79q-20 -7 -38.5 -9.5t-41.5 -2.5z" />
    <glyph glyph-name="lacute" unicode="&#x13a;" horiz-adv-x="280" 
d="M169 732l113 177h96l-122 -177h-87zM121 -10q-57 0 -80.5 30t-10.5 93l119 561h109l-117 -551q-6 -28 0 -38t29 -10q24 0 48 6l-17 -79q-20 -7 -38.5 -9.5t-41.5 -2.5z" />
    <glyph glyph-name="lcaron" unicode="&#x13e;" horiz-adv-x="348" 
d="M122 -10q-58 0 -82 28.5t-10 94.5l119 561h109l-117 -551q-4 -22 0.5 -35t29.5 -13q23 0 47 6l-17 -79q-20 -7 -38 -9.5t-41 -2.5zM275 485l69 189h90l-86 -189h-73z" />
    <glyph glyph-name="uni013C" unicode="&#x13c;" horiz-adv-x="280" 
d="M121 -10q-57 0 -80.5 30t-10.5 93l119 561h109l-117 -551q-6 -28 0 -38t29 -10q24 0 48 6l-17 -79q-20 -7 -38.5 -9.5t-41.5 -2.5zM-1 -226l69 189h90l-87 -189h-72z" />
    <glyph glyph-name="ldot" unicode="&#x140;" horiz-adv-x="323" 
d="M121 -10q-57 0 -80.5 30t-10.5 93l119 561h109l-117 -551q-6 -28 0 -38t29 -10q24 0 48 6l-17 -79q-20 -7 -38.5 -9.5t-41.5 -2.5zM236 273l19 88h92l-19 -88h-92z" />
    <glyph glyph-name="uni1E37" unicode="&#x1e37;" horiz-adv-x="280" 
d="M121 -10q-57 0 -80.5 30t-10.5 93l119 561h109l-117 -551q-6 -28 0 -38t29 -10q24 0 48 6l-17 -79q-20 -7 -38.5 -9.5t-41.5 -2.5zM6 -173l18 88h94l-18 -88h-94z" />
    <glyph glyph-name="uni1E39" unicode="&#x1e39;" horiz-adv-x="279" 
d="M66 722l15 71h297l-15 -71h-297zM122 -10q-57 0 -80.5 30t-10.5 93l119 561h109l-117 -551q-6 -28 0 -38t29 -10q24 0 48 6l-17 -79q-20 -7 -38.5 -9.5t-41.5 -2.5zM7 -173l18 88h94l-18 -88h-94z" />
    <glyph glyph-name="uni1E3B" unicode="&#x1e3b;" horiz-adv-x="279" 
d="M121 -10q-57 0 -80.5 30t-10.5 93l119 561h109l-117 -551q-6 -28 0 -38t29 -10q24 0 48 6l-17 -79q-20 -7 -38.5 -9.5t-41.5 -2.5zM-93 -146l15 71h297l-15 -71h-297z" />
    <glyph glyph-name="lslash" unicode="&#x142;" horiz-adv-x="279" 
d="M121 -10q-58 0 -81.5 28.5t-9.5 94.5l34 161l-106 -42l18 84l106 42l67 316h109l-57 -268l119 48l-18 -84l-119 -48l-42 -199q-6 -28 1.5 -38t27.5 -10q24 0 48 6l-17 -79q-20 -7 -38.5 -9.5t-41.5 -2.5z" />
    <glyph glyph-name="m" unicode="m" horiz-adv-x="857" 
d="M7 0l100 474h100l-5 -50q41 28 86 44t93 16q51 0 75 -16.5t35 -45.5q39 27 85.5 44.5t106.5 17.5q77 0 110 -42t14 -129l-66 -313h-107l64 302q11 55 -5 77t-72 22q-34 0 -67.5 -12t-59.5 -36q0 -20 -6 -49l-64 -304h-101l63 301q11 52 -1.5 76t-62.5 24
q-35 0 -70.5 -16.5t-64.5 -39.5l-73 -345h-107z" />
    <glyph glyph-name="uni1E43" unicode="&#x1e43;" horiz-adv-x="857" 
d="M7 0l100 474h100l-5 -50q41 28 86 44t93 16q51 0 75 -16.5t35 -45.5q39 27 85.5 44.5t106.5 17.5q77 0 110 -42t14 -129l-66 -313h-107l64 302q11 55 -5 77t-72 22q-34 0 -67.5 -12t-59.5 -36q0 -20 -6 -49l-64 -304h-101l63 301q11 52 -1.5 76t-62.5 24
q-35 0 -70.5 -16.5t-64.5 -39.5l-73 -345h-107zM288 -173l18 88h94l-18 -88h-94z" />
    <glyph glyph-name="n" unicode="n" horiz-adv-x="579" 
d="M7 0l100 474h100l-5 -50q37 25 85 42.5t102 17.5q87 0 122 -46t17 -131l-65 -307h-108l64 302q11 55 -5 77t-81 22q-37 0 -76 -15t-68 -39l-73 -347h-109z" />
    <glyph glyph-name="nacute" unicode="&#x144;" horiz-adv-x="579" 
d="M285 522l113 177h96l-122 -177h-87zM7 0l100 474h100l-5 -50q37 25 85 42.5t102 17.5q87 0 122 -46t17 -131l-65 -307h-108l64 302q11 55 -5 77t-81 22q-37 0 -76 -15t-68 -39l-73 -347h-109z" />
    <glyph glyph-name="napostrophe" unicode="&#x149;" horiz-adv-x="634" 
d="M23 458l69 189h90l-87 -189h-72zM62 0l100 474h100l-5 -50q37 25 85 42.5t102 17.5q87 0 122 -46t17 -131l-65 -307h-108l64 302q11 55 -5 77t-81 22q-37 0 -76 -15t-68 -39l-73 -347h-109z" />
    <glyph glyph-name="ncaron" unicode="&#x148;" horiz-adv-x="579" 
d="M295 521l-90 161h85l53 -101l97 101h90l-159 -161h-76zM7 0l100 474h100l-5 -50q37 25 85 42.5t102 17.5q87 0 122 -46t17 -131l-65 -307h-108l64 302q11 55 -5 77t-81 22q-37 0 -76 -15t-68 -39l-73 -347h-109z" />
    <glyph glyph-name="uni0146" unicode="&#x146;" horiz-adv-x="579" 
d="M7 0l100 474h100l-5 -50q37 25 85 42.5t102 17.5q87 0 122 -46t17 -131l-65 -307h-108l64 302q11 55 -5 77t-81 22q-37 0 -76 -15t-68 -39l-73 -347h-109zM124 -226l69 189h90l-87 -189h-72z" />
    <glyph glyph-name="uni1E45" unicode="&#x1e45;" horiz-adv-x="579" 
d="M302 545l19 88h92l-19 -88h-92zM7 0l100 474h100l-5 -50q37 25 85 42.5t102 17.5q87 0 122 -46t17 -131l-65 -307h-108l64 302q11 55 -5 77t-81 22q-37 0 -76 -15t-68 -39l-73 -347h-109z" />
    <glyph glyph-name="uni1E47" unicode="&#x1e47;" horiz-adv-x="579" 
d="M7 0l100 474h100l-5 -50q37 25 85 42.5t102 17.5q87 0 122 -46t17 -131l-65 -307h-108l64 302q11 55 -5 77t-81 22q-37 0 -76 -15t-68 -39l-73 -347h-109zM155 -173l18 88h94l-18 -88h-94z" />
    <glyph glyph-name="eng" unicode="&#x14b;" horiz-adv-x="579" 
d="M259 -234q-58 0 -96 16l17 79q15 -5 30.5 -7.5t28.5 -2.5q47 0 69 17t30 56l81 378q11 55 -6.5 77t-79.5 22q-37 0 -76 -15t-68 -39l-73 -347h-109l100 474h100l-5 -50q37 25 85 42.5t102 17.5q92 0 125 -43t14 -134l-84 -393q-14 -67 -59.5 -107.5t-125.5 -40.5z" />
    <glyph glyph-name="uni1E49" unicode="&#x1e49;" horiz-adv-x="579" 
d="M7 0l100 474h100l-5 -50q37 25 85 42.5t102 17.5q87 0 122 -46t17 -131l-65 -307h-108l64 302q11 55 -5 77t-81 22q-37 0 -76 -15t-68 -39l-73 -347h-109zM57 -143l15 71h297l-15 -71h-297z" />
    <glyph glyph-name="ntilde" unicode="&#xf1;" horiz-adv-x="579" 
d="M430 537q-27 0 -51 10t-46.5 19.5t-45.5 9.5q-26 0 -49.5 -8t-45.5 -28l17 80q16 14 41 22t50 8q29 0 52 -9.5t45 -19.5t48 -10q53 0 88 37l-17 -80q-13 -13 -36 -22t-50 -9zM7 0l100 474h100l-5 -50q37 25 85 42.5t102 17.5q87 0 122 -46t17 -131l-65 -307h-108l64 302
q11 55 -5 77t-81 22q-37 0 -76 -15t-68 -39l-73 -347h-109z" />
    <glyph glyph-name="o" unicode="o" horiz-adv-x="581" 
d="M230 -10q-118 0 -168.5 64t-25.5 183t95 183t204 64q122 0 171.5 -64t24.5 -183t-95 -183t-206 -64zM250 82q75 0 114 36.5t57 118.5q17 82 -3 118t-102 36q-74 0 -113.5 -36t-56.5 -118q-18 -82 3.5 -118.5t100.5 -36.5z" />
    <glyph glyph-name="oacute" unicode="&#xf3;" horiz-adv-x="581" 
d="M296 522l113 177h96l-122 -177h-87zM230 -10q-118 0 -168.5 64t-25.5 183t95 183t204 64q122 0 171.5 -64t24.5 -183t-95 -183t-206 -64zM250 82q75 0 114 36.5t57 118.5q17 82 -3 118t-102 36q-74 0 -113.5 -36t-56.5 -118q-18 -82 3.5 -118.5t100.5 -36.5z" />
    <glyph glyph-name="obreve" unicode="&#x14f;" horiz-adv-x="581" 
d="M342 522q-66 0 -94.5 38.5t-15.5 102.5h70q-7 -34 3 -55t48 -21q34 0 56.5 21t29.5 55h77q-13 -64 -60 -102.5t-114 -38.5zM230 -10q-118 0 -168.5 64t-25.5 183t95 183t204 64q122 0 171.5 -64t24.5 -183t-95 -183t-206 -64zM250 82q75 0 114 36.5t57 118.5
q17 82 -3 118t-102 36q-74 0 -113.5 -36t-56.5 -118q-18 -82 3.5 -118.5t100.5 -36.5z" />
    <glyph glyph-name="uni01D2" unicode="&#x1d2;" horiz-adv-x="581" 
d="M305 521l-90 161h85l53 -101l97 101h90l-159 -161h-76zM230 -10q-118 0 -168.5 64t-25.5 183t95 183t204 64q122 0 171.5 -64t24.5 -183t-95 -183t-206 -64zM250 82q75 0 114 36.5t57 118.5q17 82 -3 118t-102 36q-74 0 -113.5 -36t-56.5 -118q-18 -82 3.5 -118.5
t100.5 -36.5z" />
    <glyph glyph-name="ocircumflex" unicode="&#xf4;" horiz-adv-x="581" 
d="M181 521l158 161h76l91 -161h-84l-55 101l-95 -101h-91zM230 -10q-118 0 -168.5 64t-25.5 183t95 183t204 64q122 0 171.5 -64t24.5 -183t-95 -183t-206 -64zM250 82q75 0 114 36.5t57 118.5q17 82 -3 118t-102 36q-74 0 -113.5 -36t-56.5 -118q-18 -82 3.5 -118.5
t100.5 -36.5z" />
    <glyph glyph-name="uni1ED1" unicode="&#x1ed1;" horiz-adv-x="581" 
d="M459 634l92 133h83l-98 -133h-77zM183 521l146 127h84l92 -127h-86l-54 82l-88 -82h-94zM230 -10q-118 0 -168.5 64t-25.5 183t95 183t204 64q122 0 171.5 -64t24.5 -183t-95 -183t-206 -64zM250 82q75 0 114 36.5t57 118.5q17 82 -3 118t-102 36q-74 0 -113.5 -36
t-56.5 -118q-18 -82 3.5 -118.5t100.5 -36.5z" />
    <glyph glyph-name="uni1ED9" unicode="&#x1ed9;" horiz-adv-x="581" 
d="M181 521l158 161h76l91 -161h-84l-55 101l-95 -101h-91zM230 -10q-118 0 -168.5 64t-25.5 183t95 183t204 64q122 0 171.5 -64t24.5 -183t-95 -183t-206 -64zM250 82q75 0 114 36.5t57 118.5q17 82 -3 118t-102 36q-74 0 -113.5 -36t-56.5 -118q-18 -82 3.5 -118.5
t100.5 -36.5zM150 -173l18 88h94l-18 -88h-94z" />
    <glyph glyph-name="uni1ED3" unicode="&#x1ed3;" horiz-adv-x="581" 
d="M195 634l-42 133h84l35 -133h-77zM178 521l145 127h85l90 -127h-86l-53 82l-89 -82h-92zM230 -10q-118 0 -168.5 64t-25.5 183t95 183t204 64q122 0 171.5 -64t24.5 -183t-95 -183t-206 -64zM250 82q75 0 114 36.5t57 118.5q17 82 -3 118t-102 36q-74 0 -113.5 -36
t-56.5 -118q-18 -82 3.5 -118.5t100.5 -36.5z" />
    <glyph glyph-name="uni1ED5" unicode="&#x1ed5;" horiz-adv-x="570" 
d="M461 613l14 66q48 2 64 11.5t20 27.5q7 31 -40 31q-16 0 -30 -3.5t-28 -8.5l12 53q16 5 34.5 8.5t43.5 3.5q49 0 72 -21.5t15 -56.5q-7 -33 -29.5 -52t-64.5 -25l-7 -34h-76zM181 521l145 127h85l91 -127h-86l-53 82l-89 -82h-93zM230 -10q-118 0 -168.5 64t-25.5 183
t95 183t204 64q122 0 171.5 -64t24.5 -183t-95 -183t-206 -64zM250 82q75 0 114 36.5t57 118.5q17 82 -3 118t-102 36q-74 0 -113.5 -36t-56.5 -118q-18 -82 3.5 -118.5t100.5 -36.5z" />
    <glyph glyph-name="uni1ED7" unicode="&#x1ed7;" horiz-adv-x="581" 
d="M450 656q-26 0 -49.5 9.5t-45 19t-44.5 9.5q-25 0 -47.5 -8t-42.5 -27l15 71q15 13 39.5 21t48.5 8q28 0 50 -9t43 -18.5t46 -9.5q51 0 84 35l-16 -71q-12 -13 -33.5 -21.5t-47.5 -8.5zM181 521l145 127h85l91 -127h-86l-53 82l-89 -82h-93zM230 -10q-118 0 -168.5 64
t-25.5 183t95 183t204 64q122 0 171.5 -64t24.5 -183t-95 -183t-206 -64zM250 82q75 0 114 36.5t57 118.5q17 82 -3 118t-102 36q-74 0 -113.5 -36t-56.5 -118q-18 -82 3.5 -118.5t100.5 -36.5z" />
    <glyph glyph-name="odieresis" unicode="&#xf6;" horiz-adv-x="581" 
d="M210 546l19 86h91l-19 -86h-91zM395 546l19 86h92l-19 -86h-92zM230 -10q-118 0 -168.5 64t-25.5 183t95 183t204 64q122 0 171.5 -64t24.5 -183t-95 -183t-206 -64zM250 82q75 0 114 36.5t57 118.5q17 82 -3 118t-102 36q-74 0 -113.5 -36t-56.5 -118
q-18 -82 3.5 -118.5t100.5 -36.5z" />
    <glyph glyph-name="uni1ECD" unicode="&#x1ecd;" horiz-adv-x="581" 
d="M230 -10q-118 0 -168.5 64t-25.5 183t95 183t204 64q122 0 171.5 -64t24.5 -183t-95 -183t-206 -64zM250 82q75 0 114 36.5t57 118.5q17 82 -3 118t-102 36q-74 0 -113.5 -36t-56.5 -118q-18 -82 3.5 -118.5t100.5 -36.5zM150 -173l18 88h94l-18 -88h-94z" />
    <glyph glyph-name="ograve" unicode="&#xf2;" horiz-adv-x="581" 
d="M305 522l-45 177h95l38 -177h-88zM230 -10q-118 0 -168.5 64t-25.5 183t95 183t204 64q122 0 171.5 -64t24.5 -183t-95 -183t-206 -64zM250 82q75 0 114 36.5t57 118.5q17 82 -3 118t-102 36q-74 0 -113.5 -36t-56.5 -118q-18 -82 3.5 -118.5t100.5 -36.5z" />
    <glyph glyph-name="uni1ECF" unicode="&#x1ecf;" horiz-adv-x="581" 
d="M302 521l18 82q58 3 78 14t25 36q8 42 -66 42q-15 0 -33.5 -3.5t-32.5 -8.5l12 59q18 6 44.5 9.5t51.5 3.5q62 0 89 -25t17 -68q-8 -41 -32.5 -63.5t-75.5 -30.5l-10 -47h-85zM230 -10q-118 0 -168.5 64t-25.5 183t95 183t204 64q122 0 171.5 -64t24.5 -183t-95 -183
t-206 -64zM250 82q75 0 114 36.5t57 118.5q17 82 -3 118t-102 36q-74 0 -113.5 -36t-56.5 -118q-18 -82 3.5 -118.5t100.5 -36.5z" />
    <glyph glyph-name="ohorn" unicode="&#x1a1;" horiz-adv-x="675" 
d="M230 -10q-128 0 -173.5 64t-20.5 183t98.5 183t200.5 64q65 0 107.5 -16.5t67.5 -48.5q57 1 82.5 27t38.5 90h84q-19 -94 -63 -137t-115 -53q3 -23 2 -50.5t-8 -58.5q-25 -119 -98.5 -183t-202.5 -64zM250 82q75 0 114 36.5t57 118.5q17 82 -6.5 118t-98.5 36
q-74 0 -113.5 -36t-56.5 -118q-18 -82 6 -118.5t98 -36.5z" />
    <glyph glyph-name="uni1EDB" unicode="&#x1edb;" horiz-adv-x="675" 
d="M307 522l113 177h96l-122 -177h-87zM230 -10q-128 0 -173.5 64t-20.5 183t98.5 183t200.5 64q65 0 107.5 -16.5t67.5 -48.5q57 1 82.5 27t38.5 90h84q-19 -94 -63 -137t-115 -53q3 -23 2 -50.5t-8 -58.5q-25 -119 -98.5 -183t-202.5 -64zM250 82q75 0 114 36.5t57 118.5
q17 82 -6.5 118t-98.5 36q-74 0 -113.5 -36t-56.5 -118q-18 -82 6 -118.5t98 -36.5z" />
    <glyph glyph-name="uni1EE3" unicode="&#x1ee3;" horiz-adv-x="675" 
d="M230 -10q-128 0 -173.5 64t-20.5 183t98.5 183t200.5 64q65 0 107.5 -16.5t67.5 -48.5q57 1 82.5 27t38.5 90h84q-19 -94 -63 -137t-115 -53q3 -23 2 -50.5t-8 -58.5q-25 -119 -98.5 -183t-202.5 -64zM250 82q75 0 114 36.5t57 118.5q17 82 -6.5 118t-98.5 36
q-74 0 -113.5 -36t-56.5 -118q-18 -82 6 -118.5t98 -36.5zM155 -173l18 88h94l-18 -88h-94z" />
    <glyph glyph-name="uni1EDD" unicode="&#x1edd;" horiz-adv-x="675" 
d="M315 522l-45 177h95l38 -177h-88zM230 -10q-128 0 -173.5 64t-20.5 183t98.5 183t200.5 64q65 0 107.5 -16.5t67.5 -48.5q57 1 82.5 27t38.5 90h84q-19 -94 -63 -137t-115 -53q3 -23 2 -50.5t-8 -58.5q-25 -119 -98.5 -183t-202.5 -64zM250 82q75 0 114 36.5t57 118.5
q17 82 -6.5 118t-98.5 36q-74 0 -113.5 -36t-56.5 -118q-18 -82 6 -118.5t98 -36.5z" />
    <glyph glyph-name="uni1EDF" unicode="&#x1edf;" horiz-adv-x="675" 
d="M299 521l18 82q58 3 78 14t25 36q8 42 -66 42q-15 0 -33.5 -3.5t-32.5 -8.5l12 59q18 6 44.5 9.5t51.5 3.5q62 0 89 -25t17 -68q-8 -41 -32.5 -63.5t-75.5 -30.5l-10 -47h-85zM230 -10q-128 0 -173.5 64t-20.5 183t98.5 183t200.5 64q65 0 107.5 -16.5t67.5 -48.5
q57 1 82.5 27t38.5 90h84q-19 -94 -63 -137t-115 -53q3 -23 2 -50.5t-8 -58.5q-25 -119 -98.5 -183t-202.5 -64zM250 82q75 0 114 36.5t57 118.5q17 82 -6.5 118t-98.5 36q-74 0 -113.5 -36t-56.5 -118q-18 -82 6 -118.5t98 -36.5z" />
    <glyph glyph-name="uni1EE1" unicode="&#x1ee1;" horiz-adv-x="675" 
d="M432 535q-27 0 -51 10t-46.5 19.5t-45.5 9.5q-26 0 -49.5 -8t-45.5 -28l17 80q16 14 41 22t50 8q29 0 52 -9.5t45 -19.5t48 -10q53 0 88 37l-17 -80q-13 -13 -36 -22t-50 -9zM230 -10q-128 0 -173.5 64t-20.5 183t98.5 183t200.5 64q65 0 107.5 -16.5t67.5 -48.5
q57 1 82.5 27t38.5 90h84q-19 -94 -63 -137t-115 -53q3 -23 2 -50.5t-8 -58.5q-25 -119 -98.5 -183t-202.5 -64zM250 82q75 0 114 36.5t57 118.5q17 82 -6.5 118t-98.5 36q-74 0 -113.5 -36t-56.5 -118q-18 -82 6 -118.5t98 -36.5z" />
    <glyph glyph-name="ohungarumlaut" unicode="&#x151;" horiz-adv-x="581" 
d="M189 521l110 164h98l-120 -164h-88zM405 521l110 164h99l-121 -164h-88zM230 -10q-118 0 -168.5 64t-25.5 183t95 183t204 64q122 0 171.5 -64t24.5 -183t-95 -183t-206 -64zM250 82q75 0 114 36.5t57 118.5q17 82 -3 118t-102 36q-74 0 -113.5 -36t-56.5 -118
q-18 -82 3.5 -118.5t100.5 -36.5z" />
    <glyph glyph-name="omacron" unicode="&#x14d;" horiz-adv-x="581" 
d="M199 555l15 71h297l-15 -71h-297zM230 -10q-118 0 -168.5 64t-25.5 183t95 183t204 64q122 0 171.5 -64t24.5 -183t-95 -183t-206 -64zM250 82q75 0 114 36.5t57 118.5q17 82 -3 118t-102 36q-74 0 -113.5 -36t-56.5 -118q-18 -82 3.5 -118.5t100.5 -36.5z" />
    <glyph glyph-name="oslash" unicode="&#xf8;" horiz-adv-x="581" 
d="M75 -54l39 66q-114 55 -78 225q25 119 95 183t204 64q14 0 27.5 -1t25.5 -3l28 48h74l-39 -66q58 -26 77.5 -83.5t2.5 -141.5q-25 -119 -95 -183t-206 -64q-14 0 -27.5 1t-25.5 3l-28 -48h-74zM166 101l169 289q-4 0 -9 0.5t-10 0.5q-74 0 -113 -36t-57 -118
q-11 -52 -7.5 -85.5t27.5 -50.5zM250 82q75 0 114 36.5t57 118.5q11 53 7.5 86.5t-29.5 49.5l-170 -290q5 -1 10.5 -1h10.5z" />
    <glyph glyph-name="oslashacute" unicode="&#x1ff;" horiz-adv-x="581" 
d="M281 522l113 177h96l-122 -177h-87zM75 -54l39 66q-114 55 -78 225q25 119 95 183t204 64q14 0 27.5 -1t25.5 -3l28 48h74l-39 -66q58 -26 77.5 -83.5t2.5 -141.5q-25 -119 -95 -183t-206 -64q-14 0 -27.5 1t-25.5 3l-28 -48h-74zM166 101l169 289q-4 0 -9 0.5t-10 0.5
q-74 0 -113 -36t-57 -118q-11 -52 -7.5 -85.5t27.5 -50.5zM250 82q75 0 114 36.5t57 118.5q11 53 7.5 86.5t-29.5 49.5l-170 -290q5 -1 10.5 -1h10.5z" />
    <glyph glyph-name="otilde" unicode="&#xf5;" horiz-adv-x="581" 
d="M428 545q-27 0 -51 10t-46.5 19.5t-45.5 9.5q-26 0 -49.5 -8t-45.5 -28l17 80q16 14 41 22t50 8q29 0 52 -9.5t45 -19.5t48 -10q53 0 88 37l-17 -80q-13 -13 -36 -22t-50 -9zM230 -10q-118 0 -168.5 64t-25.5 183t95 183t204 64q122 0 171.5 -64t24.5 -183t-95 -183
t-206 -64zM250 82q75 0 114 36.5t57 118.5q17 82 -3 118t-102 36q-74 0 -113.5 -36t-56.5 -118q-18 -82 3.5 -118.5t100.5 -36.5z" />
    <glyph glyph-name="oe" unicode="&#x153;" horiz-adv-x="927" 
d="M230 -10q-118 0 -168.5 64t-25.5 183t95 183t204 64q65 0 105.5 -18.5t64.5 -53.5q35 35 88 53.5t119 18.5q71 0 113 -27t57.5 -73t3.5 -102l-18 -88h-347q-7 -69 26 -95t126 -26q36 0 75 7t70 18l-17 -80q-35 -14 -78 -21t-90 -7q-64 0 -112 18.5t-74 55.5
q-37 -36 -90.5 -55t-126.5 -19zM536 265h251l7 33q11 49 -8.5 76.5t-87.5 27.5q-76 0 -111.5 -33t-50.5 -104zM250 82q75 0 114 36.5t57 118.5q17 82 -3 118t-102 36q-74 0 -113.5 -36t-56.5 -118q-18 -82 3.5 -118.5t100.5 -36.5z" />
    <glyph glyph-name="p" unicode="p" horiz-adv-x="583" 
d="M-39 -216l146 690h94l-4 -47q38 29 79 43t93 14q64 0 107 -26t59 -80.5t-2 -140.5q-27 -128 -94 -187.5t-179 -59.5q-86 0 -138 40l-52 -246h-109zM250 72q70 0 112 39t61 127q18 84 -1 123.5t-99 39.5q-74 0 -133 -50l-50 -237q18 -19 44.5 -30.5t65.5 -11.5z" />
    <glyph glyph-name="thorn" unicode="&#xfe;" horiz-adv-x="583" 
d="M-39 -216l194 916h109l-54 -257q69 41 158 41q98 0 144.5 -62.5t20.5 -184.5q-28 -128 -95.5 -187.5t-177.5 -59.5q-86 0 -138 40l-52 -246h-109zM250 72q70 0 112 39t61 127q18 84 -2.5 123.5t-97.5 39.5q-74 0 -133 -50l-50 -237q18 -19 44.5 -30.5t65.5 -11.5z" />
    <glyph glyph-name="q" unicode="q" horiz-adv-x="575" 
d="M428 -242q-59 0 -86 32t-13 100l30 140q-70 -40 -156 -40q-97 0 -144.5 62t-22.5 185q26 128 94.5 187.5t174.5 59.5q52 0 86.5 -14t60.5 -43l17 47h93l-122 -576q-7 -31 1 -43t38 -12q10 0 22 2t21 4l-16 -79q-19 -6 -36.5 -9t-41.5 -3zM249 72q39 0 70 11.5t58 30.5
l50 237q-38 50 -110 50q-73 0 -113 -39.5t-58 -123.5q-19 -88 5 -127t98 -39z" />
    <glyph glyph-name="r" unicode="r" horiz-adv-x="360" 
d="M7 0l100 474h100l-5 -55q38 22 88.5 40t98.5 25l-17 -83q-29 -5 -63.5 -14.5t-66.5 -21t-54 -23.5l-72 -342h-109z" />
    <glyph glyph-name="racute" unicode="&#x155;" horiz-adv-x="368" 
d="M122 522l113 177h96l-122 -177h-87zM7 0l100 474h100l-5 -55q38 22 88.5 40t98.5 25l-17 -83q-29 -5 -63.5 -14.5t-66.5 -21t-54 -23.5l-72 -342h-109z" />
    <glyph glyph-name="rcaron" unicode="&#x159;" horiz-adv-x="367" 
d="M151 521l-90 161h85l53 -101l97 101h90l-159 -161h-76zM6 0l100 474h100l-5 -55q38 22 88.5 40t98.5 25l-17 -83q-29 -5 -63.5 -14.5t-66.5 -21t-54 -23.5l-72 -342h-109z" />
    <glyph glyph-name="uni0157" unicode="&#x157;" horiz-adv-x="367" 
d="M6 0l100 474h100l-5 -55q38 22 88.5 40t98.5 25l-17 -83q-29 -5 -63.5 -14.5t-66.5 -21t-54 -23.5l-72 -342h-109zM-64 -226l69 189h90l-87 -189h-72z" />
    <glyph glyph-name="uni1E5B" unicode="&#x1e5b;" horiz-adv-x="368" 
d="M7 0l100 474h100l-5 -55q38 22 88.5 40t98.5 25l-17 -83q-29 -5 -63.5 -14.5t-66.5 -21t-54 -23.5l-72 -342h-109zM-23 -173l18 88h94l-18 -88h-94z" />
    <glyph glyph-name="uni1E5D" unicode="&#x1e5d;" horiz-adv-x="371" 
d="M71 551l15 71h297l-15 -71h-297zM10 0l100 474h100l-5 -55q38 22 88.5 40t98.5 25l-17 -83q-29 -5 -63.5 -14.5t-66.5 -21t-54 -23.5l-72 -342h-109zM-19 -173l18 88h94l-18 -88h-94z" />
    <glyph glyph-name="uni1E5F" unicode="&#x1e5f;" horiz-adv-x="367" 
d="M6 0l100 474h100l-5 -55q38 22 88.5 40t98.5 25l-17 -83q-29 -5 -63.5 -14.5t-66.5 -21t-54 -23.5l-72 -342h-109zM-110 -143l15 71h297l-15 -71h-297z" />
    <glyph glyph-name="s" unicode="s" horiz-adv-x="465" 
d="M162 -10q-49 0 -92 7t-70 17l20 92q31 -13 70.5 -20t76.5 -7q56 0 82 10t33 39q5 21 -7 33t-39 22t-68 24q-39 14 -66.5 30.5t-38.5 42.5t-3 68q14 65 66 100.5t161 35.5q41 0 76.5 -6t60.5 -15l-19 -91q-25 11 -58 17t-62 6q-52 0 -80 -9t-34 -36q-6 -28 19 -39.5
t82 -31.5q52 -17 81 -36t38 -45.5t0 -68.5q-15 -70 -68.5 -104.5t-160.5 -34.5z" />
    <glyph glyph-name="sacute" unicode="&#x15b;" horiz-adv-x="465" 
d="M232 522l113 177h96l-122 -177h-87zM162 -10q-49 0 -92 7t-70 17l20 92q31 -13 70.5 -20t76.5 -7q56 0 82 10t33 39q5 21 -7 33t-39 22t-68 24q-39 14 -66.5 30.5t-38.5 42.5t-3 68q14 65 66 100.5t161 35.5q41 0 76.5 -6t60.5 -15l-19 -91q-25 11 -58 17t-62 6
q-52 0 -80 -9t-34 -36q-6 -28 19 -39.5t82 -31.5q52 -17 81 -36t38 -45.5t0 -68.5q-15 -70 -68.5 -104.5t-160.5 -34.5z" />
    <glyph glyph-name="scaron" unicode="&#x161;" horiz-adv-x="465" 
d="M250 521l-90 161h85l53 -101l97 101h90l-159 -161h-76zM162 -10q-49 0 -92 7t-70 17l20 92q31 -13 70.5 -20t76.5 -7q56 0 82 10t33 39q5 21 -7 33t-39 22t-68 24q-39 14 -66.5 30.5t-38.5 42.5t-3 68q14 65 66 100.5t161 35.5q41 0 76.5 -6t60.5 -15l-19 -91
q-25 11 -58 17t-62 6q-52 0 -80 -9t-34 -36q-6 -28 19 -39.5t82 -31.5q52 -17 81 -36t38 -45.5t0 -68.5q-15 -70 -68.5 -104.5t-160.5 -34.5z" />
    <glyph glyph-name="scedilla" unicode="&#x15f;" horiz-adv-x="465" 
d="M102 -240q-16 0 -38 2.5t-33 5.5l13 59q27 -8 60 -8q45 0 66.5 8.5t27.5 36.5q5 28 -14 34.5t-58 6.5h-40l44 86q-40 2 -73.5 8t-56.5 15l20 92q31 -13 70.5 -20t76.5 -7q56 0 82 10t33 39q5 21 -7 33t-39 22t-68 24q-39 14 -66.5 30.5t-38.5 42.5t-3 68q14 65 66 100.5
t161 35.5q41 0 76.5 -6t60.5 -15l-19 -91q-25 11 -58 17t-62 6q-52 0 -80 -9t-34 -36q-6 -28 19 -39.5t82 -31.5q52 -17 81 -36t38 -45.5t0 -68.5q-13 -64 -57.5 -97.5t-130.5 -39.5l-20 -39q53 0 75 -24t13 -66q-10 -49 -51.5 -76t-117.5 -27z" />
    <glyph glyph-name="scircumflex" unicode="&#x15d;" horiz-adv-x="465" 
d="M129 526l158 161h76l91 -161h-84l-55 101l-95 -101h-91zM162 -10q-49 0 -92 7t-70 17l20 92q31 -13 70.5 -20t76.5 -7q56 0 82 10t33 39q5 21 -7 33t-39 22t-68 24q-39 14 -66.5 30.5t-38.5 42.5t-3 68q14 65 66 100.5t161 35.5q41 0 76.5 -6t60.5 -15l-19 -91
q-25 11 -58 17t-62 6q-52 0 -80 -9t-34 -36q-6 -28 19 -39.5t82 -31.5q52 -17 81 -36t38 -45.5t0 -68.5q-15 -70 -68.5 -104.5t-160.5 -34.5z" />
    <glyph glyph-name="uni0219" unicode="&#x219;" horiz-adv-x="465" 
d="M162 -10q-49 0 -92 7t-70 17l20 92q31 -13 70.5 -20t76.5 -7q56 0 82 10t33 39q5 21 -7 33t-39 22t-68 24q-39 14 -66.5 30.5t-38.5 42.5t-3 68q14 65 66 100.5t161 35.5q41 0 76.5 -6t60.5 -15l-19 -91q-25 11 -58 17t-62 6q-52 0 -80 -9t-34 -36q-6 -28 19 -39.5
t82 -31.5q52 -17 81 -36t38 -45.5t0 -68.5q-15 -70 -68.5 -104.5t-160.5 -34.5zM55 -223l65 173h95l-77 -173h-83z" />
    <glyph glyph-name="uni1E61" unicode="&#x1e61;" horiz-adv-x="465" 
d="M248 545l19 88h92l-19 -88h-92zM162 -10q-49 0 -92 7t-70 17l20 92q31 -13 70.5 -20t76.5 -7q56 0 82 10t33 39q5 21 -7 33t-39 22t-68 24q-39 14 -66.5 30.5t-38.5 42.5t-3 68q14 65 66 100.5t161 35.5q41 0 76.5 -6t60.5 -15l-19 -91q-25 11 -58 17t-62 6q-52 0 -80 -9
t-34 -36q-6 -28 19 -39.5t82 -31.5q52 -17 81 -36t38 -45.5t0 -68.5q-15 -70 -68.5 -104.5t-160.5 -34.5z" />
    <glyph glyph-name="uni1E63" unicode="&#x1e63;" horiz-adv-x="465" 
d="M162 -10q-49 0 -92 7t-70 17l20 92q31 -13 70.5 -20t76.5 -7q56 0 82 10t33 39q5 21 -7 33t-39 22t-68 24q-39 14 -66.5 30.5t-38.5 42.5t-3 68q14 65 66 100.5t161 35.5q41 0 76.5 -6t60.5 -15l-19 -91q-25 11 -58 17t-62 6q-52 0 -80 -9t-34 -36q-6 -28 19 -39.5
t82 -31.5q52 -17 81 -36t38 -45.5t0 -68.5q-15 -70 -68.5 -104.5t-160.5 -34.5zM101 -173l18 88h94l-18 -88h-94z" />
    <glyph glyph-name="germandbls" unicode="&#xdf;" horiz-adv-x="629" 
d="M322 -10q-85 0 -139 22l20 92q23 -11 54 -16.5t65 -5.5q53 0 90 28.5t49 82.5q11 56 -12 84t-89 28h-78l18 83h77q58 0 89.5 30.5t41.5 79.5q7 33 -1 57.5t-37 38t-86 13.5q-76 0 -120.5 -37t-61.5 -115l-96 -455h-105l97 458q24 113 100 177.5t205 64.5q84 0 133.5 -28
t67.5 -74t6 -100q-11 -55 -40 -96t-73 -59q45 -15 64 -58.5t8 -97.5q-19 -93 -83.5 -145t-163.5 -52z" />
    <glyph glyph-name="t" unicode="t" horiz-adv-x="360" 
d="M185 -10q-76 0 -105 40.5t-14 110.5l53 248h-70l18 85h70l23 109l115 33l-30 -142h126l-25 -85h-119l-51 -242q-10 -46 5 -60t60 -14q28 0 59 10l-16 -77q-44 -16 -99 -16z" />
    <glyph glyph-name="tbar" unicode="&#x167;" horiz-adv-x="364" 
d="M185 -10q-76 0 -105 40.5t-14 110.5l14 66h-66l16 75h66l23 107h-70l18 85h70l23 109l115 33l-30 -142h126l-25 -85h-119l-23 -107h125l-16 -75h-125l-12 -60q-9 -41 6.5 -57.5t58.5 -16.5q28 0 59 10l-16 -77q-44 -16 -99 -16z" />
    <glyph glyph-name="tcaron" unicode="&#x165;" horiz-adv-x="382" 
d="M371 559l69 189h90l-87 -189h-72zM185 -10q-76 0 -105 40.5t-14 110.5l53 248h-70l18 85h70l23 109l115 33l-30 -142h126l-25 -85h-119l-51 -242q-10 -46 5 -60t60 -14q28 0 59 10l-16 -77q-44 -16 -99 -16z" />
    <glyph glyph-name="uni0163" unicode="&#x163;" horiz-adv-x="374" 
d="M105 -240q-16 0 -38 2.5t-33 5.5l13 59q27 -8 60 -8q45 0 66.5 8.5t27.5 36.5q5 28 -14 34.5t-58 6.5h-40l46 91q-48 12 -65 49.5t-4 95.5l53 248h-70l18 85h70l23 109l115 33l-30 -142h126l-25 -85h-119l-51 -242q-10 -46 5 -60t60 -14q28 0 59 10l-16 -77
q-19 -7 -37.5 -10.5t-40.5 -4.5l-20 -38q53 0 75 -24t13 -66q-10 -49 -51.5 -76t-117.5 -27z" />
    <glyph glyph-name="uni021B" unicode="&#x21b;" horiz-adv-x="364" 
d="M185 -10q-76 0 -105 40.5t-14 110.5l53 248h-70l18 85h70l23 109l115 33l-30 -142h126l-25 -85h-119l-51 -242q-10 -46 5 -60t60 -14q28 0 59 10l-16 -77q-44 -16 -99 -16zM52 -234l69 189h90l-87 -189h-72z" />
    <glyph glyph-name="uni1E97" unicode="&#x1e97;" horiz-adv-x="364" 
d="M104 643l19 86h91l-19 -86h-91zM289 643l19 86h92l-19 -86h-92zM185 -10q-76 0 -105 40.5t-14 110.5l53 248h-70l18 85h70l23 109l115 33l-30 -142h126l-25 -85h-119l-51 -242q-10 -46 5 -60t60 -14q28 0 59 10l-16 -77q-44 -16 -99 -16z" />
    <glyph glyph-name="uni1E6D" unicode="&#x1e6d;" horiz-adv-x="364" 
d="M185 -10q-76 0 -105 40.5t-14 110.5l53 248h-70l18 85h70l23 109l115 33l-30 -142h126l-25 -85h-119l-51 -242q-10 -46 5 -60t60 -14q28 0 59 10l-16 -77q-44 -16 -99 -16zM87 -166l18 88h94l-18 -88h-94z" />
    <glyph glyph-name="uni1E6F" unicode="&#x1e6f;" horiz-adv-x="363" 
d="M185 -10q-76 0 -105 40.5t-14 110.5l53 248h-70l18 85h70l23 109l115 33l-30 -142h126l-25 -85h-119l-51 -242q-10 -46 5 -60t60 -14q28 0 59 10l-16 -77q-44 -16 -99 -16zM-34 -136l15 71h297l-15 -71h-297z" />
    <glyph glyph-name="u" unicode="u" horiz-adv-x="579" 
d="M175 -10q-79 0 -117 47t-19 138l63 299h109l-63 -299q-12 -58 7 -80.5t77 -22.5q40 0 77 15t67 40l74 347h108l-100 -474h-99l5 49q-37 -25 -85 -42t-104 -17z" />
    <glyph glyph-name="uacute" unicode="&#xfa;" horiz-adv-x="579" 
d="M282 522l113 177h96l-122 -177h-87zM175 -10q-79 0 -117 47t-19 138l63 299h109l-63 -299q-12 -58 7 -80.5t77 -22.5q40 0 77 15t67 40l74 347h108l-100 -474h-99l5 49q-37 -25 -85 -42t-104 -17z" />
    <glyph glyph-name="ubreve" unicode="&#x16d;" horiz-adv-x="579" 
d="M342 522q-66 0 -94.5 38.5t-15.5 102.5h70q-7 -34 3 -55t48 -21q34 0 56.5 21t29.5 55h77q-13 -64 -60 -102.5t-114 -38.5zM175 -10q-79 0 -117 47t-19 138l63 299h109l-63 -299q-12 -58 7 -80.5t77 -22.5q40 0 77 15t67 40l74 347h108l-100 -474h-99l5 49
q-37 -25 -85 -42t-104 -17z" />
    <glyph glyph-name="uni01D4" unicode="&#x1d4;" horiz-adv-x="579" 
d="M302 521l-90 161h85l53 -101l97 101h90l-159 -161h-76zM175 -10q-79 0 -117 47t-19 138l63 299h109l-63 -299q-12 -58 7 -80.5t77 -22.5q40 0 77 15t67 40l74 347h108l-100 -474h-99l5 49q-37 -25 -85 -42t-104 -17z" />
    <glyph glyph-name="ucircumflex" unicode="&#xfb;" horiz-adv-x="579" 
d="M177 521l158 161h76l91 -161h-84l-55 101l-95 -101h-91zM175 -10q-79 0 -117 47t-19 138l63 299h109l-63 -299q-12 -58 7 -80.5t77 -22.5q40 0 77 15t67 40l74 347h108l-100 -474h-99l5 49q-37 -25 -85 -42t-104 -17z" />
    <glyph glyph-name="udieresis" unicode="&#xfc;" horiz-adv-x="579" 
d="M204 544l19 86h91l-19 -86h-91zM389 544l19 86h92l-19 -86h-92zM175 -10q-79 0 -117 47t-19 138l63 299h109l-63 -299q-12 -58 7 -80.5t77 -22.5q40 0 77 15t67 40l74 347h108l-100 -474h-99l5 49q-37 -25 -85 -42t-104 -17z" />
    <glyph glyph-name="uni01D8" unicode="&#x1d8;" horiz-adv-x="579" 
d="M316 620l88 127h83l-94 -127h-77zM193 522l18 84h89l-18 -84h-89zM391 522l18 84h89l-18 -84h-89zM175 -10q-79 0 -117 47t-19 138l63 299h109l-63 -299q-12 -58 7 -80.5t77 -22.5q40 0 77 15t67 40l74 347h108l-100 -474h-99l5 49q-37 -25 -85 -42t-104 -17z" />
    <glyph glyph-name="uni01DA" unicode="&#x1da;" horiz-adv-x="579" 
d="M324 617l-87 120h82l51 -78l83 78h86l-136 -120h-79zM196 521l18 84h90l-18 -84h-90zM395 521l18 84h88l-18 -84h-88zM175 -10q-79 0 -117 47t-19 138l63 299h109l-63 -299q-12 -58 7 -80.5t77 -22.5q40 0 77 15t67 40l74 347h108l-100 -474h-99l5 49q-37 -25 -85 -42
t-104 -17z" />
    <glyph glyph-name="uni01DC" unicode="&#x1dc;" horiz-adv-x="579" 
d="M328 620l-40 127h84l33 -127h-77zM200 522l18 84h89l-18 -84h-89zM398 522l18 84h89l-18 -84h-89zM175 -10q-79 0 -117 47t-19 138l63 299h109l-63 -299q-12 -58 7 -80.5t77 -22.5q40 0 77 15t67 40l74 347h108l-100 -474h-99l5 49q-37 -25 -85 -42t-104 -17z" />
    <glyph glyph-name="uni01D6" unicode="&#x1d6;" horiz-adv-x="579" 
d="M229 677l15 71h297l-15 -71h-297zM209 538l19 86h91l-19 -86h-91zM394 538l19 86h92l-19 -86h-92zM175 -10q-79 0 -117 47t-19 138l63 299h109l-63 -299q-12 -58 7 -80.5t77 -22.5q40 0 77 15t67 40l74 347h108l-100 -474h-99l5 49q-37 -25 -85 -42t-104 -17z" />
    <glyph glyph-name="uni1EE5" unicode="&#x1ee5;" horiz-adv-x="579" 
d="M175 -10q-79 0 -117 47t-19 138l63 299h109l-63 -299q-12 -58 7 -80.5t77 -22.5q40 0 77 15t67 40l74 347h108l-100 -474h-99l5 49q-37 -25 -85 -42t-104 -17zM141 -173l18 88h94l-18 -88h-94z" />
    <glyph glyph-name="ugrave" unicode="&#xf9;" horiz-adv-x="579" 
d="M308 522l-45 177h95l38 -177h-88zM175 -10q-79 0 -117 47t-19 138l63 299h109l-63 -299q-12 -58 7 -80.5t77 -22.5q40 0 77 15t67 40l74 347h108l-100 -474h-99l5 49q-37 -25 -85 -42t-104 -17z" />
    <glyph glyph-name="uni1EE7" unicode="&#x1ee7;" horiz-adv-x="579" 
d="M296 521l18 82q58 3 78 14t25 36q8 42 -66 42q-15 0 -33.5 -3.5t-32.5 -8.5l12 59q18 6 44.5 9.5t51.5 3.5q62 0 89 -25t17 -68q-8 -41 -32.5 -63.5t-75.5 -30.5l-10 -47h-85zM175 -10q-79 0 -117 47t-19 138l63 299h109l-63 -299q-12 -58 7 -80.5t77 -22.5q40 0 77 15
t67 40l74 347h108l-100 -474h-99l5 49q-37 -25 -85 -42t-104 -17z" />
    <glyph glyph-name="uhorn" unicode="&#x1b0;" horiz-adv-x="702" 
d="M175 -10q-85 0 -120 47t-16 138l63 299h109l-63 -299q-11 -53 9.5 -78t74.5 -25q40 0 77 15t67 40l74 347h108l-11 -55q49 4 71.5 31t34.5 86h84q-21 -100 -71.5 -144.5t-134.5 -47.5l-73 -344h-99l5 49q-37 -25 -85 -42t-104 -17z" />
    <glyph glyph-name="uni1EE9" unicode="&#x1ee9;" horiz-adv-x="702" 
d="M302 522l113 177h96l-122 -177h-87zM175 -10q-85 0 -120 47t-16 138l63 299h109l-63 -299q-11 -53 9.5 -78t74.5 -25q40 0 77 15t67 40l74 347h108l-11 -55q49 4 71.5 31t34.5 86h84q-21 -100 -71.5 -144.5t-134.5 -47.5l-73 -344h-99l5 49q-37 -25 -85 -42t-104 -17z
" />
    <glyph glyph-name="uni1EF1" unicode="&#x1ef1;" horiz-adv-x="702" 
d="M175 -10q-85 0 -120 47t-16 138l63 299h109l-63 -299q-11 -53 9.5 -78t74.5 -25q40 0 77 15t67 40l74 347h108l-11 -55q49 4 71.5 31t34.5 86h84q-21 -100 -71.5 -144.5t-134.5 -47.5l-73 -344h-99l5 49q-37 -25 -85 -42t-104 -17zM146 -173l18 88h94l-18 -88h-94z" />
    <glyph glyph-name="uni1EEB" unicode="&#x1eeb;" horiz-adv-x="702" 
d="M309 522l-45 177h95l38 -177h-88zM175 -10q-85 0 -120 47t-16 138l63 299h109l-63 -299q-11 -53 9.5 -78t74.5 -25q40 0 77 15t67 40l74 347h108l-11 -55q49 4 71.5 31t34.5 86h84q-21 -100 -71.5 -144.5t-134.5 -47.5l-73 -344h-99l5 49q-37 -25 -85 -42t-104 -17z" />
    <glyph glyph-name="uni1EED" unicode="&#x1eed;" horiz-adv-x="702" 
d="M302 521l18 82q58 3 78 14t25 36q8 42 -66 42q-15 0 -33.5 -3.5t-32.5 -8.5l12 59q18 6 44.5 9.5t51.5 3.5q62 0 89 -25t17 -68q-8 -41 -32.5 -63.5t-75.5 -30.5l-10 -47h-85zM175 -10q-85 0 -120 47t-16 138l63 299h109l-63 -299q-11 -53 9.5 -78t74.5 -25q40 0 77 15
t67 40l74 347h108l-11 -55q49 4 71.5 31t34.5 86h84q-21 -100 -71.5 -144.5t-134.5 -47.5l-73 -344h-99l5 49q-37 -25 -85 -42t-104 -17z" />
    <glyph glyph-name="uni1EEF" unicode="&#x1eef;" horiz-adv-x="702" 
d="M431 535q-27 0 -51 10t-46.5 19.5t-45.5 9.5q-26 0 -49.5 -8t-45.5 -28l17 80q16 14 41 22t50 8q29 0 52 -9.5t45 -19.5t48 -10q53 0 88 37l-17 -80q-13 -13 -36 -22t-50 -9zM175 -10q-85 0 -120 47t-16 138l63 299h109l-63 -299q-11 -53 9.5 -78t74.5 -25q40 0 77 15
t67 40l74 347h108l-11 -55q49 4 71.5 31t34.5 86h84q-21 -100 -71.5 -144.5t-134.5 -47.5l-73 -344h-99l5 49q-37 -25 -85 -42t-104 -17z" />
    <glyph glyph-name="uhungarumlaut" unicode="&#x171;" horiz-adv-x="579" 
d="M160 521l110 164h98l-120 -164h-88zM376 521l110 164h99l-121 -164h-88zM175 -10q-79 0 -117 47t-19 138l63 299h109l-63 -299q-12 -58 7 -80.5t77 -22.5q40 0 77 15t67 40l74 347h108l-100 -474h-99l5 49q-37 -25 -85 -42t-104 -17z" />
    <glyph glyph-name="umacron" unicode="&#x16b;" horiz-adv-x="579" 
d="M199 555l15 71h297l-15 -71h-297zM175 -10q-79 0 -117 47t-19 138l63 299h109l-63 -299q-12 -58 7 -80.5t77 -22.5q40 0 77 15t67 40l74 347h108l-100 -474h-99l5 49q-37 -25 -85 -42t-104 -17z" />
    <glyph glyph-name="uogonek" unicode="&#x173;" horiz-adv-x="597" 
d="M363 -220q-43 0 -70.5 21.5t-17.5 67.5q8 38 33.5 74.5t50.5 56.5l5 49q-37 -25 -85 -42t-104 -17q-79 0 -117 47t-19 138l63 299h109l-63 -299q-12 -58 7 -80.5t77 -22.5q40 0 77 15t67 40l74 347h108l-100 -474q-37 -25 -61.5 -53.5t-30.5 -58.5q-5 -23 5.5 -31.5
t32.5 -8.5q12 0 27 3t25 8l-14 -66q-14 -6 -35.5 -9.5t-43.5 -3.5z" />
    <glyph glyph-name="uring" unicode="&#x16f;" horiz-adv-x="579" 
d="M335 521q-52 0 -76.5 33t-15.5 80q11 48 47 81t93 33q54 0 79.5 -33t14.5 -81q-10 -47 -47.5 -80t-94.5 -33zM347 575q28 0 48 17t25 42t-5.5 42t-42.5 17q-26 0 -46.5 -17t-25.5 -42t5.5 -42t41.5 -17zM175 -10q-79 0 -117 47t-19 138l63 299h109l-63 -299
q-12 -58 7 -80.5t77 -22.5q40 0 77 15t67 40l74 347h108l-100 -474h-99l5 49q-37 -25 -85 -42t-104 -17z" />
    <glyph glyph-name="utilde" unicode="&#x169;" horiz-adv-x="579" 
d="M424 537q-27 0 -51 10t-46.5 19.5t-45.5 9.5q-26 0 -49.5 -8t-45.5 -28l17 80q16 14 41 22t50 8q29 0 52 -9.5t45 -19.5t48 -10q53 0 88 37l-17 -80q-13 -13 -36 -22t-50 -9zM175 -10q-79 0 -117 47t-19 138l63 299h109l-63 -299q-12 -58 7 -80.5t77 -22.5q40 0 77 15
t67 40l74 347h108l-100 -474h-99l5 49q-37 -25 -85 -42t-104 -17z" />
    <glyph glyph-name="v" unicode="v" horiz-adv-x="578" 
d="M174 0l-87 474h109l55 -368l211 368h116l-286 -474h-118z" />
    <glyph glyph-name="w" unicode="w" horiz-adv-x="746" 
d="M112 0l-25 474h109l9 -345l154 287l12 58h83l30 -345l155 345h108l-224 -474h-99l-36 310l-168 -310h-108z" />
    <glyph glyph-name="wacute" unicode="&#x1e83;" horiz-adv-x="746" 
d="M379 522l113 177h96l-122 -177h-87zM112 0l-25 474h109l9 -345l154 287l12 58h83l30 -345l155 345h108l-224 -474h-99l-36 310l-168 -310h-108z" />
    <glyph glyph-name="wcircumflex" unicode="&#x175;" horiz-adv-x="746" 
d="M266 521l158 161h76l91 -161h-84l-55 101l-95 -101h-91zM112 0l-25 474h109l9 -345l154 287l12 58h83l30 -345l155 345h108l-224 -474h-99l-36 310l-168 -310h-108z" />
    <glyph glyph-name="wdieresis" unicode="&#x1e85;" horiz-adv-x="746" 
d="M295 544l19 86h91l-19 -86h-91zM480 544l19 86h92l-19 -86h-92zM112 0l-25 474h109l9 -345l154 287l12 58h83l30 -345l155 345h108l-224 -474h-99l-36 310l-168 -310h-108z" />
    <glyph glyph-name="wgrave" unicode="&#x1e81;" horiz-adv-x="746" 
d="M377 522l-45 177h95l38 -177h-88zM112 0l-25 474h109l9 -345l154 287l12 58h83l30 -345l155 345h108l-224 -474h-99l-36 310l-168 -310h-108z" />
    <glyph glyph-name="x" unicode="x" horiz-adv-x="540" 
d="M-27 0l232 241l-125 233h117l83 -158l149 158h117l-222 -233l129 -241h-118l-87 165l-157 -165h-118z" />
    <glyph glyph-name="y" unicode="y" horiz-adv-x="598" 
d="M148 -176q-16 0 -40 1.5t-46.5 3.5t-35.5 5l19 87q20 -7 51 -10t52 -3q80 0 136 25t68 82l7 34q-37 -25 -84.5 -42t-103.5 -17q-77 0 -116 48.5t-20 136.5l63 299h109l-63 -299q-11 -53 6 -78t78 -25q40 0 77 15t67 40l74 347h108l-94 -442q-12 -58 -49 -105t-102 -75
t-161 -28z" />
    <glyph glyph-name="yacute" unicode="&#xfd;" horiz-adv-x="598" 
d="M307 522l113 177h96l-122 -177h-87zM148 -176q-16 0 -40 1.5t-46.5 3.5t-35.5 5l19 87q20 -7 51 -10t52 -3q80 0 136 25t68 82l7 34q-37 -25 -84.5 -42t-103.5 -17q-77 0 -116 48.5t-20 136.5l63 299h109l-63 -299q-11 -53 6 -78t78 -25q40 0 77 15t67 40l74 347h108
l-94 -442q-12 -58 -49 -105t-102 -75t-161 -28z" />
    <glyph glyph-name="ycircumflex" unicode="&#x177;" horiz-adv-x="598" 
d="M197 521l158 161h76l91 -161h-84l-55 101l-95 -101h-91zM148 -176q-16 0 -40 1.5t-46.5 3.5t-35.5 5l19 87q20 -7 51 -10t52 -3q80 0 136 25t68 82l7 34q-37 -25 -84.5 -42t-103.5 -17q-77 0 -116 48.5t-20 136.5l63 299h109l-63 -299q-11 -53 6 -78t78 -25q40 0 77 15
t67 40l74 347h108l-94 -442q-12 -58 -49 -105t-102 -75t-161 -28z" />
    <glyph glyph-name="ydieresis" unicode="&#xff;" horiz-adv-x="598" 
d="M230 556l19 86h91l-19 -86h-91zM415 556l19 86h92l-19 -86h-92zM148 -176q-16 0 -40 1.5t-46.5 3.5t-35.5 5l19 87q20 -7 51 -10t52 -3q80 0 136 25t68 82l7 34q-37 -25 -84.5 -42t-103.5 -17q-77 0 -116 48.5t-20 136.5l63 299h109l-63 -299q-11 -53 6 -78t78 -25
q40 0 77 15t67 40l74 347h108l-94 -442q-12 -58 -49 -105t-102 -75t-161 -28z" />
    <glyph glyph-name="uni1E8F" unicode="&#x1e8f;" horiz-adv-x="598" 
d="M317 545l19 88h92l-19 -88h-92zM148 -176q-16 0 -40 1.5t-46.5 3.5t-35.5 5l19 87q20 -7 51 -10t52 -3q80 0 136 25t68 82l7 34q-37 -25 -84.5 -42t-103.5 -17q-77 0 -116 48.5t-20 136.5l63 299h109l-63 -299q-11 -53 6 -78t78 -25q40 0 77 15t67 40l74 347h108
l-94 -442q-12 -58 -49 -105t-102 -75t-161 -28z" />
    <glyph glyph-name="uni1EF5" unicode="&#x1ef5;" horiz-adv-x="598" 
d="M148 -176q-16 0 -40 1.5t-46.5 3.5t-35.5 5l19 87q20 -7 51 -10t52 -3q80 0 136 25t68 82l7 34q-37 -25 -84.5 -42t-103.5 -17q-77 0 -116 48.5t-20 136.5l63 299h109l-63 -299q-11 -53 6 -78t78 -25q40 0 77 15t67 40l74 347h108l-94 -442q-12 -58 -49 -105t-102 -75
t-161 -28zM432 -161l18 88h94l-18 -88h-94z" />
    <glyph glyph-name="ygrave" unicode="&#x1ef3;" horiz-adv-x="598" 
d="M320 522l-45 177h95l38 -177h-88zM148 -176q-16 0 -40 1.5t-46.5 3.5t-35.5 5l19 87q20 -7 51 -10t52 -3q80 0 136 25t68 82l7 34q-37 -25 -84.5 -42t-103.5 -17q-77 0 -116 48.5t-20 136.5l63 299h109l-63 -299q-11 -53 6 -78t78 -25q40 0 77 15t67 40l74 347h108
l-94 -442q-12 -58 -49 -105t-102 -75t-161 -28z" />
    <glyph glyph-name="uni1EF7" unicode="&#x1ef7;" horiz-adv-x="598" 
d="M317 521l18 82q58 3 78 14t25 36q8 42 -66 42q-15 0 -33.5 -3.5t-32.5 -8.5l12 59q18 6 44.5 9.5t51.5 3.5q62 0 89 -25t17 -68q-8 -41 -32.5 -63.5t-75.5 -30.5l-10 -47h-85zM148 -176q-16 0 -40 1.5t-46.5 3.5t-35.5 5l19 87q20 -7 51 -10t52 -3q80 0 136 25t68 82
l7 34q-37 -25 -84.5 -42t-103.5 -17q-77 0 -116 48.5t-20 136.5l63 299h109l-63 -299q-11 -53 6 -78t78 -25q40 0 77 15t67 40l74 347h108l-94 -442q-12 -58 -49 -105t-102 -75t-161 -28z" />
    <glyph glyph-name="uni1EF9" unicode="&#x1ef9;" horiz-adv-x="598" 
d="M441 537q-27 0 -51 10t-46.5 19.5t-45.5 9.5q-26 0 -49.5 -8t-45.5 -28l17 80q16 14 41 22t50 8q29 0 52 -9.5t45 -19.5t48 -10q53 0 88 37l-17 -80q-13 -13 -36 -22t-50 -9zM148 -176q-16 0 -40 1.5t-46.5 3.5t-35.5 5l19 87q20 -7 51 -10t52 -3q80 0 136 25t68 82l7 34
q-37 -25 -84.5 -42t-103.5 -17q-77 0 -116 48.5t-20 136.5l63 299h109l-63 -299q-11 -53 6 -78t78 -25q40 0 77 15t67 40l74 347h108l-94 -442q-12 -58 -49 -105t-102 -75t-161 -28z" />
    <glyph glyph-name="z" unicode="z" horiz-adv-x="487" 
d="M-14 0l12 57l328 328h-247l19 89h381l-14 -67l-323 -323h261l-17 -84h-400z" />
    <glyph glyph-name="zacute" unicode="&#x17a;" horiz-adv-x="487" 
d="M253 522l113 177h96l-122 -177h-87zM-14 0l12 57l328 328h-247l19 89h381l-14 -67l-323 -323h261l-17 -84h-400z" />
    <glyph glyph-name="zcaron" unicode="&#x17e;" horiz-adv-x="487" 
d="M253 521l-90 161h85l53 -101l97 101h90l-159 -161h-76zM-14 0l12 57l328 328h-247l19 89h381l-14 -67l-323 -323h261l-17 -84h-400z" />
    <glyph glyph-name="zdotaccent" unicode="&#x17c;" horiz-adv-x="487" 
d="M258 545l19 88h92l-19 -88h-92zM-14 0l12 57l328 328h-247l19 89h381l-14 -67l-323 -323h261l-17 -84h-400z" />
    <glyph glyph-name="uni1E93" unicode="&#x1e93;" horiz-adv-x="487" 
d="M-14 0l12 57l328 328h-247l19 89h381l-14 -67l-323 -323h261l-17 -84h-400zM102 -173l18 88h94l-18 -88h-94z" />
    <glyph glyph-name="ordfeminine" unicode="&#xaa;" horiz-adv-x="344" 
d="M162 380q-37 0 -62 18.5t-16 60.5q9 43 38.5 65t87.5 22h82l1 9q6 26 -4 36t-56 10q-43 0 -88 -14l11 51q20 7 47.5 11.5t55.5 4.5q53 0 82.5 -23.5t18.5 -76.5l-35 -168h-60l1 26q-22 -16 -46.5 -24t-57.5 -8zM192 427q23 0 43.5 8t38.5 27l8 39h-70q-29 0 -43.5 -8
t-19.5 -31q-4 -19 5.5 -27t37.5 -8z" />
    <glyph glyph-name="ordmasculine" unicode="&#xba;" horiz-adv-x="363" 
d="M205 380q-66 0 -94.5 35t-14.5 102t54.5 102t113.5 35q68 0 95 -35t13 -102t-53.5 -102t-113.5 -35zM216 432q38 0 58 21t29 64q9 42 -0.5 63t-50.5 21q-37 0 -58 -21t-30 -63q-9 -43 0.5 -64t51.5 -21z" />
    <glyph glyph-name="uni207F" unicode="&#x207f;" horiz-adv-x="359" 
d="M74 386l55 262h64l-4 -27q25 15 51.5 23.5t59.5 8.5q44 0 65 -24t11 -71l-36 -172h-67l33 159q7 31 -0.5 43t-40.5 12q-20 0 -44 -8.5t-40 -21.5l-39 -184h-68z" />
    <glyph glyph-name="uni0394" unicode="&#x394;" horiz-adv-x="650" 
d="M-13 0l12 60l354 584h100l108 -585l-12 -59h-562zM113 84h350l-80 444z" />
    <glyph glyph-name="uni03A9" unicode="&#x3a9;" horiz-adv-x="764" 
d="M-7 0l17 82h144q-60 44 -86 114.5t-5 167.5t73.5 171.5t137 117t198.5 42.5q107 0 173.5 -42.5t91 -117t3.5 -171.5t-76 -168t-134 -114h143l-17 -82h-275l17 84q99 48 155.5 118t75.5 158q16 72 5 126.5t-55 85t-127 30.5q-74 0 -131.5 -30.5t-95 -85t-53.5 -126.5
q-19 -88 8.5 -158t104.5 -118l-17 -84h-275z" />
    <glyph glyph-name="uni03BC" unicode="&#x3bc;" horiz-adv-x="584" 
d="M-24 -143l131 617h109l-63 -299q-11 -53 6.5 -78t77.5 -25q40 0 77 15t67 40l74 347h108l-100 -474h-99l5 49q-37 -25 -85 -42t-104 -17q-40 0 -63 15l-32 -148h-109z" />
    <glyph glyph-name="pi" unicode="&#x3c0;" horiz-adv-x="673" 
d="M486 -10q-67 0 -99 41.5t-17 111.5l52 247h-188l-82 -390h-108l82 390h-67l18 84h538l-18 -84h-66l-51 -243q-9 -41 2 -56.5t60 -15.5q27 0 61 10l-17 -79q-45 -16 -100 -16z" />
    <glyph glyph-name="uni0E01" unicode="&#xe01;" horiz-adv-x="613" 
d="M12 0l41 195q9 44 33 77.5t72 46.5l-102 27l24 112q47 35 118.5 63.5t159.5 28.5q116 0 170.5 -52.5t31.5 -162.5l-71 -335h-109l71 338q15 69 -8.5 96.5t-106.5 27.5q-50 0 -96.5 -14t-75.5 -37l-4 -18l108 -29l-15 -72q-41 -10 -62 -32t-30 -66l-41 -194h-108z" />
    <glyph glyph-name="uni0E02" unicode="&#xe02;" horiz-adv-x="581" 
d="M222 -10q-108 0 -159 54.5t-30 147.5l12 53q8 34 27 61t41 49.5t39.5 41t20.5 35.5q4 16 -2 21t-24 5h-69l26 82h126q77 0 61 -73q-8 -35 -27.5 -62.5t-43 -52t-42.5 -50.5t-26 -58l-13 -61q-12 -57 9.5 -81.5t92.5 -24.5q59 0 96.5 26t49.5 83l75 354h109l-73 -347
q-21 -96 -87.5 -149.5t-188.5 -53.5z" />
    <glyph glyph-name="uni0E03" unicode="&#xe03;" horiz-adv-x="581" 
d="M222 -10q-69 0 -116.5 24.5t-67 70t-5.5 107.5l7 30q7 32 31 63.5t52.5 59.5t51 52t26.5 41q4 22 -16 22q-18 0 -36 -15l-8 -40h-74l28 135h76l-6 -28q17 11 36 19.5t46 8.5q77 0 60 -77q-8 -36 -31.5 -67t-51 -59t-49.5 -55.5t-28 -56.5l-8 -42q-11 -61 10 -83.5
t92 -22.5q59 0 96.5 26t49.5 83l75 354h109l-73 -347q-21 -96 -87.5 -149.5t-188.5 -53.5z" />
    <glyph glyph-name="uni0E04" unicode="&#xe04;" horiz-adv-x="615" 
d="M3 0l72 342q14 65 47 111.5t92 71.5t150 25q82 0 130 -27t65 -73.5t4 -107.5l-72 -342h-109l74 352q13 59 -11.5 84.5t-98.5 25.5q-69 0 -108.5 -26.5t-51.5 -83.5l-23 -111q52 36 112 36h65l-14 -87h-72q-60 0 -109 -34l-33 -156h-109z" />
    <glyph glyph-name="uni0E05" unicode="&#xe05;" horiz-adv-x="615" 
d="M3 0l83 395q17 74 55.5 114.5t109.5 40.5q32 0 58 -12t41 -40q27 28 63.5 40t67.5 12q66 0 88 -38.5t5 -117.5l-83 -394h-108l84 396q7 32 1 46.5t-34 14.5q-22 0 -39.5 -11t-33.5 -30h-52q-5 19 -16.5 30t-31.5 11q-33 0 -46.5 -16.5t-19.5 -44.5l-33 -155q52 36 112 36
h66l-14 -87h-72q-60 0 -110 -34l-33 -156h-108z" />
    <glyph glyph-name="uni0E06" unicode="&#xe06;" horiz-adv-x="601" 
d="M290 -10q-61 0 -102.5 19t-71.5 50l-18 -59h-99l44 209q8 36 32.5 69.5t53.5 63.5t51.5 54.5t26.5 41.5q4 22 -16 22q-18 0 -36 -15l-8 -40h-74l28 135h76l-6 -28q17 11 36 19.5t46 8.5q77 0 60 -77q-7 -34 -29.5 -65t-50.5 -61t-50.5 -60.5t-29.5 -64.5l-15 -70
q20 -28 55 -46.5t80 -18.5q63 0 93 26.5t43 87.5l74 349h108l-75 -354q-20 -94 -80 -145t-146 -51z" />
    <glyph glyph-name="uni0E07" unicode="&#xe07;" horiz-adv-x="559" 
d="M207 -10q-23 0 -50 3t-47 10l-73 370h106l59 -300q81 -1 133.5 51t76.5 163q14 65 11.5 102.5t-27.5 53t-79 15.5h-38l17 82h52q110 0 153 -62t16 -190q-34 -159 -114.5 -228.5t-195.5 -69.5z" />
    <glyph glyph-name="uni0E08" unicode="&#xe08;" horiz-adv-x="569" 
d="M215 -10q-19 0 -44 3.5t-39 9.5l-35 213h-69l23 82h133l36 -222q66 -3 120.5 42.5t78.5 156.5q15 70 7.5 111t-45.5 58.5t-117 17.5q-40 0 -86.5 -6t-90.5 -20l18 84q43 13 96 21.5t110 8.5q137 0 189.5 -71t23.5 -204q-20 -93 -65.5 -156.5t-108 -96t-135.5 -32.5z" />
    <glyph glyph-name="uni0E09" unicode="&#xe09;" horiz-adv-x="583" 
d="M160 -10q-79 0 -115.5 47t-17.5 140l26 123h108l-24 -113q-13 -61 5 -85.5t79 -24.5q45 0 85 18t74 48l40 187q11 51 2.5 79.5t-43 40.5t-103.5 12q-27 0 -63 -3.5t-72.5 -10.5t-66.5 -16l18 84q47 15 109 24.5t121 9.5q253 0 206 -221l-69 -329h-99l6 59
q-40 -30 -90.5 -49.5t-115.5 -19.5z" />
    <glyph glyph-name="uni0E0A" unicode="&#xe0a;" horiz-adv-x="582" 
d="M222 -10q-109 0 -158.5 55.5t-29.5 146.5l12 53q7 32 26 59t41.5 49.5t40 42t20.5 36.5q4 16 -2 21t-24 5h-69l26 82h126q76 0 61 -73q-7 -34 -27 -62t-43.5 -53.5t-43 -51.5t-25.5 -56l-13 -61q-12 -58 12.5 -82t88.5 -24q59 0 97 26t50 83l14 66q10 47 -1 65.5
t-52 18.5h-28l22 79h20q42 0 62 20.5t30 63.5l10 51h109l-11 -55q-10 -47 -31 -77.5t-68 -47.5q39 -19 47 -50t-2 -77l-10 -50q-19 -100 -90 -151.5t-187 -51.5z" />
    <glyph glyph-name="uni0E0B" unicode="&#xe0b;" horiz-adv-x="582" 
d="M222 -10q-69 0 -116 25.5t-66 71t-6 105.5l7 33q7 34 31 65t53 58.5t51 50t26 39.5q4 22 -16 22q-18 0 -36 -15l-8 -40h-74l28 135h76l-6 -28q17 11 36 19.5t46 8.5q77 0 60 -77q-7 -34 -29.5 -63.5t-50 -57.5t-50 -56.5t-29.5 -60.5l-9 -42q-12 -58 12.5 -82t88.5 -24
q59 0 97 26t50 83l14 66q10 47 -1 65.5t-52 18.5h-28l22 79h20q42 0 62 20.5t30 63.5l10 51h109l-11 -55q-10 -47 -31 -77.5t-68 -47.5q39 -19 47 -50t-2 -77l-10 -50q-19 -100 -90 -151.5t-187 -51.5z" />
    <glyph glyph-name="uni0E0C" unicode="&#xe0c;" horiz-adv-x="957" 
d="M651 -10q-60 0 -99 19t-69 50l-18 -59h-96l71 338q15 69 -7.5 96.5t-99.5 27.5q-49 0 -94.5 -14t-74.5 -37l-4 -18l108 -29l-15 -72q-41 -10 -62 -32t-30 -66l-14 -65q-5 -23 0.5 -33t30.5 -10h57l-18 -86h-108q-42 0 -64 28t-12 73l20 94q9 44 33 77.5t72 46.5l-102 27
l24 112q47 35 118 63.5t157 28.5q112 0 163.5 -51.5t27.5 -163.5l-41 -193q20 -28 53 -46.5t76 -18.5q61 0 89.5 26.5t41.5 87.5l74 349h108l-75 -354q-20 -94 -75.5 -145t-145.5 -51z" />
    <glyph glyph-name="uni0E0D" unicode="&#xe0d;" horiz-adv-x="970" 
d="M597 -61q-49 0 -100 11t-92 32l18 87q38 -22 88.5 -32.5t101.5 -10.5q70 0 110.5 16t45.5 42q4 19 -7 33q-27 -14 -61.5 -23t-76.5 -9q-109 0 -161.5 55t-29.5 165l7 33q15 69 -7 96.5t-100 27.5q-49 0 -94.5 -14t-74.5 -37l-4 -18l108 -29l-15 -72q-41 -10 -62 -32
t-30 -66l-14 -65q-5 -26 1 -34.5t29 -8.5h58l-18 -86h-108q-45 0 -65.5 28t-10.5 73l20 94q9 44 33 77.5t72 46.5l-102 27l24 112q47 35 118 63.5t157 28.5q73 0 121.5 -21.5t67.5 -68.5t2 -125l-8 -34q-14 -67 7.5 -98t96.5 -31q68 0 106 31t52 98l51 239h108l-50 -235
q-9 -43 -25 -75.5t-40 -58.5q13 -16 18.5 -40t-0.5 -53q-14 -67 -77.5 -103t-187.5 -36z" />
    <glyph glyph-name="uni0E0D.less" horiz-adv-x="969" 
d="M603 -10q-111 0 -161.5 57t-28.5 163l27 128q15 69 -8 96.5t-99 27.5q-49 0 -94.5 -14t-74.5 -37l-4 -18l108 -29l-15 -72q-41 -10 -62 -32t-30 -66l-14 -65q-5 -23 1.5 -33t28.5 -10h58l-18 -86h-108q-45 0 -65.5 28t-10.5 73l20 94q9 44 33 77.5t72 46.5l-102 27
l24 112q47 35 118 63.5t157 28.5q73 0 121.5 -21.5t67.5 -68.5t2 -125l-28 -129q-14 -67 7 -98t97 -31q68 0 106 31t52 98l71 334h108l-70 -330q-23 -110 -90 -165t-196 -55z" />
    <glyph glyph-name="uni0E0E" unicode="&#xe0e;" horiz-adv-x="647" 
d="M66 -197l18 87q41 17 85 26.5t93 9.5q42 0 75.5 -7.5t55.5 -21.5l93 441q15 69 -8 96.5t-101 27.5q-51 0 -97 -14t-75 -37l-4 -18l111 -29l-15 -72q-41 -11 -57.5 -32t-25.5 -66l-16 -72q-13 -64 -47 -93t-96 -29h-67l18 86h37q21 0 31.5 9.5t15.5 32.5l14 67q9 44 30 76
t67 48l-104 27l24 112q47 35 118.5 63.5t158.5 28.5q115 0 167 -53.5t29 -161.5l-113 -529h-108q-27 17 -60.5 25t-80.5 8q-41 0 -85 -9.5t-81 -26.5z" />
    <glyph glyph-name="uni0E0E.short" horiz-adv-x="647" 
d="M81 -127l18 87q41 17 85 26.5t93 9.5q85 0 130 -29l79 371q15 69 -7 96.5t-102 27.5q-51 0 -97 -14t-75 -37l-4 -18l111 -29l-15 -72q-41 -11 -57.5 -32t-25.5 -66l-16 -72q-13 -64 -49.5 -93t-93.5 -29h-67l18 86h37q21 0 31.5 9.5t15.5 32.5l14 67q9 44 30 76t67 48
l-104 27l24 112q47 35 118.5 63.5t158.5 28.5q113 0 166.5 -50.5t29.5 -164.5l-98 -459h-108q-27 17 -60.5 25t-80.5 8q-41 0 -85 -9.5t-81 -26.5z" />
    <glyph glyph-name="uni0E0F" unicode="&#xe0f;" horiz-adv-x="647" 
d="M334 -195q-36 0 -63.5 13t-38.5 33q-16 -20 -40.5 -32.5t-60.5 -12.5h-97l25 87h71q29 0 47.5 9.5t34.5 33.5h71q4 -22 15.5 -34.5t37.5 -12.5q30 0 45.5 15t22.5 46l82 388q15 69 -7 96.5t-102 27.5q-51 0 -97 -14t-75 -37l-4 -18l111 -29l-15 -72q-41 -11 -57.5 -32
t-25.5 -66l-16 -72q-13 -64 -49.5 -93t-93.5 -29h-67l18 86h37q21 0 31.5 9.5t15.5 32.5l14 67q9 44 30 76t67 48l-104 27l24 112q47 35 118.5 63.5t158.5 28.5q112 0 165.5 -53t30.5 -162l-83 -391q-14 -66 -57.5 -102.5t-119.5 -36.5z" />
    <glyph glyph-name="uni0E0F.short" horiz-adv-x="647" 
d="M349 -124q-36 0 -63.5 13t-38.5 33q-16 -20 -40.5 -32.5t-60.5 -12.5h-97l25 87h71q29 0 47.5 9.5t34.5 33.5h71q4 -22 15.5 -34.5t37.5 -12.5q30 0 45.5 15t22.5 46l67 317q15 69 -8 96.5t-101 27.5q-51 0 -97 -14t-75 -37l-4 -18l111 -29l-15 -72q-41 -11 -57.5 -32
t-25.5 -66l-16 -72q-13 -64 -49.5 -93t-93.5 -29h-67l18 86h37q21 0 31.5 9.5t15.5 32.5l14 67q9 44 30 76t67 48l-104 27l24 112q47 35 118.5 63.5t158.5 28.5q112 0 166 -50.5t30 -164.5l-68 -320q-14 -66 -58 -102.5t-119 -36.5z" />
    <glyph glyph-name="uni0E10" unicode="&#xe10;" horiz-adv-x="604" 
d="M210 -10q-19 0 -44 3.5t-39 9.5l-35 213h-69l23 82h133l36 -222q66 -3 120.5 42.5t78.5 156.5q15 70 7.5 111t-45.5 58.5t-117 17.5q-40 0 -86.5 -6t-90.5 -20l18 84q43 13 96 21.5t110 8.5q26 0 48.5 -2.5t41.5 -7.5h227l-23 -85h-97q41 -66 16 -180
q-20 -93 -65.5 -156.5t-108 -96t-135.5 -32.5zM254 -195q-36 0 -62.5 13t-37.5 33q-16 -20 -40.5 -32.5t-60.5 -12.5h-99l25 87h71q29 0 47.5 9.5t34.5 33.5h71q4 -22 15.5 -34.5t37.5 -12.5q30 0 45.5 15t22.5 46l2 9h108l-3 -15q-14 -66 -59 -102.5t-118 -36.5z" />
    <glyph glyph-name="uni0E10.less" horiz-adv-x="604" 
d="M210 -10q-19 0 -44 3.5t-39 9.5l-35 213h-69l23 82h133l36 -222q66 -3 120.5 42.5t78.5 156.5q15 70 7.5 111t-45.5 58.5t-117 17.5q-40 0 -86.5 -6t-90.5 -20l18 84q43 13 96 21.5t110 8.5q26 0 48.5 -2.5t41.5 -7.5h227l-23 -85h-97q41 -66 16 -180
q-20 -93 -65.5 -156.5t-108 -96t-135.5 -32.5z" />
    <glyph glyph-name="uni0E11" unicode="&#xe11;" horiz-adv-x="601" 
d="M21 0l45 213q8 36 28 68t43 60t42 52.5t23 44.5q4 22 -16 22q-18 0 -36 -15l-8 -40h-74l28 135h76l-6 -28q17 11 35 19.5t45 8.5q40 0 53 -30q27 17 61.5 28.5t70.5 11.5q162 0 123 -186l-77 -364h-108l77 363q12 56 0 77.5t-62 21.5q-19 0 -45 -8t-43 -22
q-6 -31 -22.5 -56.5t-37 -50t-37.5 -52.5t-25 -64l-44 -209h-109z" />
    <glyph glyph-name="uni0E12" unicode="&#xe12;" horiz-adv-x="989" 
d="M201 -10q-61 0 -105 28t-61 88.5t3 155.5q30 140 88.5 214t143.5 74q41 0 60.5 -14.5t32.5 -37.5q26 23 59 37.5t76 14.5q65 0 87 -37t7 -108l-56 -263q20 -28 52 -46.5t78 -18.5q59 0 88 26.5t42 87.5l74 349h109l-75 -354q-20 -94 -75 -145t-146 -51q-60 0 -99.5 19
t-69.5 50l-17 -59h-96l82 389q8 41 1.5 57t-35.5 16q-20 0 -38.5 -11t-32.5 -35h-60q-7 24 -17 35t-34 11q-49 0 -76.5 -55t-47.5 -145q-22 -103 2 -144t94 -41q19 0 38 2t33 6l-18 -83q-19 -6 -40.5 -9t-50.5 -3z" />
    <glyph glyph-name="uni0E13" unicode="&#xe13;" horiz-adv-x="960" 
d="M545 -10q-80 0 -118 52.5t-19 143.5l32 152q15 72 -7.5 98t-99.5 26q-49 0 -94.5 -14t-74.5 -37l-4 -18l108 -29l-15 -72q-41 -10 -62 -32t-30 -66l-14 -65q-5 -23 0.5 -33t30.5 -10h57l-18 -86h-108q-45 0 -65.5 28t-10.5 73l20 94q9 44 33 77.5t72 46.5l-102 27l24 112
q47 35 118 63.5t157 28.5q111 0 163 -51.5t28 -163.5l-31 -144q-14 -64 6.5 -89t78.5 -25q44 0 84.5 18.5t72.5 46.5l84 398h109l-114 -540h-99l6 59q-43 -33 -90.5 -51t-107.5 -18z" />
    <glyph glyph-name="uni0E14" unicode="&#xe14;" horiz-adv-x="643" 
d="M201 -10q-60 0 -104.5 28t-61.5 88.5t3 155.5q29 135 111 211.5t226 76.5q69 0 114.5 -19t70.5 -51t31.5 -71t-2.5 -79l-70 -330h-109l69 325q14 66 -11.5 101.5t-112.5 35.5q-88 0 -139.5 -51t-72.5 -149q-22 -103 1.5 -144t94.5 -41q19 0 38 2t33 6l-18 -83
q-19 -6 -40.5 -9t-50.5 -3z" />
    <glyph glyph-name="uni0E15" unicode="&#xe15;" horiz-adv-x="646" 
d="M201 -10q-60 0 -104.5 28t-61.5 88.5t3 155.5q30 140 88.5 214t150.5 74q41 0 61.5 -14.5t33.5 -37.5q26 23 59 37.5t78 14.5q65 0 89 -41.5t10 -103.5l-86 -405h-109l82 389q8 38 1.5 55.5t-38.5 17.5q-20 0 -39 -11t-33 -35h-60q-7 24 -17.5 35t-34.5 11
q-52 0 -81.5 -55t-49.5 -145q-22 -103 2 -144t94 -41q19 0 38 2t33 6l-18 -83q-19 -6 -40.5 -9t-50.5 -3z" />
    <glyph glyph-name="uni0E16" unicode="&#xe16;" horiz-adv-x="613" 
d="M109 0q-45 0 -65.5 28t-10.5 73l20 94q9 44 33 77.5t72 46.5l-102 27l24 112q47 35 118.5 63.5t159.5 28.5q117 0 171.5 -50.5t30.5 -164.5l-71 -335h-109l71 338q15 69 -8.5 96.5t-106.5 27.5q-50 0 -96.5 -14t-75.5 -37l-4 -18l108 -29l-15 -72q-41 -10 -62 -32
t-30 -66l-14 -65q-5 -24 0.5 -33.5t30.5 -9.5h57l-18 -86h-108z" />
    <glyph glyph-name="uni0E17" unicode="&#xe17;" horiz-adv-x="605" 
d="M3 0l114 540h99l-6 -59q44 32 94.5 50.5t111.5 18.5q82 0 120.5 -52.5t19.5 -141.5l-75 -356h-108l74 351q13 59 -6.5 85t-78.5 26q-46 0 -90 -18.5t-76 -46.5l-84 -397h-109z" />
    <glyph glyph-name="uni0E18" unicode="&#xe18;" horiz-adv-x="526" 
d="M208 -10q-65 0 -119.5 12t-89.5 28l43 203h100l-29 -138q44 -18 107 -18q59 0 95 17.5t46 66.5q8 37 -7 55.5t-49.5 29t-87.5 22.5q-43 10 -80.5 25t-57 42t-10.5 73q15 71 83 106.5t179 35.5q55 0 106 -7.5t78 -18.5l-19 -90q-31 13 -77 20.5t-91 7.5q-36 0 -70 -3.5
t-57 -14t-28 -33.5q-5 -26 14.5 -38.5t56.5 -20.5t82 -21q49 -14 84 -33t50.5 -51t4.5 -86q-16 -86 -78 -128.5t-179 -42.5z" />
    <glyph glyph-name="uni0E19" unicode="&#xe19;" horiz-adv-x="605" 
d="M184 -10q-83 0 -122.5 51t-19.5 145l75 354h109l-74 -349q-13 -64 7.5 -89t79.5 -25q44 0 88 18.5t76 46.5l84 398h108l-114 -540h-99l7 59q-43 -31 -94 -50t-111 -19z" />
    <glyph glyph-name="uni0E1A" unicode="&#xe1a;" horiz-adv-x="621" 
d="M247 -10q-112 0 -167 57t-33 163l70 330h109l-71 -334q-16 -73 11 -101t100 -28t112.5 31t53.5 98l71 334h108l-70 -330q-24 -115 -96.5 -167.5t-197.5 -52.5z" />
    <glyph glyph-name="uni0E1B" unicode="&#xe1b;" horiz-adv-x="621" 
d="M247 -10q-112 0 -167 57t-33 163l70 330h109l-71 -334q-16 -73 11 -101t100 -28t112.5 31t53.5 98l105 494h108l-104 -490q-24 -115 -96.5 -167.5t-197.5 -52.5z" />
    <glyph glyph-name="uni0E1C" unicode="&#xe1c;" horiz-adv-x="644" 
d="M3 0l93 439q9 44 39.5 72.5t76.5 28.5h103l-13 -84h-52q-25 0 -38 -11.5t-18 -37.5l-55 -261l180 229h44l84 -229l83 394h104l-114 -540h-100l-95 267l-208 -267h-114z" />
    <glyph glyph-name="uni0E1D" unicode="&#xe1d;" horiz-adv-x="644" 
d="M3 0l93 439q9 44 39.5 72.5t76.5 28.5h103l-13 -84h-52q-25 0 -38 -11.5t-18 -37.5l-55 -261l180 229h44l84 -229l117 554h104l-148 -700h-100l-95 267l-208 -267h-114z" />
    <glyph glyph-name="uni0E1E" unicode="&#xe1e;" horiz-adv-x="726" 
d="M100 0l-11 540h107l-2 -386l164 309l16 77h78l27 -386l160 386h106l-238 -540h-95l-27 344l-181 -344h-104z" />
    <glyph glyph-name="uni0E1F" unicode="&#xe1f;" horiz-adv-x="726" 
d="M100 0l-11 540h107l-2 -386l164 309l16 77h78l27 -386l225 546h106l-303 -700h-95l-27 344l-181 -344h-104z" />
    <glyph glyph-name="uni0E20" unicode="&#xe20;" horiz-adv-x="647" 
d="M-12 0l18 86h37q21 0 31.5 9.5t15.5 32.5l14 67q9 44 30 76t67 48l-104 27l24 112q47 35 118.5 63.5t158.5 28.5q112 0 166 -51.5t30 -163.5l-71 -335h-108l71 338q15 69 -7 96.5t-102 27.5q-51 0 -97 -14t-75 -37l-4 -18l111 -29l-15 -72q-41 -11 -57.5 -32t-25.5 -66
l-16 -72q-13 -64 -49.5 -93t-93.5 -29h-67z" />
    <glyph glyph-name="uni0E21" unicode="&#xe21;" horiz-adv-x="605" 
d="M294 -10q-61 0 -102.5 19t-71.5 50l-18 -59h-99l114 540h109l-84 -398q20 -28 55 -46.5t80 -18.5q63 0 93 26.5t43 87.5l74 349h108l-75 -354q-20 -94 -77.5 -145t-148.5 -51z" />
    <glyph glyph-name="uni0E22" unicode="&#xe22;" horiz-adv-x="597" 
d="M226 -10q-72 0 -124.5 17t-77 54t-11.5 98q9 41 35 72.5t66 49.5q-28 13 -42.5 41.5t-5.5 71.5q17 77 72.5 116.5t129.5 39.5q29 0 49.5 -3.5t36.5 -9.5l-18 -83q-27 8 -66 8q-40 0 -65.5 -16t-33.5 -52q-8 -38 13.5 -54.5t65.5 -16.5h57l-12 -81h-64q-95 0 -113 -83
q-8 -41 19 -61.5t103 -20.5q141 0 165 115l74 348h108l-71 -335q-23 -109 -91 -162t-199 -53z" />
    <glyph glyph-name="uni0E23" unicode="&#xe23;" horiz-adv-x="504" 
d="M177 -10q-53 0 -101 7t-77 20l19 91q35 -15 78 -23t80 -8q69 0 104.5 12.5t44.5 52.5q6 29 -8 44t-44.5 26.5t-75.5 27.5q-43 16 -76 35.5t-48 48.5t-6 72q15 71 74.5 112.5t174.5 41.5q46 0 89.5 -7t70.5 -17l-19 -90q-30 13 -69 19.5t-74 6.5q-58 0 -96 -12.5
t-46 -50.5q-5 -25 10 -39.5t46 -26t75 -27.5q73 -26 107 -62.5t20 -101.5q-17 -79 -79 -115.5t-174 -36.5z" />
    <glyph glyph-name="uni0E24" unicode="&#xe24;" horiz-adv-x="613" 
d="M345 -160l106 498q15 69 -8.5 96.5t-106.5 27.5q-50 0 -96.5 -14t-75.5 -37l-4 -18l108 -29l-15 -72q-41 -10 -62 -32t-30 -66l-14 -65q-5 -23 0 -33t30 -10h58l-18 -86h-108q-45 0 -65.5 28t-10.5 73l20 94q9 44 33 77.5t72 46.5l-102 27l24 112q47 35 118.5 63.5
t159.5 28.5q116 0 171 -51.5t31 -163.5l-106 -495h-109z" />
    <glyph glyph-name="uni0E24.short" horiz-adv-x="613" 
d="M356 -110l95 448q15 69 -8.5 96.5t-106.5 27.5q-50 0 -96.5 -14t-75.5 -37l-4 -18l108 -29l-15 -72q-41 -10 -62 -32t-30 -66l-14 -65q-6 -27 1 -35t29 -8h58l-18 -86h-108q-45 0 -65.5 28t-10.5 73l20 94q9 44 33 77.5t72 46.5l-102 27l24 112q47 35 118.5 63.5
t159.5 28.5q75 0 126 -21.5t72 -68.5t4 -125l-95 -445h-109z" />
    <glyph glyph-name="uni0E25" unicode="&#xe25;" horiz-adv-x="588" 
d="M161 -10q-48 0 -86.5 17.5t-56.5 54.5t-6 93q17 79 74 123t172 44h165l7 34q9 39 2 62.5t-34.5 33.5t-83.5 10q-47 0 -92 -6t-90 -20l18 84q42 13 95 21.5t105 8.5q118 0 163 -52t24 -152l-73 -346h-109l50 238h-158q-60 0 -90.5 -18.5t-40.5 -64.5q-9 -44 8.5 -61
t84.5 -17q41 0 71 8l-18 -83q-20 -5 -46 -8.5t-55 -3.5z" />
    <glyph glyph-name="uni0E26" unicode="&#xe26;" horiz-adv-x="647" 
d="M380 -160l106 498q15 69 -7 96.5t-102 27.5q-51 0 -97 -14t-75 -37l-4 -18l111 -29l-15 -72q-41 -11 -57.5 -32t-25.5 -66l-16 -72q-13 -64 -49.5 -93t-93.5 -29h-67l18 86h37q21 0 31.5 9.5t15.5 32.5l14 67q9 44 30 76t67 48l-104 27l24 112q47 35 118.5 63.5
t158.5 28.5q113 0 166 -53t30 -162l-106 -495h-108z" />
    <glyph glyph-name="uni0E26.short" horiz-adv-x="647" 
d="M391 -110l95 448q15 69 -7.5 96.5t-101.5 27.5q-51 0 -97 -14t-75 -37l-4 -18l111 -29l-15 -72q-41 -11 -57.5 -32t-25.5 -66l-16 -72q-13 -64 -45.5 -93t-97.5 -29h-67l18 86h37q21 0 31.5 9.5t15.5 32.5l14 67q9 44 30 76t67 48l-104 27l24 112q47 35 118.5 63.5
t158.5 28.5q110 0 164.5 -54t31.5 -161l-95 -445h-108z" />
    <glyph glyph-name="uni0E27" unicode="&#xe27;" horiz-adv-x="497" 
d="M134 -10q-92 0 -155 30l18 86q27 -13 61 -21t69 -8q68 0 112 19t70.5 61.5t41.5 112.5t7.5 112t-43 61t-107.5 19q-36 0 -72 -7.5t-69 -21.5l18 87q37 14 78 22t87 8q126 0 180.5 -71.5t25.5 -208.5q-20 -93 -58 -155.5t-101.5 -93.5t-162.5 -31z" />
    <glyph glyph-name="uni0E28" unicode="&#xe28;" horiz-adv-x="636" 
d="M3 0l72 342q14 65 47 111.5t92 71.5t150 25q24 0 45.5 -2.5t39.5 -7.5h206l-23 -85h-78q11 -21 13.5 -51t-4.5 -62l-72 -342h-109l74 352q13 59 -9 84.5t-101 25.5q-69 0 -108.5 -26.5t-51.5 -83.5l-23 -111q52 36 112 36h65l-14 -87h-72q-60 0 -109 -34l-33 -156h-109z
" />
    <glyph glyph-name="uni0E29" unicode="&#xe29;" horiz-adv-x="635" 
d="M247 -10q-112 0 -167 57t-33 163l70 330h109l-71 -334q-16 -73 11 -101t100 -28t112.5 31t53.5 98l15 71h-130l18 83h129l39 180h108l-39 -180h60l-26 -83h-51l-14 -67q-24 -115 -96.5 -167.5t-197.5 -52.5z" />
    <glyph glyph-name="uni0E2A" unicode="&#xe2a;" horiz-adv-x="604" 
d="M161 -10q-48 0 -86.5 17.5t-56.5 54.5t-6 93q17 79 74 123t172 44h165l7 34q9 39 2 62.5t-34.5 33.5t-83.5 10q-47 0 -92 -6t-90 -20l18 84q42 13 95 21.5t105 8.5q26 0 48 -2.5t41 -7.5h184l-24 -85h-70q10 -21 12.5 -49t-4.5 -60l-73 -346h-109l50 238h-158
q-60 0 -90.5 -18.5t-40.5 -64.5q-9 -44 8.5 -61t84.5 -17q41 0 71 8l-18 -83q-20 -5 -46 -8.5t-55 -3.5z" />
    <glyph glyph-name="uni0E2B" unicode="&#xe2b;" horiz-adv-x="604" 
d="M3 0l114 540h109l-36 -170h156q62 0 88.5 25.5t36.5 74.5l15 70h108l-16 -78q-10 -50 -34.5 -88t-76.5 -55q38 -16 47.5 -52t0.5 -79l-40 -188h-108l39 186q12 58 -3 79.5t-74 21.5h-156l-61 -287h-109z" />
    <glyph glyph-name="uni0E2C" unicode="&#xe2c;" horiz-adv-x="726" 
d="M100 0l-11 540h107l-1 -386l154 269l17 77h77l34 -346l122 282q20 48 13 67t-45 19h-40l31 81h44q38 0 59 13.5t36 47.5l15 36h97l-23 -56q-17 -42 -41 -63t-56 -28q45 -29 7 -117l-190 -436h-93l-34 312l-174 -312h-105z" />
    <glyph glyph-name="uni0E2C.short" horiz-adv-x="726" 
d="M100 0l-11 540h107l-2 -414l120 170l17 77h77l60 -250l79 193q20 47 11.5 66t-43.5 19h-40l31 82h44q38 0 61 12t34 49l10 32h97l-18 -52q-14 -42 -39.5 -63t-58.5 -28q48 -27 8 -117l-138 -316h-91l-60 217l-148 -217h-107z" />
    <glyph glyph-name="uni0E2D" unicode="&#xe2d;" horiz-adv-x="575" 
d="M202 -10q-64 0 -117.5 12t-88.5 28l59 278h214l-13 -83h-114l-28 -131q21 -8 50 -12.5t57 -4.5q86 0 133 42.5t69 148.5q17 77 9 119t-45.5 58.5t-111.5 16.5q-43 0 -91.5 -6t-93.5 -20l18 84q45 14 101 22t111 8q133 0 185.5 -71.5t22.5 -210.5q-19 -90 -56.5 -152
t-102.5 -94t-167 -32z" />
    <glyph glyph-name="uni0E2E" unicode="&#xe2e;" horiz-adv-x="603" 
d="M202 -10q-64 0 -117.5 12t-88.5 28l59 278h214l-13 -83h-114l-28 -131q21 -8 50 -12.5t57 -4.5q86 0 133 42.5t69 148.5q17 77 9 119t-45.5 58.5t-111.5 16.5q-43 0 -91.5 -6t-93.5 -20l18 84q45 14 101 22t111 8q24 0 46 -2.5t41 -7.5h215l-23 -85h-86q18 -31 23 -79.5
t-8 -107.5q-19 -90 -56.5 -152t-102.5 -94t-167 -32z" />
    <glyph glyph-name="uni0E30" unicode="&#xe30;" horiz-adv-x="324" 
d="M53 331l27 130h93l-10 -49h147l-21 -81h-236zM-5 59l28 130h93l-11 -50h147l-21 -80h-236z" />
    <glyph glyph-name="uni0E32" unicode="&#xe32;" horiz-adv-x="440" 
d="M207 0l72 340q10 45 7.5 72t-25 38.5t-73.5 11.5q-32 0 -71 -7t-72 -19l18 84q33 13 77 21.5t87 8.5q102 0 144 -47t20 -149l-75 -354h-109z" />
    <glyph glyph-name="uni0E33" unicode="&#xe33;" horiz-adv-x="440" 
d="M-57 598q-46 0 -72.5 31t-16.5 77q11 47 47 78t88 31q47 0 73.5 -31t15.5 -78q-10 -46 -47 -77t-88 -31zM-43 660q19 0 35 14t20 32q5 20 -3.5 34t-31.5 14q-19 0 -36 -14t-22 -34q-4 -18 5 -32t33 -14zM207 0l72 340q10 45 7.5 72t-25 38.5t-73.5 11.5q-32 0 -71 -7
t-72 -19l18 84q33 13 77 21.5t87 8.5q102 0 144 -47t20 -149l-75 -354h-109z" />
    <glyph glyph-name="uni0E40" unicode="&#xe40;" horiz-adv-x="307" 
d="M110 0q-55 0 -74.5 27t-8.5 77l92 436h108l-87 -409q-5 -25 1 -35t34 -10h46l-18 -86h-93z" />
    <glyph glyph-name="uni0E41" unicode="&#xe41;" horiz-adv-x="542" 
d="M351 0q-55 0 -74 27t-9 77l92 436h108l-87 -409q-5 -25 1 -35t34 -10h46l-18 -86h-93zM109 0q-55 0 -74 27t-9 77l92 436h108l-87 -409q-5 -25 1 -35t34 -10h46l-18 -86h-93z" />
    <glyph glyph-name="uni0E42" unicode="&#xe42;" horiz-adv-x="315" 
d="M146 0q-64 0 -78 34.5t-1 92.5l93 435q14 65 -4.5 97.5t-67.5 51.5l18 83h307l-18 -86h-170q35 -22 45 -57.5t-4 -98.5l-90 -421q-5 -26 1.5 -35.5t33.5 -9.5h46l-18 -86h-93z" />
    <glyph glyph-name="uni0E43" unicode="&#xe43;" horiz-adv-x="294" 
d="M95 0q-55 0 -74 27t-9 77l70 331q11 50 35.5 84t53 57.5t50.5 43t27 41.5q6 29 -8.5 39t-47.5 10q-27 0 -56.5 -8t-58.5 -22l17 80q34 18 75.5 27.5t78.5 9.5q71 0 99.5 -30t16.5 -85q-8 -40 -32.5 -68t-54 -53.5t-54.5 -55.5t-34 -73l-64 -301q-5 -26 1.5 -35.5
t33.5 -9.5h46l-18 -86h-93z" />
    <glyph glyph-name="uni0E44" unicode="&#xe44;" horiz-adv-x="301" 
d="M124 0q-55 0 -74 27t-9 77l94 445q12 59 41.5 98t68.5 61h-167l18 86h299l-17 -82q-61 -22 -91.5 -64.5t-46.5 -114.5l-86 -402q-5 -26 1.5 -35.5t33.5 -9.5h46l-18 -86h-93z" />
    <glyph glyph-name="uni0E45" unicode="&#xe45;" horiz-adv-x="440" 
d="M172 -160l107 500q10 45 7.5 72t-25 38.5t-73.5 11.5q-32 0 -71 -7t-72 -19l18 84q33 13 77 21.5t87 8.5q102 0 144 -47t20 -149l-110 -514h-109z" />
    <glyph glyph-name="uni210A" unicode="&#x210a;" horiz-adv-x="583" 
d="M168 -176q-16 0 -40 1.5t-46.5 3.5t-35.5 5l19 87q20 -7 51 -10t52 -3q73 0 122 22t60 74l8 36q-68 -40 -155 -40q-61 0 -106.5 23t-64 73t-1.5 131q26 122 96.5 189.5t174.5 67.5q52 0 86.5 -14t60.5 -43l17 47h93l-96 -453q-12 -58 -47 -102.5t-96 -69.5t-152 -25z
M248 82q38 0 69.5 11.5t58.5 30.5l48 227q-38 50 -110 50q-71 0 -113.5 -45.5t-59.5 -127.5q-12 -58 -6 -90t34 -44t79 -12z" />
    <glyph glyph-name="zero" unicode="0" horiz-adv-x="651" 
d="M262 -18q-145 0 -195.5 88t-17.5 244q23 108 64 184t111 116t181 40q100 0 153.5 -40t66 -116t-10.5 -184q-22 -104 -64 -178.5t-111.5 -114t-176.5 -39.5zM281 75q96 0 148 63.5t75 175.5q18 83 15 138t-34 82t-100 27q-98 0 -150 -64t-76 -183q-15 -78 -12.5 -131
t33.5 -80.5t101 -27.5z" />
    <glyph glyph-name="one" unicode="1" horiz-adv-x="319" 
d="M87 0l116 548l-108 -18l19 91l220 33l-139 -654h-108z" />
    <glyph glyph-name="two" unicode="2" horiz-adv-x="509" 
d="M-17 0l11 54q39 61 96 110t120 95q47 35 78.5 59.5t50.5 44.5t30 41.5t17 50.5q12 56 -10.5 81t-96.5 25q-38 0 -79.5 -8t-80.5 -22l21 96q38 12 87.5 19.5t92.5 7.5q104 0 149 -55t26 -143q-15 -69 -59.5 -116t-110.5 -97q-54 -40 -102.5 -77.5t-83.5 -81.5h284l-17 -84
h-423z" />
    <glyph glyph-name="three" unicode="3" horiz-adv-x="519" 
d="M163 -10q-29 0 -63 3.5t-64 10.5t-49 15l20 95q36 -16 77 -23.5t84 -7.5q78 0 121 23t55 81q11 52 -18.5 75t-93.5 23h-97l26 81h81q128 0 149 100q10 49 -15 72t-106 23q-41 0 -84.5 -8t-78.5 -22l20 93q33 12 83 21t97 9q110 0 161 -50t34 -128q-10 -48 -42.5 -90
t-86.5 -60q55 -15 73 -54t7 -92q-21 -97 -91.5 -143.5t-198.5 -46.5z" />
    <glyph glyph-name="four" unicode="4" horiz-adv-x="543" 
d="M285 0l29 141h-322l17 77l425 426h95l-88 -415h66l-19 -88h-66l-29 -141h-108zM117 226h233l62 294z" />
    <glyph glyph-name="five" unicode="5" horiz-adv-x="515" 
d="M162 -10q-43 0 -92.5 7t-79.5 22l20 95q32 -15 75 -23t83 -8q77 0 119 26.5t55 87.5q8 37 3.5 61.5t-29 36.5t-78.5 12h-190l14 66l74 271h366l-26 -84h-265l-47 -169h109q107 0 153 -51t26 -145q-20 -95 -88 -150t-202 -55z" />
    <glyph glyph-name="six" unicode="6" horiz-adv-x="573" 
d="M224 -10q-115 0 -166 64t-25 185l31 145q17 80 59.5 141t110.5 95t160 34q49 0 84 -6t64 -17l-20 -93q-28 11 -62.5 17t-78.5 6q-90 0 -142 -42.5t-67 -113.5l-9 -40q41 26 89 38.5t85 12.5q107 0 152.5 -55t23.5 -156q-13 -64 -46.5 -112.5t-92.5 -75.5t-150 -27z
M243 72q72 0 115 35t56 94q9 42 4.5 71t-31 44.5t-84.5 15.5q-40 0 -81 -13.5t-76 -35.5l-15 -69q-15 -71 9 -106.5t103 -35.5z" />
    <glyph glyph-name="seven" unicode="7" horiz-adv-x="498" 
d="M50 0l356 560h-314l17 84h431l-14 -70l-365 -574h-111z" />
    <glyph glyph-name="eight" unicode="8" horiz-adv-x="590" 
d="M232 -10q-251 0 -213 184q12 55 51 98t97 61q-46 19 -61 56.5t-6 80.5q18 83 86.5 133.5t187.5 50.5q117 0 164.5 -50.5t29.5 -133.5q-10 -46 -41 -85.5t-91 -60.5q58 -18 78.5 -55.5t7.5 -94.5q-19 -91 -88 -137.5t-202 -46.5zM338 358q57 14 88 38t41 72
q11 51 -13.5 75.5t-98.5 24.5q-65 0 -104 -24t-50 -76q-17 -79 69 -96zM250 75q75 0 118 24.5t54 76.5q10 47 -12 68.5t-75 32.5l-78 17q-53 -11 -88.5 -36.5t-47.5 -79.5q-11 -54 18 -78.5t111 -24.5z" />
    <glyph glyph-name="nine" unicode="9" horiz-adv-x="573" 
d="M195 -10q-49 0 -84 6t-64 16l20 94q29 -12 63 -18t78 -6q90 0 142 43t67 114l9 40q-40 -25 -88 -38t-86 -13q-103 0 -150.5 55t-25.5 156q14 64 47 112t92.5 75.5t149.5 27.5q118 0 167.5 -65.5t23.5 -183.5l-31 -145q-28 -130 -112 -200t-218 -70zM286 311q41 0 82 14
t75 35l15 70q15 71 -10 106t-102 35q-82 0 -120.5 -35t-51.5 -94q-8 -41 -2.5 -70.5t32.5 -45t82 -15.5z" />
    <glyph glyph-name="uni2080" unicode="&#x2080;" horiz-adv-x="360" 
d="M92 -128q-67 0 -94.5 38t-14.5 103q15 71 56 111t115 40q71 0 96 -40t10 -111q-13 -65 -55 -103t-113 -38zM105 -69q38 0 56 21t26 61q10 47 2 69t-47 22q-38 0 -57 -22t-29 -69q-8 -40 2 -61t47 -21z" />
    <glyph glyph-name="uni2081" unicode="&#x2081;" horiz-adv-x="214" 
d="M18 -120l45 211l-75 -15l12 59l153 29l-60 -284h-75z" />
    <glyph glyph-name="uni2082" unicode="&#x2082;" horiz-adv-x="301" 
d="M-43 -120l8 38q20 23 42.5 40.5t49.5 36.5q40 28 56 42.5t20 31.5q4 19 -6.5 27t-40.5 8q-17 0 -37.5 -4t-39.5 -11l13 59q17 5 44.5 10.5t55.5 5.5q52 0 74.5 -25t14.5 -60q-6 -28 -22 -47t-49 -45q-20 -15 -33 -24t-30 -24h107l-13 -59h-214z" />
    <glyph glyph-name="uni2083" unicode="&#x2083;" horiz-adv-x="304" 
d="M46 -128q-22 0 -48.5 3.5t-39.5 9.5l12 54q16 -7 34 -10.5t36 -3.5q36 0 52.5 8t20.5 27q7 35 -52 35h-39l15 48h32q55 0 64 37q3 17 -10.5 23t-42.5 6q-36 0 -72 -13l12 55q14 5 39.5 9t50.5 4q65 0 87.5 -22.5t14.5 -57.5q-4 -21 -17.5 -39t-36.5 -26q23 -7 30.5 -23
t2.5 -39q-18 -85 -145 -85z" />
    <glyph glyph-name="uni2084" unicode="&#x2084;" horiz-adv-x="297" 
d="M82 -120l11 54h-145l12 52l177 178h79l-37 -177h31l-12 -53h-31l-11 -54h-74zM33 -12h88l24 114z" />
    <glyph glyph-name="uni2085" unicode="&#x2085;" horiz-adv-x="303" 
d="M42 -128q-22 0 -46 3t-38 9l12 57q14 -7 33 -10t36 -3q37 0 55.5 8.5t22.5 29.5q5 22 -6.5 30t-45.5 8h-81l10 45l29 105h188l-15 -55h-119l-13 -46h44q53 0 72.5 -22.5t10.5 -65.5q-9 -41 -46.5 -67t-102.5 -26z" />
    <glyph glyph-name="uni2086" unicode="&#x2086;" horiz-adv-x="321" 
d="M75 -128q-55 0 -81.5 26.5t-14.5 83.5l13 62q12 56 53.5 88t102.5 32q22 0 42 -3t32 -8l-12 -55q-11 5 -30.5 7.5t-39.5 2.5q-34 0 -55.5 -14.5t-26.5 -38.5l-2 -12q18 12 38 17.5t38 5.5q55 0 72.5 -24.5t6.5 -72.5q-10 -45 -43 -71t-93 -26zM84 -76q29 0 42.5 11.5
t17.5 33.5q5 23 -2.5 33.5t-36.5 10.5q-15 0 -30.5 -6t-29.5 -15l-4 -19q-5 -25 5 -37t38 -12z" />
    <glyph glyph-name="uni2087" unicode="&#x2087;" horiz-adv-x="289" 
d="M-5 -120l138 215h-140l12 59h222l-10 -50l-144 -224h-78z" />
    <glyph glyph-name="uni2088" unicode="&#x2088;" horiz-adv-x="331" 
d="M78 -128q-54 0 -84 20.5t-21 60.5q9 48 61 68q-19 11 -24.5 27t-1.5 36q8 38 43.5 59t88.5 21t79 -21t18 -59q-4 -20 -15.5 -36.5t-38.5 -29.5q25 -10 32.5 -26t2.5 -39q-9 -40 -47.5 -60.5t-92.5 -20.5zM124 40q24 8 33 16t13 26t-7 26.5t-33 8.5q-48 0 -55 -35
q-3 -14 1.5 -23t21.5 -13zM88 -82q26 0 42 9t20 27q3 16 -4 23.5t-28 13.5l-28 7q-20 -6 -31.5 -14.5t-16.5 -28.5q-7 -37 46 -37z" />
    <glyph glyph-name="uni2089" unicode="&#x2089;" horiz-adv-x="321" 
d="M59 -128q-46 0 -74 10l12 56q12 -5 31 -7.5t39 -2.5q35 0 56 14t26 39l3 12q-34 -23 -74 -23q-55 0 -73 24t-8 73q9 44 42 70.5t93 26.5q58 0 83.5 -27t13.5 -83l-13 -63q-12 -55 -54 -87t-103 -32zM102 23q15 0 31 5.5t30 14.5l4 19q10 49 -44 49q-28 0 -41 -11t-18 -34
q-5 -22 2 -32.5t36 -10.5z" />
    <glyph glyph-name="uni2070" unicode="&#x2070;" horiz-adv-x="360" 
d="M196 362q-67 0 -94.5 38t-14.5 103q15 71 56.5 111t115.5 40q71 0 95.5 -40t9.5 -111q-13 -65 -55 -103t-113 -38zM209 421q38 0 56 21t26 61q11 47 2.5 69t-47.5 22q-38 0 -56.5 -22t-29.5 -69q-8 -40 2 -61t47 -21z" />
    <glyph glyph-name="uni00B9" unicode="&#xb9;" horiz-adv-x="203" 
d="M122 370l45 211l-75 -15l12 59l154 29l-61 -284h-75z" />
    <glyph glyph-name="uni00B2" unicode="&#xb2;" horiz-adv-x="301" 
d="M61 370l8 38q20 23 42.5 40.5t50.5 36.5q39 28 55 42.5t20 31.5q5 19 -4.5 27t-42.5 8q-17 0 -37.5 -4t-38.5 -11l12 59q17 5 45 10.5t56 5.5q49 0 72.5 -25t15.5 -60q-6 -28 -22 -47t-49 -45q-19 -15 -32.5 -24t-30.5 -24h107l-13 -59h-214z" />
    <glyph glyph-name="uni00B3" unicode="&#xb3;" horiz-adv-x="304" 
d="M150 362q-22 0 -48 3.5t-40 9.5l12 54q17 -7 34.5 -10.5t35.5 -3.5q36 0 52.5 8t20.5 27q7 35 -51 35h-39l14 48h32q55 0 64 37q3 17 -8.5 23t-44.5 6q-36 0 -72 -13l12 55q14 5 40 9t51 4q60 0 84.5 -22.5t17.5 -57.5q-4 -21 -18 -39t-37 -26q23 -7 31 -23t3 -39
q-18 -85 -146 -85z" />
    <glyph glyph-name="uni2074" unicode="&#x2074;" horiz-adv-x="297" 
d="M186 370l12 54h-145l11 52l178 178h79l-38 -177h31l-11 -53h-31l-12 -54h-74zM137 478h88l24 114z" />
    <glyph glyph-name="uni2075" unicode="&#x2075;" horiz-adv-x="303" 
d="M146 362q-22 0 -46 3t-38 9l12 57q14 -7 33 -10t36 -3q37 0 55.5 8.5t22.5 29.5q5 22 -6 30t-45 8h-81l9 45l29 105h188l-15 -55h-119l-13 -46h44q53 0 72.5 -22.5t10.5 -65.5q-8 -41 -46 -67t-103 -26z" />
    <glyph glyph-name="uni2076" unicode="&#x2076;" horiz-adv-x="321" 
d="M179 362q-55 0 -81.5 26.5t-14.5 83.5l13 62q12 56 54 88t103 32q22 0 41.5 -3t31.5 -8l-12 -55q-25 10 -69 10q-34 0 -56 -14.5t-27 -38.5l-2 -12q18 12 38 17.5t38 5.5q55 0 72.5 -24.5t6.5 -72.5q-10 -45 -43 -71t-93 -26zM188 414q29 0 42.5 11.5t17.5 33.5
q5 23 -2.5 33.5t-36.5 10.5q-15 0 -30.5 -6t-29.5 -15l-4 -19q-5 -25 5 -37t38 -12z" />
    <glyph glyph-name="uni2077" unicode="&#x2077;" horiz-adv-x="289" 
d="M99 370l138 215h-140l12 59h222l-10 -50l-144 -224h-78z" />
    <glyph glyph-name="uni2078" unicode="&#x2078;" horiz-adv-x="331" 
d="M182 362q-54 0 -84 20.5t-21 60.5q9 48 61 68q-19 11 -24 27t-1 36q8 38 43.5 59t88.5 21t79 -21t18 -59q-4 -20 -16 -36.5t-39 -29.5q26 -10 33 -26t2 -39q-9 -40 -47.5 -60.5t-92.5 -20.5zM228 530q24 8 33 16t13 26q7 35 -39 35q-22 0 -37 -8.5t-19 -26.5
q-3 -14 1.5 -23t21.5 -13zM192 408q26 0 42 9t20 27q3 16 -4 24t-28 13l-28 7q-19 -6 -31 -14.5t-17 -28.5q-7 -37 46 -37z" />
    <glyph glyph-name="uni2079" unicode="&#x2079;" horiz-adv-x="321" 
d="M163 362q-46 0 -73 10l11 56q12 -5 31 -7.5t39 -2.5q35 0 56.5 14t26.5 39l2 12q-34 -23 -74 -23q-55 0 -73 24t-8 73q9 44 42.5 70.5t93.5 26.5q58 0 83 -27t13 -83l-13 -63q-12 -55 -54 -87t-103 -32zM207 513q15 0 30.5 5.5t29.5 14.5l4 19q10 49 -44 49
q-28 0 -41 -11t-18 -34q-5 -22 2.5 -32.5t36.5 -10.5z" />
    <glyph glyph-name="fraction" unicode="&#x2044;" horiz-adv-x="153" 
d="M-197 0l457 662h109l-455 -662h-111z" />
    <glyph glyph-name="onehalf" unicode="&#xbd;" horiz-adv-x="651" 
d="M133 370l45 211l-75 -15l12 59l154 29l-61 -284h-75zM34 0l477 644h102l-477 -644h-102zM323 0l8 38q20 23 42 40.5t50 36.5q40 28 56 42.5t20 31.5q4 19 -7 27t-41 8q-17 0 -37 -4t-39 -11l12 59q17 5 45 10.5t56 5.5q52 0 74.5 -25t14.5 -60q-6 -28 -22.5 -47
t-49.5 -45q-19 -15 -32.5 -24t-30.5 -24h107l-12 -59h-214z" />
    <glyph glyph-name="uni2153" unicode="&#x2153;" horiz-adv-x="661" 
d="M133 370l45 211l-75 -15l12 59l154 29l-61 -284h-75zM34 0l477 644h102l-477 -644h-102zM415 -9q-22 0 -48.5 4t-40.5 9l12 54q32 -13 70 -13q36 0 52.5 7.5t20.5 26.5q8 35 -51 35h-39l14 49h32q55 0 64 36q5 30 -53 30q-18 0 -36.5 -4t-35.5 -9l12 54q14 5 40 9t51 4
q65 0 87.5 -22t14.5 -57q-4 -22 -18 -39.5t-37 -26.5q23 -6 31 -22.5t3 -39.5q-18 -85 -145 -85z" />
    <glyph glyph-name="uni2154" unicode="&#x2154;" horiz-adv-x="684" 
d="M61 370l8 38q20 23 42.5 40.5t50.5 36.5q39 28 55 42.5t20 31.5q5 19 -6 27t-41 8q-17 0 -37.5 -4t-38.5 -11l12 59q17 5 45 10.5t56 5.5q52 0 74 -25t14 -60q-6 -28 -22 -47t-49 -45q-19 -15 -32.5 -24t-30.5 -24h107l-13 -59h-214zM38 0l477 644h103l-478 -644h-102z
M419 -9q-22 0 -48.5 4t-40.5 9l12 54q32 -13 70 -13q36 0 52.5 7.5t20.5 26.5q8 35 -51 35h-39l14 49h32q55 0 64 36q5 30 -53 30q-18 0 -36.5 -4t-35.5 -9l12 54q14 5 40 9t51 4q65 0 87.5 -22t14.5 -57q-4 -22 -18 -39.5t-37 -26.5q23 -6 31 -22.5t3 -39.5
q-18 -85 -145 -85z" />
    <glyph glyph-name="onequarter" unicode="&#xbc;" horiz-adv-x="644" 
d="M133 370l45 211l-75 -15l12 59l154 29l-61 -284h-75zM34 0l477 644h102l-477 -644h-102zM435 0l11 54h-144l11 52l177 178h80l-38 -177h30l-11 -53h-30l-11 -54h-75zM386 108h87l25 114z" />
    <glyph glyph-name="threequarters" unicode="&#xbe;" horiz-adv-x="660" 
d="M150 362q-22 0 -48 3.5t-40 9.5l11 53q17 -7 34.5 -10.5t35.5 -3.5q36 0 53 8.5t21 27.5q7 35 -51 35h-39l14 48h32q55 0 64 37q3 17 -9 23.5t-44 6.5q-36 0 -72 -13l12 54q14 5 40 9t51 4q63 0 86 -22.5t16 -57.5q-4 -21 -18 -39t-37 -26q23 -7 31 -23t3 -39
q-18 -85 -146 -85zM39 0l476 644h103l-477 -644h-102zM440 0l11 54h-145l11 52l178 178h79l-38 -177h31l-11 -53h-31l-11 -54h-74zM390 108h88l25 114z" />
    <glyph glyph-name="oneeighth" unicode="&#x215b;" horiz-adv-x="665" 
d="M133 370l45 211l-75 -15l12 59l154 29l-61 -284h-75zM34 0l477 644h102l-477 -644h-102zM425 -10q-54 0 -84 20.5t-21 60.5q9 48 61 68q-19 11 -24.5 27t-1.5 36q8 38 43.5 59t88.5 21t79 -21t18 -59q-4 -20 -15.5 -36.5t-38.5 -29.5q25 -10 32.5 -26t2.5 -39
q-9 -40 -47.5 -60.5t-92.5 -20.5zM471 158q24 8 33 16t13 26t-7 26.5t-33 8.5q-48 0 -55 -35q-3 -14 1.5 -23t21.5 -13zM435 36q26 0 42 9t20 27q3 16 -4 24t-28 13l-28 7q-20 -6 -31.5 -14.5t-16.5 -28.5q-7 -37 46 -37z" />
    <glyph glyph-name="threeeighths" unicode="&#x215c;" horiz-adv-x="672" 
d="M150 362q-22 0 -48 3.5t-40 9.5l12 54q17 -7 34.5 -10.5t35.5 -3.5q36 0 52.5 8t20.5 27q7 35 -51 35h-39l14 48h32q55 0 64 37q3 17 -10.5 23t-42.5 6q-36 0 -72 -13l12 55q14 5 40 9t51 4q65 0 87 -22.5t15 -57.5q-4 -21 -18 -39t-37 -26q23 -7 31 -23t3 -39
q-18 -85 -146 -85zM35 0l476 644h103l-477 -644h-102zM425 -10q-54 0 -84 20.5t-21 60.5q9 48 61 68q-19 11 -24.5 27t-1.5 36q8 38 43.5 59t88.5 21t79 -21t18 -59q-4 -20 -15.5 -36.5t-38.5 -29.5q25 -10 32.5 -26t2.5 -39q-9 -40 -47.5 -60.5t-92.5 -20.5zM471 158
q24 8 33 16t13 26t-7 26.5t-33 8.5q-48 0 -55 -35q-3 -14 1.5 -23t21.5 -13zM435 36q26 0 42 9t20 27q3 16 -4 24t-28 13l-28 7q-20 -6 -31.5 -14.5t-16.5 -28.5q-7 -37 46 -37z" />
    <glyph glyph-name="fiveeighths" unicode="&#x215d;" horiz-adv-x="657" 
d="M29 0l477 644h103l-478 -644h-102zM146 362q-22 0 -46 3t-38 9l12 57q14 -7 33 -10t36 -3q37 0 55.5 8.5t22.5 29.5q5 22 -6 30t-45 8h-81l9 45l29 105h188l-15 -55h-119l-13 -46h44q53 0 72.5 -22.5t10.5 -65.5q-8 -41 -46 -67t-103 -26zM420 -10q-54 0 -84 20.5
t-21 60.5q9 48 61 68q-19 11 -24.5 27t-1.5 36q8 38 43.5 59t88.5 21t79 -21t18 -59q-4 -20 -15.5 -36.5t-38.5 -29.5q25 -10 32.5 -26t2.5 -39q-9 -40 -47.5 -60.5t-92.5 -20.5zM466 158q24 8 33 16t13 26t-7 26.5t-33 8.5q-48 0 -55 -35q-3 -14 1.5 -23t21.5 -13zM430 36
q26 0 42 9t20 27q3 16 -4 24t-28 13l-28 7q-20 -6 -31.5 -14.5t-16.5 -28.5q-7 -37 46 -37z" />
    <glyph glyph-name="seveneighths" unicode="&#x215e;" horiz-adv-x="667" 
d="M35 0l477 644h103l-478 -644h-102zM109 370l138 215h-140l12 59h222l-10 -50l-144 -224h-78zM426 -10q-54 0 -84 20.5t-21 60.5q9 48 61 68q-19 11 -24.5 27t-1.5 36q8 38 43.5 59t88.5 21t79 -21t18 -59q-4 -20 -15.5 -36.5t-38.5 -29.5q25 -10 32.5 -26t2.5 -39
q-9 -40 -47.5 -60.5t-92.5 -20.5zM472 158q24 8 33 16t13 26t-7 26.5t-33 8.5q-48 0 -55 -35q-3 -14 1.5 -23t21.5 -13zM436 36q26 0 42 9t20 27q3 16 -4 24t-28 13l-28 7q-20 -6 -31.5 -14.5t-16.5 -28.5q-7 -37 46 -37z" />
    <glyph glyph-name="uni0E50" unicode="&#xe50;" horiz-adv-x="612" 
d="M243 -10q-75 0 -129 27t-76.5 82t-4.5 138q26 124 108 185.5t207 61.5q75 0 128.5 -27.5t76.5 -82t5 -137.5q-27 -125 -108.5 -186t-206.5 -61zM262 77q77 0 125 37.5t66 122.5q18 84 -10.5 121.5t-112.5 37.5q-76 0 -125 -37.5t-67 -121.5q-18 -85 12 -122.5t112 -37.5z
" />
    <glyph glyph-name="uni0E51" unicode="&#xe51;" horiz-adv-x="637" 
d="M214 -105l20 92q107 24 164 80.5t77 152.5q18 85 -10 130.5t-123 45.5q-88 0 -136.5 -34.5t-64.5 -107.5q-13 -62 6.5 -89.5t85.5 -27.5q23 0 50 6t45 16l-17 -83q-23 -12 -52.5 -19t-67.5 -7q-56 0 -96 24t-56 69.5t-3 110.5q24 110 103 170t221 60q134 0 190.5 -69.5
t29.5 -197.5q-25 -118 -118 -204.5t-248 -117.5z" />
    <glyph glyph-name="uni0E52" unicode="&#xe52;" horiz-adv-x="703" 
d="M297 -10q-88 0 -149 29t-86.5 83.5t-9.5 131.5l65 306h98l-64 -304q-17 -79 18.5 -120.5t145.5 -41.5q87 0 141.5 34t69.5 107l28 131q7 30 1 44.5t-30 14.5q-23 0 -38.5 -16t-24.5 -38h-62q-2 22 -7.5 38t-29.5 16q-28 0 -43.5 -21.5t-26.5 -70.5q-9 -43 4.5 -59
t60.5 -16q36 0 63 9l-14 -68q-18 -6 -37.5 -9.5t-43.5 -3.5q-40 0 -70 15.5t-43.5 48t-2.5 83.5q20 91 60 131t94 40q33 0 51.5 -11.5t31.5 -37.5q27 27 54 38t64 11q59 0 80 -36t9 -92l-28 -132q-24 -113 -107.5 -173.5t-221.5 -60.5z" />
    <glyph glyph-name="uni0E53" unicode="&#xe53;" horiz-adv-x="641" 
d="M195 -10q-61 0 -105 22t-61 73.5t1 139.5q29 134 85 196.5t141 62.5q72 0 99 -54q55 54 129 54q59 0 91.5 -35.5t19.5 -94.5l-75 -354h-106l71 335q7 35 -2.5 48t-38.5 13q-23 0 -41.5 -13.5t-24.5 -39.5l-18 -86l-83 1l19 86q5 26 -8.5 39t-35.5 13q-46 0 -72.5 -41
t-46.5 -131q-13 -60 -6.5 -92t33 -43.5t74.5 -11.5q19 0 37.5 2t33.5 6l-18 -83q-19 -6 -41 -9t-51 -3z" />
    <glyph glyph-name="uni0E54" unicode="&#xe54;" horiz-adv-x="629" 
d="M213 -10q-106 0 -157 58.5t-26 174.5q26 125 118.5 193t258.5 68q77 0 130.5 8t100.5 34l-18 -88q-43 -23 -99.5 -31.5t-127.5 -8.5q-114 0 -177 -41.5t-83 -133.5q-16 -79 9.5 -113t98.5 -34q22 0 46 9q-9 30 0 73q14 65 65 101t121 36q63 0 95 -19l-16 -75
q-13 8 -30.5 12t-36.5 4q-43 0 -68.5 -13t-33.5 -48q-7 -35 8.5 -49.5t49.5 -17t79 -2.5h43l-18 -87h-76q-38 0 -70 5.5t-55 16.5q-32 -17 -64.5 -24.5t-66.5 -7.5z" />
    <glyph glyph-name="uni0E55" unicode="&#xe55;" horiz-adv-x="626" 
d="M213 -10q-106 0 -157 58.5t-26 174.5q18 86 74.5 147.5t144.5 86.5q-27 3 -45 11t-26 13l14 67q14 -11 40.5 -22t58.5 -20.5t63.5 -15.5t55.5 -6q76 0 128.5 8t99.5 34l-18 -88q-43 -23 -99.5 -31.5t-127.5 -8.5q-114 0 -177 -41.5t-83 -133.5q-16 -79 9.5 -113t98.5 -34
q22 0 46 9q-9 30 0 73q14 65 65 101t121 36q63 0 95 -19l-16 -75q-13 8 -30.5 12t-36.5 4q-43 0 -68.5 -13t-33.5 -48q-7 -35 8.5 -49.5t49.5 -17t79 -2.5h43l-18 -87h-76q-38 0 -70 5.5t-55 16.5q-32 -17 -64.5 -24.5t-66.5 -7.5z" />
    <glyph glyph-name="uni0E56" unicode="&#xe56;" horiz-adv-x="646" 
d="M271 -10q-54 0 -99.5 12.5t-79.5 39.5l19 87q38 -29 80.5 -40.5t90.5 -11.5q85 0 136.5 38.5t69.5 120.5q17 81 -6.5 120.5t-106.5 39.5q-125 0 -185 -127h-77l-36 271h96l19 -158q37 48 93.5 75t123.5 27q81 0 126 -32t58.5 -88t-1.5 -128q-25 -115 -105.5 -180.5
t-215.5 -65.5z" />
    <glyph glyph-name="uni0E57" unicode="&#xe57;" horiz-adv-x="852" 
d="M195 -10q-62 0 -106 22.5t-60.5 74t1.5 138.5q29 134 82 196.5t138 62.5q41 0 62.5 -13.5t34.5 -40.5q29 28 60 41t71 13q61 0 89.5 -36.5t15.5 -95.5l-57 -271h17q59 0 87 24.5t42 88.5l73 346h97l-69 -327q-16 -74 -45 -121.5t-78.5 -69.5t-128.5 -22h-107l71 335
q7 35 -2 48.5t-41 13.5q-21 0 -41.5 -13.5t-25.5 -39.5l-19 -86h-90l18 85q6 27 -6 40.5t-34 13.5q-46 0 -71 -46t-42 -127q-13 -64 -6 -96t35 -43t75 -11q17 0 37 2t34 6l-17 -80q-37 -12 -94 -12z" />
    <glyph glyph-name="uni0E58" unicode="&#xe58;" horiz-adv-x="628" 
d="M150 -10q-73 0 -109 58t-10 179q28 131 113 194t244 63q81 0 140 7.5t108 34.5l-18 -88q-44 -23 -106.5 -31.5t-139.5 -8.5q-69 0 -117 -15.5t-77.5 -52.5t-43.5 -103q-19 -88 -6.5 -119.5t57.5 -31.5q26 0 47.5 13.5t27.5 39.5l16 77h77l-16 -78q-6 -27 13 -39.5
t41 -12.5t36 4t28 14l29 132h-65l20 68h147l-55 -258q-31 -22 -63.5 -34t-78.5 -12q-37 0 -64 12.5t-42 39.5q-25 -27 -58.5 -39.5t-74.5 -12.5z" />
    <glyph glyph-name="uni0E59" unicode="&#xe59;" horiz-adv-x="744" 
d="M168 -10q-50 0 -88 24.5t-52.5 77t3.5 134.5q28 132 83 195t146 63q44 0 65.5 -14t30.5 -40q23 26 55.5 40t69.5 14q57 0 84.5 -28.5t19.5 -75.5l-3 -17h6q37 0 54.5 16t27.5 65l16 76h85l-11 -54q-15 -69 -38 -108.5t-63.5 -56t-106.5 -16.5h-62l9 42q8 38 1.5 54
t-41.5 16q-30 0 -47.5 -16.5t-15.5 -46.5l28 -334h-94l-29 345q-2 26 -12.5 39t-42.5 13q-42 0 -68 -41.5t-46 -132.5q-19 -86 -2.5 -117.5t74.5 -31.5q15 0 30 2t28 6l-18 -85q-31 -7 -76 -7z" />
    <glyph glyph-name="period" unicode="." horiz-adv-x="179" 
d="M-17 0l18 85h92l-18 -85h-92z" />
    <glyph glyph-name="comma" unicode="," horiz-adv-x="211" 
d="M-43 -120l70 189h95l-86 -189h-79z" />
    <glyph glyph-name="colon" unicode=":" horiz-adv-x="179" 
d="M52 326l18 86h92l-18 -86h-92zM-12 25l18 86h92l-18 -86h-92z" />
    <glyph glyph-name="semicolon" unicode=";" horiz-adv-x="212" 
d="M85 326l18 86h91l-18 -86h-91zM-41 -112l70 189h95l-86 -189h-79z" />
    <glyph glyph-name="ellipsis" unicode="&#x2026;" horiz-adv-x="572" 
d="M-17 0l17 84h91l-17 -84h-91zM181 0l17 84h90l-17 -84h-90zM378 0l17 84h90l-17 -84h-90z" />
    <glyph glyph-name="exclam" unicode="!" horiz-adv-x="203" 
d="M27 161l62 322l34 161h109l-34 -161l-74 -322h-97zM-17 0l17 82h116l-17 -82h-116z" />
    <glyph glyph-name="exclamdown" unicode="&#xa1;" horiz-adv-x="203" 
d="M70 392l17 82h116l-17 -82h-116zM-46 -170l34 161l74 322h97l-62 -322l-34 -161h-109z" />
    <glyph glyph-name="question" unicode="?" horiz-adv-x="495" 
d="M128 162l5 22q8 40 31 69t54 52t61 44q37 26 64.5 51.5t35.5 62.5q8 35 1 56.5t-35 31.5t-85 10q-42 0 -86.5 -10.5t-79.5 -25.5l20 92q37 17 88 27t106 10q103 0 152 -48.5t31 -134.5q-12 -56 -45.5 -90.5t-86.5 -70.5q-32 -23 -56 -41t-39.5 -38.5t-22.5 -51.5l-4 -17
h-109zM90 0l17 82h116l-17 -82h-116z" />
    <glyph glyph-name="questiondown" unicode="&#xbf;" horiz-adv-x="495" 
d="M255 392l17 82h116l-17 -82h-116zM170 -180q-103 0 -152 49t-31 134q12 56 46 90t86 71q32 23 56 41t39.5 39t22.5 51l4 17h109l-5 -22q-9 -39 -32 -68.5t-53 -52.5t-61 -44q-37 -25 -64.5 -51t-35.5 -63q-8 -35 -1.5 -56.5t35 -31.5t85.5 -10q42 0 87 10.5t79 25.5
l-20 -92q-37 -16 -87.5 -26.5t-106.5 -10.5z" />
    <glyph glyph-name="periodcentered" unicode="&#xb7;" horiz-adv-x="179" 
d="M34 242l18 85h92l-18 -85h-92z" />
    <glyph glyph-name="bullet" unicode="&#x2022;" horiz-adv-x="334" 
d="M140 164q-51 0 -79 35.5t-17 87.5q7 34 29.5 62t54 45t65.5 17q52 0 80.5 -36.5t17.5 -87.5q-7 -34 -30 -62t-54.5 -44.5t-66.5 -16.5z" />
    <glyph glyph-name="asterisk" unicode="*" horiz-adv-x="432" 
d="M145 323l-57 50l110 97l-106 48l48 65l92 -50l18 111h84l-28 -111l112 50l19 -68l-126 -48l68 -97l-71 -47l-58 107z" />
    <glyph glyph-name="numbersign" unicode="#" horiz-adv-x="702" 
d="M13 0l90 172h-84l16 73h107l80 153h-109l16 74h132l90 172h94l-91 -172h170l90 172h95l-91 -172h81l-16 -74h-104l-80 -153h106l-16 -73h-129l-90 -172h-94l90 172h-170l-90 -172h-93zM235 245h170l80 153h-170z" />
    <glyph glyph-name="slash" unicode="/" horiz-adv-x="431" 
d="M-17 0l374 662h111l-374 -662h-111z" />
    <glyph glyph-name="backslash" unicode="\" horiz-adv-x="451" 
d="M224 -54l-101 716h112l100 -716h-111z" />
    <glyph glyph-name="uni208D" unicode="&#x208d;" horiz-adv-x="220" 
d="M7 -146q-21 29 -26 73.5t5 88.5q9 44 32.5 88.5t57.5 73.5h77q-40 -33 -63.5 -75.5t-32.5 -86.5q-10 -45 -4 -87.5t31 -74.5h-77z" />
    <glyph glyph-name="uni208E" unicode="&#x208e;" horiz-adv-x="220" 
d="M-49 -146q41 32 64.5 74.5t33.5 87.5q9 44 3.5 86.5t-32.5 75.5h78q21 -29 25.5 -73.5t-4.5 -88.5q-10 -44 -33 -88.5t-57 -73.5h-78z" />
    <glyph glyph-name="parenleft" unicode="(" horiz-adv-x="325" 
d="M102 -72q-40 44 -56.5 105t-14.5 131t16 139q15 69 42.5 138.5t70.5 131t102 105.5h123q-94 -69 -149 -164.5t-79 -210.5q-25 -115 -10.5 -210.5t78.5 -164.5h-123z" />
    <glyph glyph-name="parenright" unicode=")" horiz-adv-x="325" 
d="M-53 -72q95 69 149 164.5t79 210.5q24 115 10.5 210.5t-78.5 164.5h124q40 -44 56 -105.5t14.5 -131t-16.5 -138.5q-14 -69 -42 -139t-70.5 -131t-101.5 -105h-124z" />
    <glyph glyph-name="braceleft" unicode="{" horiz-adv-x="304" 
d="M112 -104q-58 0 -76.5 28.5t-5.5 87.5l34 160q9 43 1 65.5t-46 26.5l14 68q44 5 60.5 29.5t26.5 71.5l33 157q13 59 42.5 84.5t96.5 25.5h66l-18 -84h-29q-26 0 -37.5 -11t-17.5 -40l-38 -178q-6 -28 -24.5 -55t-50.5 -38q27 -12 34 -38t1 -55l-36 -170q-6 -29 1 -40
t33 -11h29l-18 -84h-75z" />
    <glyph glyph-name="braceright" unicode="}" horiz-adv-x="304" 
d="M-50 -104l18 84h29q26 0 38 11t18 40l38 179q6 29 24 55t51 38q-28 11 -34.5 38t-0.5 55l36 169q6 29 -1.5 40t-33.5 11h-29l18 84h66q67 0 86.5 -25.5t6.5 -84.5l-33 -157q-10 -47 -3.5 -71.5t46.5 -29.5l-14 -68q-40 -4 -58 -26.5t-27 -65.5l-34 -160
q-13 -59 -43 -87.5t-89 -28.5h-75z" />
    <glyph glyph-name="bracketleft" unicode="[" horiz-adv-x="351" 
d="M-39 -99l172 805h271l-16 -85h-165l-135 -636h166l-22 -84h-271z" />
    <glyph glyph-name="bracketright" unicode="]" horiz-adv-x="351" 
d="M-45 -99l14 84h166l135 636h-165l22 85h271l-172 -805h-271z" />
    <glyph glyph-name="uni207D" unicode="&#x207d;" horiz-adv-x="220" 
d="M113 352q-22 29 -26.5 73.5t5.5 88.5q9 44 32.5 88.5t57.5 73.5h77q-40 -33 -63.5 -75.5t-32.5 -86.5q-10 -45 -4.5 -87.5t31.5 -74.5h-77z" />
    <glyph glyph-name="uni207E" unicode="&#x207e;" horiz-adv-x="220" 
d="M57 352q41 32 64.5 74.5t33.5 87.5q9 44 3.5 86.5t-32.5 75.5h78q22 -29 26 -73.5t-5 -88.5q-10 -44 -33 -88.5t-57 -73.5h-78z" />
    <glyph glyph-name="hyphen" unicode="-" horiz-adv-x="468" 
d="M31 227l18 85h382l-18 -85h-382z" />
    <glyph glyph-name="uni00AD" unicode="&#xad;" horiz-adv-x="468" 
d="M31 227l18 85h382l-18 -85h-382z" />
    <glyph glyph-name="endash" unicode="&#x2013;" horiz-adv-x="575" 
d="M31 227l18 85h489l-18 -85h-489z" />
    <glyph glyph-name="emdash" unicode="&#x2014;" horiz-adv-x="858" 
d="M31 227l18 85h771l-18 -85h-771z" />
    <glyph glyph-name="figuredash" unicode="&#x2012;" horiz-adv-x="603" 
d="M31 227l18 85h516l-18 -85h-516z" />
    <glyph glyph-name="uni2015" unicode="&#x2015;" horiz-adv-x="903" 
d="M31 227l18 85h817l-18 -85h-817z" />
    <glyph glyph-name="uni2010" unicode="&#x2010;" horiz-adv-x="503" 
d="M31 227l18 85h416l-18 -85h-416z" />
    <glyph glyph-name="underscore" unicode="_" horiz-adv-x="541" 
d="M-34 -77l17 77h454l-17 -77h-454z" />
    <glyph glyph-name="quotesinglbase" unicode="&#x201a;" horiz-adv-x="235" 
d="M-52 -162l95 195h95l-108 -195h-82z" />
    <glyph glyph-name="quotedblbase" unicode="&#x201e;" horiz-adv-x="374" 
d="M-42 -115l95 195h88l-108 -195h-75zM105 -115l94 195h88l-108 -195h-74z" />
    <glyph glyph-name="quotedblleft" unicode="&#x201c;" horiz-adv-x="374" 
d="M80 459l108 195h75l-95 -195h-88zM227 459l108 195h74l-94 -195h-88z" />
    <glyph glyph-name="quotedblright" unicode="&#x201d;" horiz-adv-x="374" 
d="M80 459l95 195h88l-108 -195h-75zM227 459l94 195h88l-108 -195h-74z" />
    <glyph glyph-name="quoteleft" unicode="&#x2018;" horiz-adv-x="235" 
d="M80 459l108 195h82l-94 -195h-96z" />
    <glyph glyph-name="quoteright" unicode="&#x2019;" horiz-adv-x="235" 
d="M80 459l95 195h95l-108 -195h-82z" />
    <glyph glyph-name="guillemotleft" unicode="&#xab;" horiz-adv-x="620" 
d="M256 73l-218 190l10 46l299 190l29 -66l-236 -152l172 -151zM489 73l-218 190l10 46l299 190l28 -66l-235 -152l171 -151z" />
    <glyph glyph-name="guillemotright" unicode="&#xbb;" horiz-adv-x="620" 
d="M41 73l-30 65l236 151l-172 152l57 58l217 -190l-10 -46zM273 73l-29 65l235 151l-171 152l56 58l217 -190l-10 -46z" />
    <glyph glyph-name="guilsinglleft" unicode="&#x2039;" horiz-adv-x="388" 
d="M256 73l-218 190l10 46l299 190l29 -66l-236 -152l172 -151z" />
    <glyph glyph-name="guilsinglright" unicode="&#x203a;" horiz-adv-x="388" 
d="M41 73l-30 65l236 151l-172 152l57 58l217 -190l-10 -46z" />
    <glyph glyph-name="quotedbl" unicode="&#x22;" horiz-adv-x="341" 
d="M239 455l40 189h94l-53 -189h-81zM79 455l40 189h94l-53 -189h-81z" />
    <glyph glyph-name="quotesingle" unicode="'" horiz-adv-x="181" 
d="M79 455l40 189h94l-53 -189h-81z" />
    <glyph glyph-name="uni0E5A" unicode="&#xe5a;" horiz-adv-x="879" 
d="M322 0l59 278q-30 -16 -68 -26.5t-78 -10.5q-54 0 -94 20t-58 58.5t-7 93.5q8 35 22 66t33 61h107q-21 -30 -34.5 -59t-21.5 -63q-10 -46 9 -69t75 -23q77 0 132 36l38 178h109l-38 -180q11 -16 33 -25t50 -9q77 0 132 36l38 178h109l-114 -540h-109l59 278
q-30 -16 -68 -26.5t-78 -10.5q-22 0 -41.5 5t-31.5 15l-55 -261h-109z" />
    <glyph glyph-name="uni0E4F" unicode="&#xe4f;" horiz-adv-x="604" 
d="M239 -10q-71 0 -122.5 34.5t-74 93t-7.5 130.5q11 53 41 100t73.5 82.5t94.5 55.5t105 20q71 0 122 -35t73.5 -93.5t7.5 -129.5q-11 -54 -41 -101t-73.5 -82t-94.5 -55t-104 -20zM255 65q50 0 97 24.5t81 66.5t44 92q11 50 -3 91.5t-49.5 66.5t-91.5 25q-50 0 -97 -25
t-80.5 -66.5t-44.5 -91.5q-10 -50 2.5 -92t48 -66.5t93.5 -24.5zM267 120q-55 0 -83.5 37.5t-17.5 90.5q8 35 31 64t56 46t68 17q58 0 84.5 -37t15.5 -90q-7 -35 -30.5 -64.5t-56 -46.5t-67.5 -17zM280 183q27 0 50 19t28 46q6 26 -6.5 45t-43.5 19q-28 0 -50 -19t-28 -45
q-5 -27 7 -46t43 -19z" />
    <glyph glyph-name="uni0E5B" unicode="&#xe5b;" horiz-adv-x="1175" 
d="M262 22q-127 0 -186 70.5t-32 197.5q16 75 52.5 133.5t94.5 92.5t139 34q105 0 145 -51t22 -135q-16 -72 -64 -119t-124 -70l17 81q43 20 62 45t26 61q8 36 4 62t-27.5 39.5t-72.5 13.5q-73 0 -120 -51t-64 -132q-21 -98 9.5 -146.5t135.5 -48.5q110 0 180.5 64.5
t93.5 174.5q16 71 17 130h94q16 -40 25 -90.5t9 -96.5h2q13 22 27 53t25 62t14 53h70q7 -26 15 -70.5t9 -86.5h2q10 17 21 42t21.5 51.5t16.5 48.5h60q6 -16 10 -40.5t6.5 -49.5t2.5 -43h2q14 22 25.5 52t17.5 60h55q-2 -16 -6 -32t-8 -27h60l-17 -60h-70q-10 -22 -22 -41
t-30 -42h-55q1 14 -0.5 36.5t-5 45.5t-7.5 37h-2q-5 -14 -16 -41.5t-24 -55t-23 -44.5h-71q2 35 -3 78.5t-14 74.5h-2q-6 -22 -19 -53.5t-28 -63.5t-30 -58h-70q5 28 5 61.5t-3.5 65.5t-9.5 56h-2q-16 -99 -64 -172.5t-123.5 -114.5t-177.5 -41z" />
    <glyph glyph-name="uni0E46" unicode="&#xe46;" horiz-adv-x="594" 
d="M361 0l86 407q5 23 1 39t-30 16q-20 0 -37.5 -12.5t-32.5 -35.5h-51q-4 23 -10.5 35.5t-28.5 12.5q-58 0 -79 -96q-10 -48 5 -68.5t63 -20.5q19 0 38 2t33 6l-18 -84q-19 -6 -40.5 -9t-50.5 -3q-77 0 -119 45t-24 132q11 49 34.5 90.5t61 67.5t90.5 26q35 0 55 -11.5
t33 -38.5q28 27 57.5 38.5t66.5 11.5q59 0 83 -38t8 -112l-85 -400h-109z" />
    <glyph glyph-name="uni0E2F" unicode="&#xe2f;" horiz-adv-x="555" 
d="M322 0l59 278q-30 -16 -68 -26.5t-78 -10.5q-54 0 -94 20t-58 58.5t-7 93.5q8 35 22 66t33 61h107q-21 -30 -34.5 -59t-21.5 -63q-10 -46 8.5 -69t75.5 -23q77 0 132 36l38 178h109l-114 -540h-109z" />
    <glyph glyph-name="uni2007" unicode="&#x2007;" horiz-adv-x="651" 
 />
    <glyph glyph-name="space" unicode=" " horiz-adv-x="230" 
 />
    <glyph glyph-name="uni00A0" unicode="&#xa0;" horiz-adv-x="230" 
 />
    <glyph glyph-name="CR" unicode="&#xd;" horiz-adv-x="230" 
 />
    <glyph glyph-name="uni0E3F" unicode="&#xe3f;" horiz-adv-x="631" 
d="M185 -86l18 86h-200l136 644h201l19 86h81l-19 -86h30q88 0 128.5 -45t23.5 -127q-11 -52 -39.5 -87.5t-67.5 -53.5q44 -13 64.5 -46.5t6.5 -98.5q-40 -186 -238 -186h-45l-18 -86h-81zM190 369h92l41 193h-92zM363 369h15q55 0 84 25.5t38 68.5q7 33 3.5 55t-25.5 33
t-71 11h-3zM129 80h91l45 209h-92zM301 80h22q58 0 90 24.5t45 85.5q11 50 -10.5 74.5t-91.5 24.5h-10z" />
    <glyph glyph-name="uni20B5" unicode="&#x20b5;" horiz-adv-x="597" 
d="M220 -120l24 114q-117 17 -170 101t-25 217q21 96 62 168.5t108.5 116.5t164.5 54l18 84h82l-18 -82q48 -1 86.5 -9t72.5 -21l-20 -95q-34 14 -74 23t-84 10l-102 -479q43 1 87 8.5t86 22.5l-21 -96q-38 -11 -80.5 -18t-91.5 -9l-23 -110h-82zM264 87l99 468
q-86 -17 -134 -79t-70 -164q-20 -96 3 -152.5t102 -72.5z" />
    <glyph glyph-name="cent" unicode="&#xa2;" horiz-adv-x="493" 
d="M181 -86l16 78q-99 9 -143.5 71.5t-20.5 173.5q24 114 93 174.5t176 70.5l17 78h80l-17 -77q32 -2 56.5 -9.5t46.5 -18.5l-17 -81q-39 22 -104 25l-69 -326q61 3 116 27l-18 -83q-53 -20 -116 -25l-16 -78h-80zM216 77l67 317q-55 -12 -90.5 -49t-49.5 -108
q-15 -70 0 -109.5t73 -50.5z" />
    <glyph glyph-name="colonmonetary" unicode="&#x20a1;" horiz-adv-x="573" 
d="M59 -31l51 109q-46 34 -62.5 91.5t0.5 139.5q29 137 105 213t205 89l28 60h75l-27 -57q14 -1 27.5 -2t25.5 -3l29 62h74l-36 -76q10 -2 19 -5.5t18 -6.5l-20 -95q-13 6 -28 10.5t-30 8.5l-180 -385q41 1 84 8.5t84 22.5l-20 -96q-43 -13 -88.5 -20t-100.5 -7h-2l-28 -61
h-74l31 67q-26 4 -49 12l-37 -79h-74zM261 126l184 393q-10 1 -20.5 1.5t-21.5 0.5h-12l-179 -383q11 -4 23 -7t26 -5zM160 186l150 322q-64 -19 -99.5 -69t-52.5 -130q-8 -40 -8 -70t10 -53z" />
    <glyph glyph-name="currency" unicode="&#xa4;" horiz-adv-x="572" 
d="M43 54l-36 60l94 60q-20 41 -8 95q11 53 48 93l-67 62l60 59l69 -65q26 17 56.5 27.5t61.5 10.5q32 0 58 -10.5t45 -28.5l98 66l36 -59l-96 -62q10 -19 13 -43t-2 -50q-6 -26 -19.5 -50.5t-31.5 -44.5l70 -61l-61 -59l-70 64q-26 -17 -56 -27t-62 -10q-31 0 -57 10
t-45 27zM258 159q31 0 59 15t48.5 40t26.5 55q10 46 -13.5 78t-73.5 32q-30 0 -57.5 -15t-47 -39.5t-26.5 -55.5q-10 -46 12 -78t72 -32z" />
    <glyph glyph-name="dollar" unicode="$" horiz-adv-x="555" 
d="M160 -86l16 76q-55 2 -99 9.5t-76 22.5l21 96q37 -16 82 -25.5t91 -10.5l44 206q-3 0 -7 2q-93 28 -129 69t-20 114q16 75 75 121.5t159 56.5l17 79h82l-17 -77q47 -2 86 -9.5t61 -15.5l-20 -96q-64 26 -146 29l-43 -198q97 -27 131 -75t20 -116q-16 -74 -71.5 -121
t-157.5 -58l-17 -79h-82zM260 386l37 171q-46 -7 -71 -26.5t-33 -57.5q-7 -34 7.5 -52.5t59.5 -34.5zM279 87q42 7 66.5 26t32.5 59q8 35 -6.5 55.5t-55.5 36.5z" />
    <glyph glyph-name="dong" unicode="&#x20ab;" horiz-adv-x="593" 
d="M196 -10q-61 0 -104.5 25.5t-60.5 79.5t1 140q28 128 99.5 188.5t174.5 60.5q87 0 138 -41l19 92h-156l17 78h156l13 61h109l-13 -61h55l-17 -78h-55l-113 -535h-93l2 47q-38 -29 -79 -43t-93 -14zM243 72q73 0 132 50l51 237q-37 42 -109 42q-64 0 -110 -39.5
t-65 -127.5q-18 -85 3.5 -123.5t97.5 -38.5zM5 -134l18 83h432l-18 -83h-432z" />
    <glyph glyph-name="Euro" unicode="&#x20ac;" horiz-adv-x="588" 
d="M320 -10q-119 0 -175.5 55.5t-59.5 150.5h-71l14 67h61q2 11 3.5 22t4.5 23q2 11 4.5 22.5t5.5 22.5h-59l14 67h66q27 72 69.5 124.5t107 81t156.5 28.5q57 0 92.5 -8.5t72.5 -22.5l-20 -94q-37 17 -72 24.5t-85 7.5q-87 0 -135.5 -36.5t-75.5 -104.5h218l-14 -67h-226
l-10 -45q-6 -24 -9 -45h225l-14 -67h-215q2 -58 38 -86t119 -28q47 0 85.5 6.5t82.5 22.5l-20 -94q-43 -13 -82 -20t-96 -7z" />
    <glyph glyph-name="florin" unicode="&#x192;" horiz-adv-x="517" 
d="M-70 -123q-51 0 -77 17l16 77q27 -11 58 -11q44 0 70.5 16.5t45.5 62.5l147 350h-68l36 85h68l26 58q22 52 50 87t69.5 53t103.5 18q30 0 48.5 -4.5t35.5 -12.5l-17 -78q-13 5 -32 8t-36 3q-35 0 -56 -7.5t-34 -23.5t-25 -44l-24 -57h124l-41 -85h-119l-150 -355
q-32 -76 -81 -116.5t-138 -40.5z" />
    <glyph glyph-name="uni20B2" unicode="&#x20b2;" horiz-adv-x="641" 
d="M220 -120l24 114q-123 15 -173.5 98.5t-22.5 216.5q31 144 112.5 234.5t223.5 106.5l18 85h82l-18 -81q50 -1 89.5 -8.5t73.5 -20.5l-20 -94q-70 27 -162 30l-45 -208h211l-66 -310q-34 -19 -88.5 -34.5t-133.5 -17.5l-23 -111h-82zM264 86l99 468q-85 -18 -135 -80
t-70 -165q-21 -101 3 -155t103 -68zM345 82q36 1 65.5 6t55.5 14l38 180h-117z" />
    <glyph glyph-name="lira" unicode="&#x20a4;" horiz-adv-x="498" 
d="M-17 0l17 84h25q29 0 46.5 17.5t23.5 47.5l7 32h-68l17 80h68l12 55h-68l17 80h68l19 93q17 77 71.5 121t139.5 44q36 0 64.5 -5.5t47.5 -15.5l-17 -78q-12 8 -35.5 11.5t-44.5 3.5q-50 0 -79.5 -20t-39.5 -67l-18 -87h182l-20 -80h-179l-12 -55h182l-20 -80h-179
q-7 -33 -15 -57.5t-31 -39.5h247l-17 -84h-411z" />
    <glyph glyph-name="uni20BA" unicode="&#x20ba;" horiz-adv-x="580" 
d="M69 0l63 297l-92 -28l13 65l92 28l15 70l-92 -28l14 66l92 28l31 146h104l-23 -112l194 60l-13 -65l-195 -60l-15 -71l195 61l-14 -65l-195 -60l-54 -253q201 6 243 204l9 43h105l-8 -39q-31 -142 -122.5 -214.5t-247.5 -72.5h-99z" />
    <glyph glyph-name="uni20A6" unicode="&#x20a6;" horiz-adv-x="662" 
d="M41 0l45 216h-58l17 77h58l12 59h-58l16 76h58l46 216h96l71 -216h138l46 216h109l-46 -216h57l-16 -76h-57l-12 -59h57l-17 -77h-57l-45 -216h-97l-72 216h-137l-45 -216h-109zM240 428h22l-13 41zM212 293h95l-20 59h-63zM388 293h65l13 59h-97zM428 173l9 43h-23z" />
    <glyph glyph-name="peseta" unicode="&#x20a7;" horiz-adv-x="1200" 
d="M3 0l136 644h195q70 0 112 -28t56.5 -76.5t1.5 -110.5q-21 -96 -91 -154.5t-174 -58.5h-82l-45 -216h-109zM176 303h65q65 0 105 34t53 92q13 62 -8.5 95t-90.5 33h-70zM895 -10q-49 0 -92.5 7t-70.5 17l20 90q32 -13 71 -19.5t76 -6.5q56 0 82 10.5t33 39.5q5 21 -7 33
t-39 22t-67 24q-39 14 -66.5 30.5t-38.5 42.5t-3 68q14 65 66.5 100.5t159.5 35.5q41 0 77 -6t61 -15l-19 -89q-25 11 -57.5 17t-61.5 6q-52 0 -81 -10t-35 -37q-6 -28 19 -39.5t83 -31.5q52 -17 81 -36t38 -45.5t0 -68.5q-15 -70 -69 -104.5t-160 -34.5zM611 -10
q-69 0 -101 40.5t-17 110.5l24 109h-60l17 82h60l25 117l113 25l-30 -142h126l-20 -82h-123l-23 -105q-9 -41 5 -59t60 -18q28 0 59 10l-15 -72q-44 -16 -100 -16z" />
    <glyph glyph-name="uni20B1" unicode="&#x20b1;" horiz-adv-x="616" 
d="M1 0l71 337h-35l15 72h35l9 42h-35l16 72h34l26 121h265q74 0 117.5 -33t54.5 -88h58l-16 -72h-40l-4 -22l-5 -20h40l-15 -72h-56q-33 -56 -90.5 -88t-137.5 -32h-152l-46 -217h-109zM218 523h244q-19 37 -94 37h-142zM193 409h268q2 5 3 10l2 10l3 22h-267zM170 300h137
q66 0 108 37h-237z" />
    <glyph glyph-name="uni20BD" unicode="&#x20bd;" horiz-adv-x="641" 
d="M42 0l19 90h-59l18 86h59l13 62h-59l18 86h59l68 320h279q101 0 147 -55t26 -149q-20 -96 -88 -149t-169 -53h-173l-13 -62h126l-18 -86h-126l-19 -90h-108zM218 324h147q65 0 104 27t51 85q14 62 -8 92t-92 30h-152z" />
    <glyph glyph-name="uni20B9" unicode="&#x20b9;" horiz-adv-x="451" 
d="M167 0l-39 180q-7 33 -25.5 46.5t-68.5 13.5l14 70h53q65 0 108 22.5t59 85.5h-196l15 70h194q1 86 -109 86h-67l14 70h365l-14 -70h-115q36 -28 34 -86h62l-15 -70h-61q-18 -67 -64 -104.5t-117 -51.5q23 -16 31 -30.5t14 -42.5l40 -189h-112z" />
    <glyph glyph-name="sterling" unicode="&#xa3;" horiz-adv-x="498" 
d="M-17 0l17 84h25q29 0 46.5 17.5t23.5 47.5l32 150h-68l18 84h68l22 106q17 77 71.5 121t139.5 44q36 0 64.5 -5.5t47.5 -15.5l-17 -78q-12 8 -35.5 11.5t-44.5 3.5q-50 0 -79.5 -20t-39.5 -67l-21 -100h182l-22 -84h-178l-31 -145q-5 -24 -13.5 -41t-26.5 -29h247
l-17 -84h-411z" />
    <glyph glyph-name="yen" unicode="&#xa5;" horiz-adv-x="656" 
d="M214 0l19 90h-151l14 68h151l11 54h-150l14 68h127l-130 364h109l106 -313l238 313h117l-285 -364h128l-14 -68h-152l-11 -54h151l-14 -68h-151l-19 -90h-108z" />
    <glyph glyph-name="uni2219" unicode="&#x2219;" horiz-adv-x="180" 
d="M38 259l18 86h93l-18 -86h-93z" />
    <glyph glyph-name="uni2215" unicode="&#x2215;" horiz-adv-x="513" 
d="M-17 0l457 662h109l-455 -662h-111z" />
    <glyph glyph-name="plus" unicode="+" horiz-adv-x="473" 
d="M151 86l30 141h-147l18 85h147l31 146h87l-31 -146h147l-18 -85h-147l-30 -141h-87z" />
    <glyph glyph-name="minus" unicode="&#x2212;" horiz-adv-x="468" 
d="M31 227l18 85h382l-18 -85h-382z" />
    <glyph glyph-name="multiply" unicode="&#xd7;" horiz-adv-x="414" 
d="M276 90l-86 109l-127 -104l-44 55l127 105l-86 108l66 55l84 -109l133 108l43 -55l-132 -109l86 -109z" />
    <glyph glyph-name="divide" unicode="&#xf7;" horiz-adv-x="468" 
d="M216 397l17 81h88l-17 -81h-88zM34 227l18 85h381l-18 -85h-381zM146 66l17 81h88l-17 -81h-88z" />
    <glyph glyph-name="equal" unicode="=" horiz-adv-x="473" 
d="M48 308l16 77h386l-16 -77h-386zM15 154l17 78h386l-17 -78h-386z" />
    <glyph glyph-name="notequal" unicode="&#x2260;" horiz-adv-x="473" 
d="M69 71l47 83h-101l17 78h128l44 76h-156l16 77h183l45 78h92l-45 -78h111l-16 -77h-138l-44 -76h166l-17 -78h-193l-47 -83h-92z" />
    <glyph glyph-name="greater" unicode="&#x3e;" horiz-adv-x="544" 
d="M-8 46l22 106l376 152l-312 151l22 97l414 -208l-19 -89z" />
    <glyph glyph-name="less" unicode="&#x3c;" horiz-adv-x="544" 
d="M450 46l-413 209l19 89l502 208l-22 -105l-375 -151l311 -152z" />
    <glyph glyph-name="greaterequal" unicode="&#x2265;" horiz-adv-x="544" 
d="M6 109l19 97l375 148l-312 148l20 87l415 -202l-16 -75zM-17 0l16 78h458l-16 -78h-458z" />
    <glyph glyph-name="lessequal" unicode="&#x2264;" horiz-adv-x="544" 
d="M464 109l-415 203l16 75l501 202l-20 -97l-374 -148l311 -148zM-17 0l16 78h458l-16 -78h-458z" />
    <glyph glyph-name="plusminus" unicode="&#xb1;" horiz-adv-x="473" 
d="M159 126l30 141h-147l18 85h147l31 146h87l-31 -146h147l-18 -85h-147l-30 -141h-87zM-14 0l18 85h381l-18 -85h-381z" />
    <glyph glyph-name="approxequal" unicode="&#x2248;" horiz-adv-x="473" 
d="M330 283q-28 0 -48.5 8t-39 18.5t-39 18.5t-49.5 8q-31 0 -55.5 -8t-53.5 -34l18 84q22 20 49.5 27.5t57.5 7.5t52 -8t41 -18.5t39.5 -18.5t47.5 -8q29 0 52 8t52 35l-18 -86q-22 -19 -49 -26.5t-57 -7.5zM296 127q-28 0 -48.5 8t-38.5 18.5t-38.5 18.5t-49.5 8
q-31 0 -55.5 -8t-53.5 -35l17 84q23 20 50.5 27.5t57.5 7.5t52 -8t41 -18.5t39.5 -18.5t47.5 -8q29 0 51.5 8t52.5 35l-18 -85q-22 -20 -49.5 -27t-57.5 -7z" />
    <glyph glyph-name="asciitilde" unicode="~" horiz-adv-x="562" 
d="M387 217q-31 0 -58.5 10.5t-53.5 24.5t-53.5 24.5t-58.5 10.5q-73 0 -132 -60l23 108q22 23 57.5 37.5t72.5 14.5q35 0 62.5 -10.5t53 -24.5t51.5 -24.5t57 -10.5q38 0 68.5 14t60.5 45l-23 -108q-22 -24 -55.5 -37.5t-71.5 -13.5z" />
    <glyph glyph-name="logicalnot" unicode="&#xac;" horiz-adv-x="524" 
d="M362 141l31 145h-350l18 85h437l-49 -230h-87z" />
    <glyph glyph-name="asciicircum" unicode="^" horiz-adv-x="476" 
d="M65 387l203 237h79l107 -237h-98l-60 158l-126 -158h-105z" />
    <glyph glyph-name="infinity" unicode="&#x221e;" horiz-adv-x="701" 
d="M170 131q-70 0 -107 37.5t-21 113.5q17 76 70 113.5t123 37.5q48 0 78.5 -24t44.5 -62q32 38 77.5 62t94.5 24q70 0 106.5 -37.5t19.5 -113.5q-16 -76 -68.5 -113.5t-122.5 -37.5q-49 0 -79 23.5t-45 62.5q-31 -39 -77 -62.5t-94 -23.5zM191 204q37 0 66.5 20.5
t52.5 57.5q-10 39 -29.5 58.5t-56.5 19.5q-43 0 -68.5 -20.5t-33.5 -57.5q-7 -37 9.5 -57.5t59.5 -20.5zM477 204q42 0 67.5 20.5t32.5 57.5q8 37 -8.5 57.5t-58.5 20.5q-37 0 -66 -19.5t-56 -60.5q12 -37 32 -56.5t57 -19.5z" />
    <glyph glyph-name="integral" unicode="&#x222b;" horiz-adv-x="440" 
d="M30 -123q-30 0 -52 4.5t-40 12.5l15 77q14 -5 29 -8t32 -3q47 0 68 17.5t30 57.5l106 497q15 71 58.5 114.5t131.5 43.5q30 0 52.5 -4.5t41.5 -12.5l-17 -78q-14 5 -29 8t-32 3q-46 0 -67.5 -17t-30.5 -58l-105 -497q-15 -70 -60 -113.5t-131 -43.5z" />
    <glyph glyph-name="uni2126" unicode="&#x2126;" horiz-adv-x="764" 
d="M-10 0l17 82h144q-60 44 -86 114.5t-5 167.5t73.5 171.5t137 117t198.5 42.5q107 0 173.5 -42.5t91 -117t3.5 -171.5t-76 -168t-134 -114h143l-17 -82h-275l17 84q99 48 155.5 118t75.5 158q16 72 5 126.5t-55 85t-127 30.5q-74 0 -131.5 -30.5t-95 -85t-53.5 -126.5
q-19 -88 8.5 -158t104.5 -118l-17 -84h-275z" />
    <glyph glyph-name="product" unicode="&#x220f;" horiz-adv-x="631" 
d="M-25 -129l178 835h504l-178 -835h-109l160 751h-286l-160 -751h-109z" />
    <glyph glyph-name="summation" unicode="&#x2211;" horiz-adv-x="535" 
d="M-43 -120l14 68l307 317l-173 316l14 63h449l-18 -85h-311l161 -297l-287 -298h311l-18 -84h-449z" />
    <glyph glyph-name="radical" unicode="&#x221a;" horiz-adv-x="690" 
d="M223 0l-56 364h-107l18 85h181l40 -322l329 587h109l-402 -714h-112z" />
    <glyph glyph-name="partialdiff" unicode="&#x2202;" horiz-adv-x="623" 
d="M187 -10q-80 0 -123 28t-50 76.5t19 110.5q44 101 117 154t191 53q38 0 78 -12.5t65 -38.5l9 22q25 60 28.5 102t-22.5 63.5t-91 21.5q-96 0 -173 -30l35 85q37 14 81 21.5t93 7.5q81 0 124.5 -37t48.5 -103t-32 -152l-51 -123q-36 -86 -80 -141t-107 -81.5t-160 -26.5z
M217 69q74 0 124.5 37.5t80.5 109.5l29 70q-20 22 -50 34.5t-74 12.5q-78 0 -123 -33.5t-73 -98.5t-12 -98.5t98 -33.5z" />
    <glyph glyph-name="uni00B5" unicode="&#xb5;" horiz-adv-x="584" 
d="M-24 -143l131 617h109l-63 -299q-11 -53 6.5 -78t77.5 -25q40 0 77 15t67 40l74 347h108l-100 -474h-99l5 49q-37 -25 -85 -42t-104 -17q-40 0 -63 15l-32 -148h-109z" />
    <glyph glyph-name="percent" unicode="%" horiz-adv-x="727" 
d="M201 360q-68 0 -96.5 39.5t-15.5 100.5q15 71 56.5 112.5t118.5 41.5q67 0 95 -41.5t13 -112.5q-13 -61 -55 -100.5t-116 -39.5zM81 0l477 644h102l-477 -644h-102zM215 426q39 0 60.5 20t28.5 56q10 44 -2.5 64.5t-52.5 20.5q-38 0 -59.5 -20.5t-31.5 -64.5
q-7 -36 4.5 -56t52.5 -20zM480 -10q-68 0 -96.5 39.5t-15.5 100.5q15 71 56.5 112.5t118.5 41.5q67 0 95 -41.5t13 -112.5q-13 -61 -55 -100.5t-116 -39.5zM494 56q39 0 60.5 20t28.5 56q10 44 -2.5 64.5t-52.5 20.5q-38 0 -59.5 -20.5t-31.5 -64.5q-7 -36 4.5 -56t52.5 -20
z" />
    </font>
</defs>
</svg>
